{
.appVersion = "913";
DisplayStrings = (
"Raleway v4.000 \012using \U00B4 legacy acute: \U00C1/Aringacute/AEacute/Cacute \U00C9/Gacute \U00CD/Lacute/Nacute \U00D3/Oslashacute/Racute/Sacute \U00DA/Wacute \U00DD/Zacute \U00E1/aringacute/aeacute/cacute \U00E9/gacute \U00ED/lacute/nacute \U00F3/oslashacute/racute/sacute \U00FA/uhornacute/wacute \U00FD/zacute/uni0403/uni040C/uni0453/uni045C \012using /acutecomb  acutecomb: /Ohornacute/Uhornacute/ohornacute/brevecomb_acutecomb/circumflexcomb_acutecomb"
);
classes = (
{
code = "L' Lacute Lcaron Lcommaaccent Ldot Lslash";
name = _KERN_L_1ST;
},
{
code = "Z' Zacute Zcaron Zdotaccent Zdotbelow uni01C4 uni01F1";
name = _KERN_Z_1ST;
},
{
code = "uni0438' uni0432 uni0433 uni0439 uni043A uni043C uni043D uni043F uni0440 uni0446 uni0448 uni0449 uni044B uni044C uni044E uni0453 uni045A uni045C uni045D uni045F uni0491";
name = _KERN_uni0438_2ND;
},
{
code = "uni041E' uni042D uni042E";
name = _KERN_uni041E_1ST;
},
{
code = "a' aacute abreve acircumflex adieresis agrave amacron aogonek aring aringacute atilde";
name = _KERN_a_1ST;
},
{
code = "uni0415' uni0401";
name = _KERN_uni0415_1ST;
},
{
code = "A.sc B.sc C.sc D.sc E.sc F.sc G.sc H.sc I.sc J.sc K.sc L.sc M.sc N.sc O.sc P.sc Q.sc R.sc S.sc T.sc U.sc V.sc W.sc X.sc Y.sc Z.sc";
name = smcp2;
},
{
code = "A' Aacute Abreve Acircumflex Adieresis Agrave Amacron Aogonek Aring Aringacute Atilde";
name = _KERN_A;
},
{
code = "h' hbar hcircumflex hdotbelow";
name = _KERN_h_1ST;
},
{
code = "n' eng m nacute napostrophe ncaron ncommaaccent ndotaccent ntilde p r racute rcaron rcommaaccent rdotbelow";
name = _KERN_n_2ND;
},
{
code = "o' oacute obreve ocircumflex odieresis odotbelow ograve ohungarumlaut omacron oslash oslashacute otilde schwa";
name = _KERN_o_1ST;
},
{
code = "u' u.alt uacute ubreve ucircumflex udieresis udotbelow ugrave uhungarumlaut umacron uogonek uring utilde";
name = _KERN_u_2ND;
},
{

glyphs = (
{
glyphname = A;
lastChange = "2016-08-09 19:03:41 +0000";
layers = (
{
anchors = (
{
name = bottom;
position = "{641, 8}";
},
{
name = bottomviet;
position = "{347, 8}";
},
{
name = ogonek;
position = "{607, 10}";
},
{
name = top;
position = "{337, 707}";
}
);
layerId = "DC0D5209-C0CE-4187-A591-293A64199C8F";
paths = (
{
closed = 1;
nodes = (
"18 0 LINE",
"40 0 LINE",
"151 254 LINE",
"522 254 LINE",
"633 0 LINE",
"655 0 LINE",
"346 710 LINE",
"328 710 LINE"
);
},
{
closed = 1;
nodes = (
"159 274 LINE",
"337 681 LINE",
"513 274 LINE"
);
}
);
width = 674;
},
{
anchors = (
{
name = bottom;
position = "{616, 5}";
},
{
name = bottomviet;
position = "{348, 0}";
},
{
name = ogonek;
position = "{609, 10}";
},
{
name = top;
position = "{339, 708}";
}
);
layerId = "A8272220-FCE5-4C48-BDEF-D37440F7149C";
paths = (
{
closed = 1;
nodes = (
"10 0 LINE",
"106 0 LINE",
"189 208 LINE",
"487 208 LINE",
"571 0 LINE",
"667 0 LINE",
"377 710 LINE",
"301 710 LINE"
);
},
{
closed = 1;
nodes = (
"207 278 LINE",
"339 606 LINE",
"467 278 LINE"
);
}
);
width = 677;
},
{
anchors = (
{
name = bottom;
position = "{571, 0}";
},
{
name = bottomviet;
position = "{346, 0}";
},
{
name = ogonek;
position = "{600, 10}";
},
{
name = top;
position = "{334, 710}";
}
);
layerId = "CD86D743-087E-48CD-95ED-391136C80322";
paths = (
{
closed = 1;
nodes = (
"-2 0 LINE",
"197 0 LINE",
"239 139 LINE",
"428 139 LINE",
"471 0 LINE",
"669 0 LINE",
"423 710 LINE",
"245 710 LINE"
);
},
{
closed = 1;
nodes = (
"268 269 LINE",
"334 489 LINE",
"397 269 LINE"
);
}
);
width = 667;
}
);
unicode = 0041;
userData = {
org.robofab.fontlab.mark = 0;
};
},
{
glyphname = AE;
lastChange = "2016-08-01 09:41:41 +0000";
layers = (
{
anchors = (
{
name = top;
position = "{464, 707}";
}
);
layerId = "DC0D5209-C0CE-4187-A591-293A64199C8F";
paths = (
{
closed = 1;
nodes = (
"-29 0 LINE",
"-4 0 LINE",
"163 254 LINE",
"444 254 LINE",
"444 0 LINE",
"910 0 LINE",
"910 20 LINE",
"464 20 LINE",
"464 353 LINE",
"847 353 LINE",
"847 373 LINE",
"464 373 LINE",
"464 690 LINE",
"901 690 LINE",
"901 710 LINE",
"439 710 LINE"
);
},
{
closed = 1;
nodes = (
"175 274 LINE",
"444 678 LINE",
"444 274 LINE"
);
}
);
width = 962;
},
{
anchors = (
{
name = top;
position = "{531, 708}";
}
);
layerId = "A8272220-FCE5-4C48-BDEF-D37440F7149C";
paths = (
{
closed = 1;
nodes = (
"-25 0 LINE",
"73 0 LINE",
"203 208 LINE",
"452 208 LINE",
"452 0 LINE",
"925 0 LINE",
"925 80 LINE",
"541 80 LINE",
"541 322 LINE",
"862 322 LINE",
"862 402 LINE",
"541 402 LINE",
"541 630 LINE",
"916 630 LINE",
"916 710 LINE",
"428 710 LINE"
);
},
{
closed = 1;
nodes = (
"243 288 LINE",
"446 605 LINE",
"446 288 LINE"
);
}
);
width = 961;
},
{
anchors = (
{
name = top;
position = "{625, 710}";
}
);
layerId = "CD86D743-087E-48CD-95ED-391136C80322";
paths = (
{
closed = 1;
nodes = (
"-26 0 LINE",
"180 0 LINE",
"255 139 LINE",
"456 139 LINE",
"456 0 LINE",
"941 0 LINE",
"941 170 LINE",
"650 170 LINE",
"650 276 LINE",
"878 276 LINE",
"878 446 LINE",
"650 446 LINE",
"650 540 LINE",
"932 540 LINE",
"932 710 LINE",
"405 710 LINE"
);
},
{
closed = 1;
nodes = (
"337 309 LINE",
"441 495 LINE",
"441 309 LINE"
);
}
);
width = 971;
}
);
unicode = 00C6;
userData = {
org.robofab.fontlab.mark = 0;
};
},
{
glyphname = B;
lastChange = "2016-08-01 09:41:41 +0000";
layers = (
{
layerId = "DC0D5209-C0CE-4187-A591-293A64199C8F";
paths = (
{
closed = 1;
nodes = (
"605 184 CURVE SMOOTH",
"605 265 OFFCURVE",
"554 340 OFFCURVE",
"473 364 CURVE",
"535 392 OFFCURVE",
"575 457 OFFCURVE",
"575 529 CURVE SMOOTH",
"575 618 OFFCURVE",
"513 710 OFFCURVE",
"413 710 CURVE SMOOTH",
"99 710 LINE",
"99 0 LINE",
"428 0 LINE SMOOTH",
"525 0 OFFCURVE",
"605 86 OFFCURVE"
);
},
{
closed = 1;
nodes = (
"585 184 CURVE SMOOTH",
"585 102 OFFCURVE",
"516 20 OFFCURVE",
"428 20 CURVE SMOOTH",
"119 20 LINE",
"119 348 LINE",
"435 348 LINE SMOOTH",
"521 348 OFFCURVE",
"585 269 OFFCURVE"
);
},
{
closed = 1;
nodes = (
"413 690 LINE SMOOTH",
"497 690 OFFCURVE",
"555 614 OFFCURVE",
"555 529 CURVE SMOOTH",
"555 450 OFFCURVE",
"494 368 OFFCURVE",
"407 368 CURVE SMOOTH",
"119 368 LINE",
"119 690 LINE"
);
}
);
width = 655;
},
{
layerId = "A8272220-FCE5-4C48-BDEF-D37440F7149C";
paths = (
{
closed = 1;
nodes = (
"630 183 CURVE SMOOTH",
"630 271 OFFCURVE",
"579 340 OFFCURVE",
"498 364 CURVE",
"563 393 OFFCURVE",
"600 459 OFFCURVE",
"600 529 CURVE SMOOTH",
"600 618 OFFCURVE",
"538 710 OFFCURVE",
"438 710 CURVE SMOOTH",
"85 710 LINE",
"85 0 LINE",
"422 0 LINE SMOOTH",
"536 0 OFFCURVE",
"630 73 OFFCURVE"
);
},
{
closed = 1;
nodes = (
"539 199 CURVE SMOOTH",
"539 135 OFFCURVE",
"488 78 OFFCURVE",
"422 78 CURVE SMOOTH",
"175 78 LINE",
"175 322 LINE",
"429 322 LINE SMOOTH",
"492 322 OFFCURVE",
"539 264 OFFCURVE"
);
},
{
closed = 1;
nodes = (
"407 632 LINE",
"467 632 OFFCURVE",
"511 580 OFFCURVE",
"511 513 CURVE SMOOTH",
"511 448 OFFCURVE",
"464 395 OFFCURVE",
"401 395 CURVE SMOOTH",
"175 395 LINE",
"175 632 LINE"
);
}
);
width = 671;
},
{
layerId = "CD86D743-087E-48CD-95ED-391136C80322";
paths = (
{
closed = 1;
nodes = (
"665 182 CURVE SMOOTH",
"665 281 OFFCURVE",
"614 340 OFFCURVE",
"533 364 CURVE",
"601 394 OFFCURVE",
"635 462 OFFCURVE",
"635 528 CURVE SMOOTH",
"635 618 OFFCURVE",
"573 710 OFFCURVE",
"473 710 CURVE SMOOTH",
"61 710 LINE",
"61 0 LINE",
"410 0 LINE SMOOTH",
"550 0 OFFCURVE",
"665 54 OFFCURVE"
);
},
{
closed = 1;
nodes = (
"467 222 CURVE SMOOTH",
"467 185 OFFCURVE",
"442 164 OFFCURVE",
"410 164 CURVE SMOOTH",
"256 164 LINE",
"256 283 LINE",
"417 283 LINE SMOOTH",
"446 283 OFFCURVE",
"467 257 OFFCURVE"
);
},
{
closed = 1;
nodes = (
"395 544 LINE SMOOTH",
"420 544 OFFCURVE",
"442 529 OFFCURVE",
"442 490 CURVE SMOOTH",
"442 446 OFFCURVE",
"415 435 OFFCURVE",
"389 435 CURVE SMOOTH",
"256 435 LINE",
"256 544 LINE"
);
}
);
width = 690;
}
);
unicode = 0042;
userData = {
org.robofab.fontlab.mark = 0;
};
},
{
glyphname = C;
lastChange = "2016-08-01 09:41:41 +0000";
layers = (
{
anchors = (
{
name = bottom;
position = "{380, 0}";
},
{
name = top;
position = "{381, 707}";
}
);
layerId = "DC0D5209-C0CE-4187-A591-293A64199C8F";
paths = (
{
closed = 1;
nodes = (
"48 360 CURVE SMOOTH",
"48 180 OFFCURVE",
"185 -6 OFFCURVE",
"378 -6 CURVE SMOOTH",
"486 -6 OFFCURVE",
"610 52 OFFCURVE",
"659 159 CURVE",
"640 164 LINE",
"585 60 OFFCURVE",
"476 14 OFFCURVE",
"382 14 CURVE SMOOTH",
"207 14 OFFCURVE",
"68 176 OFFCURVE",
"68 357 CURVE SMOOTH",
"68 521 OFFCURVE",
"181 694 OFFCURVE",
"379 694 CURVE SMOOTH",
"470 694 OFFCURVE",
"568 657 OFFCURVE",
"623 553 CURVE",
"642 559 LINE",
"599 649 OFFCURVE",
"509 714 OFFCURVE",
"383 714 CURVE SMOOTH",
"170 714 OFFCURVE",
"48 530 OFFCURVE"
);
}
);
width = 697;
},
{
anchors = (
{
name = bottom;
position = "{373, 0}";
},
{
name = top;
position = "{376, 708}";
}
);
layerId = "A8272220-FCE5-4C48-BDEF-D37440F7149C";
paths = (
{
closed = 1;
nodes = (
"39 360 CURVE SMOOTH",
"39 180 OFFCURVE",
"177 -6 OFFCURVE",
"372 -6 CURVE SMOOTH",
"482 -6 OFFCURVE",
"609 53 OFFCURVE",
"654 159 CURVE",
"579 200 LINE",
"538 112 OFFCURVE",
"450 75 OFFCURVE",
"376 75 CURVE SMOOTH",
"235 75 OFFCURVE",
"130 208 OFFCURVE",
"130 356 CURVE SMOOTH",
"130 490 OFFCURVE",
"215 633 OFFCURVE",
"373 633 CURVE SMOOTH",
"445 633 OFFCURVE",
"528 603 OFFCURVE",
"570 513 CURVE",
"641 559 LINE",
"597 650 OFFCURVE",
"503 714 OFFCURVE",
"377 714 CURVE SMOOTH",
"163 714 OFFCURVE",
"39 532 OFFCURVE"
);
}
);
width = 682;
},
{
anchors = (
{
name = bottom;
position = "{379, 0}";
},
{
name = top;
position = "{385, 710}";
}
);
layerId = "CD86D743-087E-48CD-95ED-391136C80322";
paths = (
{
closed = 1;
nodes = (
"22 361 CURVE SMOOTH",
"22 179 OFFCURVE",
"169 -6 OFFCURVE",
"379 -6 CURVE SMOOTH",
"500 -6 OFFCURVE",
"641 54 OFFCURVE",
"683 159 CURVE",
"524 254 LINE",
"500 190 OFFCURVE",
"436 167 OFFCURVE",
"383 167 CURVE SMOOTH",
"281 167 OFFCURVE",
"220 256 OFFCURVE",
"220 355 CURVE SMOOTH",
"220 444 OFFCURVE",
"269 541 OFFCURVE",
"381 541 CURVE SMOOTH",
"434 541 OFFCURVE",
"500 522 OFFCURVE",
"527 453 CURVE",
"676 559 LINE",
"627 652 OFFCURVE",
"521 714 OFFCURVE",
"385 714 CURVE SMOOTH",
"157 714 OFFCURVE",
"22 534 OFFCURVE"
);
}
);
width = 691;
}
);
unicode = 0043;
userData = {
org.robofab.fontlab.mark = 0;
};
},
{
glyphname = D;
lastChange = "2016-08-01 09:41:41 +0000";
layers = (
{
anchors = (
{
name = top;
position = "{353, 707}";
}
);
layerId = "DC0D5209-C0CE-4187-A591-293A64199C8F";
paths = (
{
closed = 1;
nodes = (
"327 0 LINE SMOOTH",
"531 0 OFFCURVE",
"660 141 OFFCURVE",
"660 356 CURVE SMOOTH",
"660 552 OFFCURVE",
"550 710 OFFCURVE",
"327 710 CURVE SMOOTH",
"99 710 LINE",
"99 0 LINE"
);
},
{
closed = 1;
nodes = (
"640 356 CURVE SMOOTH",
"640 165 OFFCURVE",
"533 20 OFFCURVE",
"327 20 CURVE SMOOTH",
"119 20 LINE",
"119 690 LINE",
"327 690 LINE SMOOTH",
"528 690 OFFCURVE",
"640 550 OFFCURVE"
);
}
);
width = 711;
},
{
anchors = (
{
name = top;
position = "{340, 708}";
}
);
layerId = "A8272220-FCE5-4C48-BDEF-D37440F7149C";
paths = (
{
closed = 1;
nodes = (
"331 0 LINE",
"540 0 OFFCURVE",
"674 141 OFFCURVE",
"674 356 CURVE SMOOTH",
"674 552 OFFCURVE",
"559 710 OFFCURVE",
"331 710 CURVE SMOOTH",
"85 710 LINE",
"85 0 LINE"
);
},
{
closed = 1;
nodes = (
"583 356 CURVE SMOOTH",
"583 199 OFFCURVE",
"495 80 OFFCURVE",
"331 80 CURVE SMOOTH",
"175 80 LINE",
"175 630 LINE",
"331 630 LINE SMOOTH",
"492 630 OFFCURVE",
"583 516 OFFCURVE"
);
}
);
width = 716;
},
{
anchors = (
{
name = top;
position = "{317, 710}";
}
);
layerId = "CD86D743-087E-48CD-95ED-391136C80322";
paths = (
{
closed = 1;
nodes = (
"334 0 LINE SMOOTH",
"550 0 OFFCURVE",
"692 141 OFFCURVE",
"692 356 CURVE SMOOTH",
"692 552 OFFCURVE",
"570 710 OFFCURVE",
"334 710 CURVE SMOOTH",
"61 710 LINE",
"61 0 LINE"
);
},
{
closed = 1;
nodes = (
"494 356 CURVE SMOOTH",
"494 249 OFFCURVE",
"436 170 OFFCURVE",
"334 170 CURVE SMOOTH",
"256 170 LINE",
"256 540 LINE",
"334 540 LINE SMOOTH",
"434 540 OFFCURVE",
"494 466 OFFCURVE"
);
}
);
width = 716;
}
);
unicode = 0044;
userData = {
org.robofab.fontlab.mark = 0;
};
},
{
glyphname = Eth;
lastChange = "2016-08-01 09:41:41 +0000";
layers = (
{
components = (
{
name = D;
transform = "{1, 0, 0, 1, 7, 0}";
}
);
layerId = "DC0D5209-C0CE-4187-A591-293A64199C8F";
paths = (
{
closed = 1;
nodes = (
"318 347 LINE",
"318 367 LINE",
"35 367 LINE",
"35 347 LINE"
);
}
);
width = 718;
},
{
components = (
{
name = D;
transform = "{1, 0, 0, 1, 6, 0}";
}
);
layerId = "A8272220-FCE5-4C48-BDEF-D37440F7149C";
paths = (
{
closed = 1;
nodes = (
"342 323 LINE",
"342 391 LINE",
"34 391 LINE",
"34 323 LINE"
);
}
);
width = 722;
},
{
components = (
{
name = D;
transform = "{1, 0, 0, 1, 4, 0}";
}
);
layerId = "CD86D743-087E-48CD-95ED-391136C80322";
paths = (
{
closed = 1;
nodes = (
"374 287 LINE",
"374 427 LINE",
"28 427 LINE",
"28 287 LINE"
);
}
);
width = 720;
}
);
unicode = 00D0;
userData = {
org.robofab.fontlab.mark = 0;
};
},
{
glyphname = Dcroat;
lastChange = "2016-08-01 09:41:41 +0000";
layers = (
{
components = (
{
name = D;
transform = "{1, 0, 0, 1, 7, 0}";
}
);
layerId = "DC0D5209-C0CE-4187-A591-293A64199C8F";
paths = (
{
closed = 1;
nodes = (
"318 347 LINE",
"318 367 LINE",
"35 367 LINE",
"35 347 LINE"
);
}
);
width = 718;
},
{
components = (
{
name = D;
transform = "{1, 0, 0, 1, 6, 0}";
}
);
layerId = "A8272220-FCE5-4C48-BDEF-D37440F7149C";
paths = (
{
closed = 1;
nodes = (
"342 323 LINE",
"342 391 LINE",
"34 391 LINE",
"34 323 LINE"
);
}
);
width = 722;
},
{
components = (
{
name = D;
transform = "{1, 0, 0, 1, 4, 0}";
}
);
layerId = "CD86D743-087E-48CD-95ED-391136C80322";
paths = (
{
closed = 1;
nodes = (
"374 287 LINE",
"374 427 LINE",
"28 427 LINE",
"28 287 LINE"
);
}
);
width = 720;
}
);
unicode = 0110;
userData = {
org.robofab.fontlab.mark = 0;
};
},
{
glyphname = E;
lastChange = "2016-08-09 17:50:11 +0000";
layers = (
{
anchors = (
{
name = bottom;
position = "{344, 0}";
},
{
name = ogonek;
position = "{555, 10}";
},
{
name = top;
position = "{344, 707}";
},
{
name = topleft;
position = "{20, 710}";
}
);
layerId = "DC0D5209-C0CE-4187-A591-293A64199C8F";
paths = (
{
closed = 1;
nodes = (
"119 20 LINE",
"119 353 LINE",
"502 353 LINE",
"502 373 LINE",
"119 373 LINE",
"119 690 LINE",
"556 690 LINE",
"556 710 LINE",
"99 710 LINE",
"99 0 LINE",
"565 0 LINE",
"565 20 LINE"
);
}
);
width = 617;
},
{
anchors = (
{
name = bottom;
position = "{334, 0}";
},
{
name = ogonek;
position = "{544, 10}";
},
{
name = top;
position = "{334, 708}";
},
{
name = topleft;
position = "{20, 710}";
}
);
layerId = "A8272220-FCE5-4C48-BDEF-D37440F7149C";
paths = (
{
closed = 1;
nodes = (
"175 80 LINE",
"175 325 LINE",
"508 325 LINE",
"508 400 LINE",
"175 400 LINE",
"175 630 LINE",
"558 630 LINE",
"558 710 LINE",
"85 710 LINE",
"85 0 LINE",
"567 0 LINE",
"567 80 LINE"
);
}
);
width = 605;
},
{
anchors = (
{
name = bottom;
position = "{316, 0}";
},
{
name = ogonek;
position = "{537, 10}";
},
{
name = top;
position = "{316, 710}";
},
{
name = topleft;
position = "{20, 710}";
}
);
layerId = "CD86D743-087E-48CD-95ED-391136C80322";
paths = (
{
closed = 1;
nodes = (
"256 170 LINE",
"256 282 LINE",
"514 282 LINE",
"514 440 LINE",
"256 440 LINE",
"256 540 LINE",
"558 540 LINE",
"558 710 LINE",
"61 710 LINE",
"61 0 LINE",
"567 0 LINE",
"567 170 LINE"
);
}
);
width = 597;
}
);
unicode = 0045;
userData = {
org.robofab.fontlab.mark = 0;
};
},
{
glyphname = F;
lastChange = "2016-08-01 09:41:41 +0000";
layers = (
{
layerId = "DC0D5209-C0CE-4187-A591-293A64199C8F";
paths = (
{
closed = 1;
nodes = (
"119 0 LINE",
"119 354 LINE",
"492 354 LINE",
"492 374 LINE",
"119 374 LINE",
"119 690 LINE",
"556 690 LINE",
"556 710 LINE",
"99 710 LINE",
"99 0 LINE"
);
}
);
width = 602;
},
{
layerId = "A8272220-FCE5-4C48-BDEF-D37440F7149C";
paths = (
{
closed = 1;
nodes = (
"175 0 LINE",
"175 318 LINE",
"494 318 LINE",
"494 393 LINE",
"175 393 LINE",
"175 630 LINE",
"554 630 LINE",
"554 710 LINE",
"85 710 LINE",
"85 0 LINE"
);
}
);
width = 583;
},
{
layerId = "CD86D743-087E-48CD-95ED-391136C80322";
paths = (
{
closed = 1;
nodes = (
"256 0 LINE",
"256 264 LINE",
"494 264 LINE",
"494 422 LINE",
"256 422 LINE",
"256 540 LINE",
"548 540 LINE",
"548 710 LINE",
"61 710 LINE",
"61 0 LINE"
);
}
);
width = 563;
}
);
unicode = 0046;
userData = {
org.robofab.fontlab.mark = 0;
};
},
{
glyphname = G;
lastChange = "2016-08-01 09:41:41 +0000";
layers = (
{
anchors = (
{
name = bottom;
position = "{382, 0}";
},
{
name = top;
position = "{370, 707}";
}
);
layerId = "DC0D5209-C0CE-4187-A591-293A64199C8F";
paths = (
{
closed = 1;
nodes = (
"383 -5 CURVE SMOOTH",
"485 -5 OFFCURVE",
"575 42 OFFCURVE",
"651 136 CURVE",
"651 164 LINE",
"568 60 OFFCURVE",
"481 15 OFFCURVE",
"383 15 CURVE SMOOTH",
"208 15 OFFCURVE",
"68 177 OFFCURVE",
"68 355 CURVE SMOOTH",
"68 522 OFFCURVE",
"184 695 OFFCURVE",
"371 695 CURVE SMOOTH",
"481 695 OFFCURVE",
"569 654 OFFCURVE",
"623 554 CURVE",
"642 560 LINE",
"597 650 OFFCURVE",
"518 715 OFFCURVE",
"371 715 CURVE SMOOTH",
"182 715 OFFCURVE",
"48 540 OFFCURVE",
"48 355 CURVE SMOOTH",
"48 180 OFFCURVE",
"186 -5 OFFCURVE"
);
},
{
closed = 1;
nodes = (
"639 0 LINE",
"659 0 LINE",
"659 338 LINE",
"472 338 LINE",
"472 318 LINE",
"639 318 LINE"
);
}
);
width = 720;
},
{
anchors = (
{
name = bottom;
position = "{375, 0}";
},
{
name = top;
position = "{369, 708}";
}
);
layerId = "A8272220-FCE5-4C48-BDEF-D37440F7149C";
paths = (
{
closed = 1;
nodes = (
"370 -5 CURVE SMOOTH",
"457 -5 OFFCURVE",
"532 32 OFFCURVE",
"597 109 CURVE",
"597 202 LINE",
"531 116 OFFCURVE",
"458 76 OFFCURVE",
"377 76 CURVE SMOOTH",
"237 76 OFFCURVE",
"130 203 OFFCURVE",
"130 355 CURVE SMOOTH",
"130 499 OFFCURVE",
"223 634 OFFCURVE",
"368 634 CURVE SMOOTH",
"455 634 OFFCURVE",
"530 594 OFFCURVE",
"572 512 CURVE",
"641 560 LINE",
"595 652 OFFCURVE",
"507 715 OFFCURVE",
"370 715 CURVE SMOOTH",
"180 715 OFFCURVE",
"39 548 OFFCURVE",
"39 357 CURVE SMOOTH",
"39 174 OFFCURVE",
"182 -5 OFFCURVE"
);
},
{
closed = 1;
nodes = (
"586 0 LINE",
"662 0 LINE",
"662 354 LINE",
"433 354 LINE",
"433 286 LINE",
"586 286 LINE"
);
}
);
width = 714;
},
{
anchors = (
{
name = bottom;
position = "{368, 0}";
},
{
name = top;
position = "{387, 710}";
}
);
layerId = "CD86D743-087E-48CD-95ED-391136C80322";
paths = (
{
closed = 1;
nodes = (
"368 -5 CURVE SMOOTH",
"440 -5 OFFCURVE",
"498 18 OFFCURVE",
"553 68 CURVE",
"553 258 LINE",
"506 200 OFFCURVE",
"448 168 OFFCURVE",
"385 168 CURVE SMOOTH",
"287 168 OFFCURVE",
"221 243 OFFCURVE",
"221 354 CURVE SMOOTH",
"221 464 OFFCURVE",
"287 542 OFFCURVE",
"380 542 CURVE SMOOTH",
"442 542 OFFCURVE",
"504 505 OFFCURVE",
"532 449 CURVE",
"677 560 LINE",
"626 656 OFFCURVE",
"515 715 OFFCURVE",
"387 715 CURVE SMOOTH",
"182 715 OFFCURVE",
"23 560 OFFCURVE",
"23 361 CURVE SMOOTH",
"23 130 OFFCURVE",
"183 -5 OFFCURVE"
);
},
{
closed = 1;
nodes = (
"543 0 LINE",
"704 0 LINE",
"704 378 LINE",
"412 378 LINE",
"412 238 LINE",
"543 238 LINE"
);
}
);
width = 739;
}
);
unicode = 0047;
userData = {
org.robofab.fontlab.mark = 0;
};
},
{
glyphname = H;
lastChange = "2016-08-01 09:41:41 +0000";
layers = (
{
anchors = (
{
name = top;
position = "{367, 707}";
}
);
layerId = "DC0D5209-C0CE-4187-A591-293A64199C8F";
paths = (
{
closed = 1;
nodes = (
"612 710 LINE",
"612 373 LINE",
"119 373 LINE",
"119 710 LINE",
"99 710 LINE",
"99 0 LINE",
"119 0 LINE",
"119 353 LINE",
"612 353 LINE",
"612 0 LINE",
"632 0 LINE",
"632 710 LINE"
);
}
);
width = 731;
},
{
anchors = (
{
name = top;
position = "{373, 708}";
}
);
layerId = "A8272220-FCE5-4C48-BDEF-D37440F7149C";
paths = (
{
closed = 1;
nodes = (
"566 710 LINE",
"566 403 LINE",
"175 403 LINE",
"175 710 LINE",
"85 710 LINE",
"85 0 LINE",
"175 0 LINE",
"175 323 LINE",
"566 323 LINE",
"566 0 LINE",
"656 0 LINE",
"656 710 LINE"
);
}
);
width = 741;
},
{
anchors = (
{
name = top;
position = "{378, 709}";
}
);
layerId = "CD86D743-087E-48CD-95ED-391136C80322";
paths = (
{
closed = 1;
nodes = (
"494 710 LINE",
"494 448 LINE",
"256 448 LINE",
"256 710 LINE",
"61 710 LINE",
"61 0 LINE",
"256 0 LINE",
"256 278 LINE",
"494 278 LINE",
"494 0 LINE",
"689 0 LINE",
"689 710 LINE"
);
}
);
width = 750;
}
);
unicode = 0048;
userData = {
org.robofab.fontlab.mark = 0;
};
},
{
glyphname = Hbar;
lastChange = "2016-08-01 09:41:41 +0000";
layers = (
{
components = (
{
name = H;
transform = "{1, 0, 0, 1, 5, 0}";
}
);
layerId = "DC0D5209-C0CE-4187-A591-293A64199C8F";
paths = (
{
closed = 1;
nodes = (
"687 554 LINE",
"687 574 LINE",
"54 574 LINE",
"54 554 LINE"
);
}
);
width = 741;
},
{
components = (
{
name = H;
transform = "{1, 0, 0, 1, 5, 0}";
}
);
layerId = "A8272220-FCE5-4C48-BDEF-D37440F7149C";
paths = (
{
closed = 1;
nodes = (
"711 548 LINE",
"711 595 LINE",
"40 595 LINE",
"40 548 LINE"
);
}
);
width = 751;
},
{
components = (
{
name = H;
transform = "{1, 0, 0, 1, 3, 0}";
}
);
layerId = "CD86D743-087E-48CD-95ED-391136C80322";
paths = (
{
closed = 1;
nodes = (
"742 538 LINE",
"742 626 LINE",
"14 626 LINE",
"14 538 LINE"
);
}
);
width = 756;
}
);
unicode = 0126;
userData = {
org.robofab.fontlab.mark = 0;
};
},
{
glyphname = I;
lastChange = "2016-08-01 09:41:41 +0000";
layers = (
{
anchors = (
{
name = bottom;
position = "{110, 0}";
},
{
name = top;
position = "{109, 707}";
}
);
layerId = "DC0D5209-C0CE-4187-A591-293A64199C8F";
paths = (
{
closed = 1;
nodes = (
"119 0 LINE",
"119 710 LINE",
"99 710 LINE",
"99 0 LINE"
);
}
);
width = 218;
},
{
anchors = (
{
name = bottom;
position = "{130, 0}";
},
{
name = top;
position = "{130, 708}";
}
);
layerId = "A8272220-FCE5-4C48-BDEF-D37440F7149C";
paths = (
{
closed = 1;
nodes = (
"175 0 LINE",
"175 710 LINE",
"85 710 LINE",
"85 0 LINE"
);
}
);
width = 260;
},
{
anchors = (
{
name = bottom;
position = "{158, 0}";
},
{
name = top;
position = "{158, 710}";
}
);
layerId = "CD86D743-087E-48CD-95ED-391136C80322";
paths = (
{
closed = 1;
nodes = (
"256 0 LINE",
"256 710 LINE",
"61 710 LINE",
"61 0 LINE"
);
}
);
width = 317;
}
);
unicode = 0049;
userData = {
org.robofab.fontlab.mark = 0;
};
},
{
glyphname = J;
lastChange = "2016-08-01 09:41:41 +0000";
layers = (
{
anchors = (
{
name = top;
position = "{373, 707}";
}
);
layerId = "DC0D5209-C0CE-4187-A591-293A64199C8F";
paths = (
{
closed = 1;
nodes = (
"19 33 LINE",
"61 4 OFFCURVE",
"112 -11 OFFCURVE",
"173 -11 CURVE SMOOTH",
"360 -11 OFFCURVE",
"383 133 OFFCURVE",
"383 349 CURVE SMOOTH",
"383 710 LINE",
"363 710 LINE",
"363 349 LINE SMOOTH",
"363 137 OFFCURVE",
"343 9 OFFCURVE",
"173 9 CURVE SMOOTH",
"116 9 OFFCURVE",
"68 23 OFFCURVE",
"30 49 CURVE"
);
}
);
width = 473;
},
{
anchors = (
{
name = top;
position = "{364, 708}";
}
);
layerId = "A8272220-FCE5-4C48-BDEF-D37440F7149C";
paths = (
{
closed = 1;
nodes = (
"12 33 LINE",
"54 4 OFFCURVE",
"105 -11 OFFCURVE",
"166 -11 CURVE SMOOTH",
"381 -11 OFFCURVE",
"408 133 OFFCURVE",
"408 349 CURVE SMOOTH",
"408 710 LINE",
"318 710 LINE",
"318 349 LINE SMOOTH",
"318 168 OFFCURVE",
"301 70 OFFCURVE",
"166 70 CURVE SMOOTH",
"109 70 OFFCURVE",
"61 88 OFFCURVE",
"35 106 CURVE"
);
}
);
width = 485;
},
{
anchors = (
{
name = top;
position = "{350, 710}";
}
);
layerId = "CD86D743-087E-48CD-95ED-391136C80322";
paths = (
{
closed = 1;
nodes = (
"1 33 LINE",
"43 4 OFFCURVE",
"94 -11 OFFCURVE",
"155 -11 CURVE SMOOTH",
"413 -11 OFFCURVE",
"445 133 OFFCURVE",
"445 349 CURVE SMOOTH",
"445 710 LINE",
"250 710 LINE",
"250 349 LINE SMOOTH",
"250 214 OFFCURVE",
"238 162 OFFCURVE",
"155 162 CURVE SMOOTH",
"98 162 OFFCURVE",
"50 186 OFFCURVE",
"42 192 CURVE"
);
}
);
width = 498;
}
);
unicode = 004A;
userData = {
org.robofab.fontlab.mark = 0;
};
},
{
glyphname = K;
lastChange = "2016-08-01 09:41:41 +0000";
layers = (
{
anchors = (
{
name = bottom;
position = "{314, 0}";
}
);
layerId = "DC0D5209-C0CE-4187-A591-293A64199C8F";
paths = (
{
closed = 1;
nodes = (
"119 0 LINE",
"119 221 LINE",
"282 386 LINE",
"588 0 LINE",
"614 0 LINE",
"297 400 LINE",
"600 710 LINE",
"571 710 LINE",
"119 249 LINE",
"119 710 LINE",
"99 710 LINE",
"99 0 LINE"
);
}
);
width = 621;
},
{
anchors = (
{
name = bottom;
position = "{338, 0}";
}
);
layerId = "A8272220-FCE5-4C48-BDEF-D37440F7149C";
paths = (
{
closed = 1;
nodes = (
"175 0 LINE",
"175 217 LINE",
"298 345 LINE",
"556 0 LINE",
"654 0 LINE",
"353 397 LINE",
"638 710 LINE",
"541 710 LINE",
"175 317 LINE",
"175 709 LINE",
"85 709 LINE",
"85 0 LINE"
);
}
);
width = 652;
},
{
anchors = (
{
name = bottom;
position = "{370, 0}";
}
);
layerId = "CD86D743-087E-48CD-95ED-391136C80322";
paths = (
{
closed = 1;
nodes = (
"256 0 LINE",
"256 205 LINE",
"310 261 LINE",
"486 0 LINE",
"710 0 LINE",
"434 392 LINE",
"692 710 LINE",
"472 710 LINE",
"256 440 LINE",
"256 710 LINE",
"61 710 LINE",
"61 0 LINE"
);
}
);
width = 690;
}
);
unicode = 004B;
userData = {
org.robofab.fontlab.mark = 0;
};
},
{
glyphname = L;
lastChange = "2016-08-01 09:41:41 +0000";
layers = (
{
anchors = (
{
name = bottom;
position = "{331, 0}";
},
{
name = top;
position = "{331, 707}";
}
);
layerId = "DC0D5209-C0CE-4187-A591-293A64199C8F";
paths = (
{
closed = 1;
nodes = (
"565 0 LINE",
"565 20 LINE",
"119 20 LINE",
"119 710 LINE",
"99 710 LINE",
"99 0 LINE"
);
}
);
width = 579;
},
{
anchors = (
{
name = bottom;
position = "{335, 0}";
},
{
name = top;
position = "{348, 708}";
}
);
layerId = "A8272220-FCE5-4C48-BDEF-D37440F7149C";
paths = (
{
closed = 1;
nodes = (
"571 0 LINE",
"571 80 LINE",
"175 80 LINE",
"175 710 LINE",
"85 710 LINE",
"85 0 LINE"
);
}
);
width = 584;
},
{
anchors = (
{
name = bottom;
position = "{337, 0}";
},
{
name = top;
position = "{371, 710}";
}
);
layerId = "CD86D743-087E-48CD-95ED-391136C80322";
paths = (
{
closed = 1;
nodes = (
"578 0 LINE",
"578 170 LINE",
"256 170 LINE",
"256 710 LINE",
"61 710 LINE",
"61 0 LINE"
);
}
);
width = 585;
}
);
unicode = 004C;
userData = {
org.robofab.fontlab.mark = 0;
};
},
{
glyphname = Lslash;
lastChange = "2016-08-01 09:41:41 +0000";
layers = (
{
components = (
{
name = L;
transform = "{1, 0, 0, 1, 7, 0}";
}
);
layerId = "DC0D5209-C0CE-4187-A591-293A64199C8F";
paths = (
{
closed = 1;
nodes = (
"328 506 LINE",
"314 521 LINE",
"29 236 LINE",
"43 221 LINE"
);
}
);
width = 586;
},
{
components = (
{
name = L;
transform = "{1, 0, 0, 1, 7, 0}";
}
);
layerId = "A8272220-FCE5-4C48-BDEF-D37440F7149C";
paths = (
{
closed = 1;
nodes = (
"349 474 LINE",
"324 523 LINE",
"10 283 LINE",
"36 233 LINE"
);
}
);
width = 591;
},
{
components = (
{
name = L;
transform = "{1, 0, 0, 1, 12, 0}";
}
);
layerId = "CD86D743-087E-48CD-95ED-391136C80322";
paths = (
{
closed = 1;
nodes = (
"382 426 LINE",
"339 527 LINE",
"-17 353 LINE",
"26 252 LINE"
);
}
);
width = 597;
}
);
unicode = 0141;
userData = {
org.robofab.fontlab.mark = 0;
};
},
{
glyphname = M;
lastChange = "2016-08-01 09:41:41 +0000";
layers = (
{
layerId = "DC0D5209-C0CE-4187-A591-293A64199C8F";
paths = (
{
closed = 1;
nodes = (
"785 0 LINE",
"785 710 LINE",
"769 710 LINE",
"442 164 LINE",
"115 710 LINE",
"99 710 LINE",
"99 0 LINE",
"119 0 LINE",
"119 666 LINE",
"434 140 LINE",
"450 140 LINE",
"765 666 LINE",
"765 0 LINE"
);
}
);
width = 884;
},
{
layerId = "A8272220-FCE5-4C48-BDEF-D37440F7149C";
paths = (
{
closed = 1;
nodes = (
"789 0 LINE",
"789 710 LINE",
"695 710 LINE",
"437 249 LINE",
"180 710 LINE",
"85 710 LINE",
"85 0 LINE",
"175 0 LINE",
"175 549 LINE",
"412 128 LINE",
"463 128 LINE",
"699 549 LINE",
"699 0 LINE"
);
}
);
width = 874;
},
{
layerId = "CD86D743-087E-48CD-95ED-391136C80322";
paths = (
{
closed = 1;
nodes = (
"793 0 LINE",
"793 710 LINE",
"581 710 LINE",
"427 376 LINE",
"274 710 LINE",
"61 710 LINE",
"61 0 LINE",
"256 0 LINE",
"256 374 LINE",
"375 111 LINE",
"479 111 LINE",
"598 374 LINE",
"598 0 LINE"
);
}
);
width = 854;
}
);
unicode = 004D;
userData = {
org.robofab.fontlab.mark = 0;
};
},
{
glyphname = N;
lastChange = "2016-08-01 09:41:41 +0000";
layers = (
{
anchors = (
{
name = bottom;
position = "{394, 0}";
},
{
name = top;
position = "{393, 707}";
}
);
layerId = "DC0D5209-C0CE-4187-A591-293A64199C8F";
paths = (
{
closed = 1;
nodes = (
"654 0 LINE",
"677 0 LINE",
"677 710 LINE",
"657 710 LINE",
"657 29 LINE",
"114 710 LINE",
"99 710 LINE",
"99 0 LINE",
"119 0 LINE",
"119 671 LINE"
);
}
);
width = 776;
},
{
anchors = (
{
name = bottom;
position = "{387, 0}";
},
{
name = top;
position = "{387, 708}";
}
);
layerId = "A8272220-FCE5-4C48-BDEF-D37440F7149C";
paths = (
{
closed = 1;
nodes = (
"609 0 LINE",
"685 0 LINE",
"685 709 LINE",
"595 709 LINE",
"595 157 LINE",
"155 710 LINE",
"85 710 LINE",
"85 0 LINE",
"175 0 LINE",
"175 542 LINE"
);
}
);
width = 770;
},
{
anchors = (
{
name = bottom;
position = "{374, 0}";
},
{
name = top;
position = "{374, 709}";
}
);
layerId = "CD86D743-087E-48CD-95ED-391136C80322";
paths = (
{
closed = 1;
nodes = (
"538 0 LINE",
"693 0 LINE",
"693 710 LINE",
"498 710 LINE",
"498 349 LINE",
"213 710 LINE",
"61 710 LINE",
"61 0 LINE",
"256 0 LINE",
"256 349 LINE"
);
}
);
width = 754;
}
);
unicode = 004E;
userData = {
org.robofab.fontlab.mark = 0;
};
},
{
glyphname = Eng;
lastChange = "2016-08-01 09:41:41 +0000";
layers = (
{
layerId = "DC0D5209-C0CE-4187-A591-293A64199C8F";
paths = (
{
closed = 1;
nodes = (
"657 -4 LINE",
"657 -36 LINE SMOOTH",
"657 -100 OFFCURVE",
"598 -150 OFFCURVE",
"543 -150 CURVE SMOOTH",
"515 -150 OFFCURVE",
"484 -145 OFFCURVE",
"460 -124 CURVE",
"444 -136 LINE",
"470 -162 OFFCURVE",
"505 -170 OFFCURVE",
"544 -170 CURVE SMOOTH",
"606 -170 OFFCURVE",
"677 -114 OFFCURVE",
"677 -36 CURVE SMOOTH",
"677 709 LINE",
"657 709 LINE",
"657 29 LINE",
"114 710 LINE",
"99 710 LINE",
"99 0 LINE",
"119 0 LINE",
"119 671 LINE"
);
}
);
width = 776;
},
{
layerId = "A8272220-FCE5-4C48-BDEF-D37440F7149C";
paths = (
{
closed = 1;
nodes = (
"589 15 LINE",
"589 -23 LINE SMOOTH",
"589 -72 OFFCURVE",
"547 -108 OFFCURVE",
"504 -108 CURVE SMOOTH",
"480 -108 OFFCURVE",
"454 -102 OFFCURVE",
"436 -85 CURVE",
"395 -144 LINE",
"427 -173 OFFCURVE",
"469 -186 OFFCURVE",
"514 -186 CURVE SMOOTH",
"598 -186 OFFCURVE",
"677 -118 OFFCURVE",
"677 -20 CURVE SMOOTH",
"677 709 LINE",
"587 709 LINE",
"587 161 LINE",
"154 710 LINE",
"85 710 LINE",
"85 0 LINE",
"175 0 LINE",
"175 540 LINE"
);
}
);
width = 762;
},
{
layerId = "CD86D743-087E-48CD-95ED-391136C80322";
paths = (
{
closed = 1;
nodes = (
"483 44 LINE",
"483 -3 LINE SMOOTH",
"483 -30 OFFCURVE",
"468 -46 OFFCURVE",
"443 -46 CURVE SMOOTH",
"425 -46 OFFCURVE",
"407 -38 OFFCURVE",
"396 -26 CURVE",
"318 -155 LINE",
"359 -190 OFFCURVE",
"412 -209 OFFCURVE",
"467 -209 CURVE SMOOTH",
"584 -209 OFFCURVE",
"673 -125 OFFCURVE",
"673 5 CURVE SMOOTH",
"673 709 LINE",
"478 709 LINE",
"478 359 LINE",
"211 710 LINE",
"61 710 LINE",
"61 0 LINE",
"256 0 LINE",
"256 343 LINE"
);
}
);
width = 735;
}
);
unicode = 014A;
userData = {
org.robofab.fontlab.mark = 0;
};
},
{
glyphname = O;
lastChange = "2016-08-09 18:59:55 +0000";
layers = (
{
anchors = (
{
name = bottom;
position = "{379, 0}";
},
{
name = center;
position = "{379, 355}";
},
{
name = ogonek;
position = "{681, 10}";
},
{
name = top;
position = "{379, 707}";
},
{
name = topleft;
position = "{20, 710}";
},
{
name = topright;
position = "{509, 672}";
}
);
layerId = "DC0D5209-C0CE-4187-A591-293A64199C8F";
paths = (
{
closed = 1;
nodes = (
"379 -5 CURVE SMOOTH",
"565 -5 OFFCURVE",
"709 164 OFFCURVE",
"709 355 CURVE SMOOTH",
"709 532 OFFCURVE",
"575 715 OFFCURVE",
"379 715 CURVE SMOOTH",
"192 715 OFFCURVE",
"48 544 OFFCURVE",
"48 355 CURVE SMOOTH",
"48 173 OFFCURVE",
"183 -4 OFFCURVE"
);
},
{
closed = 1;
nodes = (
"68 355 CURVE SMOOTH",
"68 523 OFFCURVE",
"194 695 OFFCURVE",
"379 695 CURVE SMOOTH",
"555 695 OFFCURVE",
"689 532 OFFCURVE",
"689 355 CURVE SMOOTH",
"689 188 OFFCURVE",
"564 15 OFFCURVE",
"379 15 CURVE SMOOTH",
"199 15 OFFCURVE",
"68 178 OFFCURVE"
);
}
);
width = 757;
},
{
anchors = (
{
name = bottom;
position = "{373, 0}";
},
{
name = center;
position = "{374, 355}";
},
{
name = ogonek;
position = "{673, 10}";
},
{
name = top;
position = "{375, 708}";
},
{
name = topleft;
position = "{20, 710}";
},
{
name = topright;
position = "{505, 645}";
}
);
layerId = "A8272220-FCE5-4C48-BDEF-D37440F7149C";
paths = (
{
closed = 1;
nodes = (
"373 -5 CURVE SMOOTH",
"565 -5 OFFCURVE",
"708 165 OFFCURVE",
"708 354 CURVE SMOOTH",
"708 532 OFFCURVE",
"574 715 OFFCURVE",
"375 715 CURVE SMOOTH",
"183 715 OFFCURVE",
"39 544 OFFCURVE",
"39 355 CURVE SMOOTH",
"39 173 OFFCURVE",
"174 -5 OFFCURVE"
);
},
{
closed = 1;
nodes = (
"130 355 CURVE SMOOTH",
"130 493 OFFCURVE",
"223 633 OFFCURVE",
"374 633 CURVE SMOOTH",
"518 633 OFFCURVE",
"617 500 OFFCURVE",
"617 355 CURVE SMOOTH",
"617 218 OFFCURVE",
"525 76 OFFCURVE",
"374 76 CURVE SMOOTH",
"227 76 OFFCURVE",
"130 210 OFFCURVE"
);
}
);
width = 748;
},
{
anchors = (
{
name = bottom;
position = "{381, 0}";
},
{
name = center;
position = "{383, 355}";
},
{
name = ogonek;
position = "{688, 10}";
},
{
name = top;
position = "{385, 710}";
},
{
name = topleft;
position = "{20, 710}";
},
{
name = topright;
position = "{546, 637}";
}
);
layerId = "CD86D743-087E-48CD-95ED-391136C80322";
paths = (
{
closed = 1;
nodes = (
"381 -6 CURVE SMOOTH",
"593 -6 OFFCURVE",
"743 166 OFFCURVE",
"743 352 CURVE SMOOTH",
"743 533 OFFCURVE",
"601 714 OFFCURVE",
"385 714 CURVE SMOOTH",
"174 714 OFFCURVE",
"22 544 OFFCURVE",
"22 356 CURVE SMOOTH",
"22 173 OFFCURVE",
"166 -6 OFFCURVE"
);
},
{
closed = 1;
nodes = (
"220 354 CURVE SMOOTH",
"220 447 OFFCURVE",
"270 541 OFFCURVE",
"382 541 CURVE SMOOTH",
"492 541 OFFCURVE",
"545 452 OFFCURVE",
"545 356 CURVE SMOOTH",
"545 263 OFFCURVE",
"496 167 OFFCURVE",
"383 167 CURVE SMOOTH",
"272 167 OFFCURVE",
"220 259 OFFCURVE"
);
}
);
width = 765;
}
);
unicode = 004F;
userData = {
org.robofab.fontlab.mark = 0;
};
},
{
glyphname = OE;
lastChange = "2016-08-01 09:41:41 +0000";
layers = (
{
layerId = "DC0D5209-C0CE-4187-A591-293A64199C8F";
paths = (
{
closed = 1;
nodes = (
"709 20 LINE",
"709 353 LINE",
"1092 353 LINE",
"1092 373 LINE",
"709 373 LINE",
"709 690 LINE",
"1146 690 LINE",
"1146 710 LINE",
"689 710 LINE",
"689 475 LINE",
"645 606 OFFCURVE",
"530 715 OFFCURVE",
"379 715 CURVE SMOOTH",
"192 715 OFFCURVE",
"48 544 OFFCURVE",
"48 355 CURVE SMOOTH",
"48 173 OFFCURVE",
"184 -5 OFFCURVE",
"381 -5 CURVE SMOOTH",
"525 -5 OFFCURVE",
"643 100 OFFCURVE",
"689 234 CURVE",
"689 0 LINE",
"1155 0 LINE",
"1155 20 LINE"
);
},
{
closed = 1;
nodes = (
"379 15 CURVE SMOOTH",
"199 15 OFFCURVE",
"68 178 OFFCURVE",
"68 355 CURVE SMOOTH",
"68 523 OFFCURVE",
"194 695 OFFCURVE",
"379 695 CURVE SMOOTH",
"555 695 OFFCURVE",
"689 532 OFFCURVE",
"689 356 CURVE SMOOTH",
"689 187 OFFCURVE",
"564 15 OFFCURVE"
);
}
);
width = 1207;
},
{
layerId = "A8272220-FCE5-4C48-BDEF-D37440F7149C";
paths = (
{
closed = 1;
nodes = (
"710 80 LINE",
"710 322 LINE",
"1031 322 LINE",
"1031 402 LINE",
"710 402 LINE",
"710 630 LINE",
"1085 630 LINE",
"1085 710 LINE",
"620 710 LINE",
"620 553 LINE",
"576 643 OFFCURVE",
"487 715 OFFCURVE",
"375 715 CURVE SMOOTH",
"183 715 OFFCURVE",
"39 544 OFFCURVE",
"39 355 CURVE SMOOTH",
"39 173 OFFCURVE",
"175 -5 OFFCURVE",
"374 -5 CURVE SMOOTH",
"483 -5 OFFCURVE",
"575 65 OFFCURVE",
"620 157 CURVE",
"620 0 LINE",
"1094 0 LINE",
"1094 80 LINE"
);
},
{
closed = 1;
nodes = (
"374 76 CURVE SMOOTH",
"227 76 OFFCURVE",
"130 210 OFFCURVE",
"130 355 CURVE SMOOTH",
"130 493 OFFCURVE",
"223 634 OFFCURVE",
"374 634 CURVE SMOOTH",
"518 634 OFFCURVE",
"617 500 OFFCURVE",
"617 356 CURVE SMOOTH",
"617 217 OFFCURVE",
"525 76 OFFCURVE"
);
}
);
width = 1131;
},
{
layerId = "CD86D743-087E-48CD-95ED-391136C80322";
paths = (
{
closed = 1;
nodes = (
"709 170 LINE",
"709 276 LINE",
"937 276 LINE",
"937 446 LINE",
"709 446 LINE",
"709 540 LINE",
"991 540 LINE",
"991 710 LINE",
"514 710 LINE",
"514 670 LINE",
"470 698 OFFCURVE",
"420 715 OFFCURVE",
"365 715 CURVE SMOOTH",
"166 715 OFFCURVE",
"22 544 OFFCURVE",
"22 356 CURVE SMOOTH",
"22 173 OFFCURVE",
"158 -5 OFFCURVE",
"361 -5 CURVE SMOOTH",
"417 -5 OFFCURVE",
"469 13 OFFCURVE",
"514 41 CURVE",
"514 0 LINE",
"1000 0 LINE",
"1000 170 LINE"
);
},
{
closed = 1;
nodes = (
"363 168 CURVE SMOOTH",
"266 168 OFFCURVE",
"220 259 OFFCURVE",
"220 354 CURVE SMOOTH",
"220 447 OFFCURVE",
"264 542 OFFCURVE",
"362 542 CURVE SMOOTH",
"458 542 OFFCURVE",
"505 452 OFFCURVE",
"505 356 CURVE SMOOTH",
"505 263 OFFCURVE",
"462 168 OFFCURVE"
);
}
);
width = 1030;
}
);
unicode = 0152;
userData = {
org.robofab.fontlab.mark = 0;
};
},
{
glyphname = P;
lastChange = "2016-08-01 09:41:41 +0000";
layers = (
{
layerId = "DC0D5209-C0CE-4187-A591-293A64199C8F";
paths = (
{
closed = 1;
nodes = (
"119 0 LINE",
"119 279 LINE",
"395 279 LINE SMOOTH",
"510 279 OFFCURVE",
"588 384 OFFCURVE",
"588 495 CURVE SMOOTH",
"588 601 OFFCURVE",
"504 710 OFFCURVE",
"388 710 CURVE SMOOTH",
"99 710 LINE",
"99 0 LINE"
);
},
{
closed = 1;
nodes = (
"119 690 LINE",
"388 690 LINE SMOOTH",
"488 690 OFFCURVE",
"568 596 OFFCURVE",
"568 495 CURVE SMOOTH",
"568 399 OFFCURVE",
"503 299 OFFCURVE",
"395 299 CURVE SMOOTH",
"119 299 LINE"
);
}
);
width = 619;
},
{
layerId = "A8272220-FCE5-4C48-BDEF-D37440F7149C";
paths = (
{
closed = 1;
nodes = (
"175 0 LINE",
"175 255 LINE",
"387 255 LINE SMOOTH",
"512 255 OFFCURVE",
"596 366 OFFCURVE",
"596 483 CURVE SMOOTH",
"596 595 OFFCURVE",
"506 710 OFFCURVE",
"381 710 CURVE SMOOTH",
"85 710 LINE",
"85 0 LINE"
);
},
{
closed = 1;
nodes = (
"175 630 LINE",
"376 630 LINE SMOOTH",
"445 630 OFFCURVE",
"505 567 OFFCURVE",
"505 483 CURVE SMOOTH",
"505 402 OFFCURVE",
"456 335 OFFCURVE",
"382 335 CURVE SMOOTH",
"175 335 LINE"
);
}
);
width = 623;
},
{
layerId = "CD86D743-087E-48CD-95ED-391136C80322";
paths = (
{
closed = 1;
nodes = (
"256 0 LINE",
"256 218 LINE",
"372 218 LINE SMOOTH",
"512 218 OFFCURVE",
"606 338 OFFCURVE",
"606 464 CURVE SMOOTH",
"606 585 OFFCURVE",
"506 710 OFFCURVE",
"367 710 CURVE SMOOTH",
"61 710 LINE",
"61 0 LINE"
);
},
{
closed = 1;
nodes = (
"256 540 LINE",
"354 540 LINE SMOOTH",
"378 540 OFFCURVE",
"408 523 OFFCURVE",
"408 464 CURVE SMOOTH",
"408 407 OFFCURVE",
"383 388 OFFCURVE",
"359 388 CURVE SMOOTH",
"256 388 LINE"
);
}
);
width = 623;
}
);
unicode = 0050;
userData = {
org.robofab.fontlab.mark = 0;
};
},
{
glyphname = Thorn;
lastChange = "2016-08-01 09:41:41 +0000";
layers = (
{
layerId = "DC0D5209-C0CE-4187-A591-293A64199C8F";
paths = (
{
closed = 1;
nodes = (
"368 560 CURVE",
"119 560 LINE",
"119 710 LINE",
"99 710 LINE",
"99 0 LINE",
"119 0 LINE",
"119 129 LINE",
"375 129 LINE SMOOTH",
"490 129 OFFCURVE",
"568 234 OFFCURVE",
"568 345 CURVE SMOOTH",
"568 451 OFFCURVE",
"484 560 OFFCURVE"
);
},
{
closed = 1;
nodes = (
"375 149 CURVE",
"119 149 LINE",
"119 540 LINE",
"368 540 LINE SMOOTH",
"468 540 OFFCURVE",
"548 446 OFFCURVE",
"548 345 CURVE SMOOTH",
"548 249 OFFCURVE",
"483 149 OFFCURVE"
);
}
);
width = 599;
},
{
layerId = "A8272220-FCE5-4C48-BDEF-D37440F7149C";
paths = (
{
closed = 1;
nodes = (
"363 573 CURVE",
"175 573 LINE",
"175 710 LINE",
"85 710 LINE",
"85 0 LINE",
"175 0 LINE",
"175 118 LINE",
"369 118 LINE SMOOTH",
"494 118 OFFCURVE",
"578 228 OFFCURVE",
"578 346 CURVE SMOOTH",
"578 458 OFFCURVE",
"488 573 OFFCURVE"
);
},
{
closed = 1;
nodes = (
"365 198 CURVE",
"175 198 LINE",
"175 493 LINE",
"359 493 LINE SMOOTH",
"429 493 OFFCURVE",
"488 426 OFFCURVE",
"488 346 CURVE SMOOTH",
"488 269 OFFCURVE",
"440 198 OFFCURVE"
);
}
);
width = 604;
},
{
layerId = "CD86D743-087E-48CD-95ED-391136C80322";
paths = (
{
closed = 1;
nodes = (
"352 592 CURVE SMOOTH",
"256 592 LINE",
"256 710 LINE",
"61 710 LINE",
"61 0 LINE",
"256 0 LINE",
"256 101 LINE",
"357 101 LINE SMOOTH",
"497 101 OFFCURVE",
"591 220 OFFCURVE",
"591 347 CURVE SMOOTH",
"591 468 OFFCURVE",
"491 592 OFFCURVE"
);
},
{
closed = 1;
nodes = (
"347 271 CURVE SMOOTH",
"256 271 LINE",
"256 422 LINE",
"342 422 LINE SMOOTH",
"367 422 OFFCURVE",
"396 396 OFFCURVE",
"396 347 CURVE SMOOTH",
"396 300 OFFCURVE",
"372 271 OFFCURVE"
);
}
);
width = 605;
}
);
unicode = 00DE;
userData = {
org.robofab.fontlab.mark = 0;
};
},
{
glyphname = Q;
lastChange = "2016-08-01 09:41:41 +0000";
layers = (
{
layerId = "DC0D5209-C0CE-4187-A591-293A64199C8F";
paths = (
{
closed = 1;
nodes = (
"379 -5 CURVE SMOOTH",
"565 -5 OFFCURVE",
"709 164 OFFCURVE",
"709 355 CURVE SMOOTH",
"709 532 OFFCURVE",
"575 715 OFFCURVE",
"379 715 CURVE SMOOTH",
"192 715 OFFCURVE",
"48 544 OFFCURVE",
"48 355 CURVE SMOOTH",
"48 173 OFFCURVE",
"183 -4 OFFCURVE"
);
},
{
closed = 1;
nodes = (
"379 15 CURVE SMOOTH",
"199 15 OFFCURVE",
"68 178 OFFCURVE",
"68 355 CURVE SMOOTH",
"68 523 OFFCURVE",
"194 695 OFFCURVE",
"379 695 CURVE SMOOTH",
"555 695 OFFCURVE",
"689 532 OFFCURVE",
"689 355 CURVE SMOOTH",
"689 188 OFFCURVE",
"564 15 OFFCURVE"
);
},
{
closed = 1;
nodes = (
"647 0 LINE",
"672 0 LINE",
"524 186 LINE",
"499 186 LINE"
);
}
);
width = 757;
},
{
layerId = "A8272220-FCE5-4C48-BDEF-D37440F7149C";
paths = (
{
closed = 1;
nodes = (
"373 -5 CURVE SMOOTH",
"565 -5 OFFCURVE",
"708 165 OFFCURVE",
"708 354 CURVE SMOOTH",
"708 532 OFFCURVE",
"574 715 OFFCURVE",
"375 715 CURVE SMOOTH",
"183 715 OFFCURVE",
"39 544 OFFCURVE",
"39 355 CURVE SMOOTH",
"39 173 OFFCURVE",
"174 -4 OFFCURVE"
);
},
{
closed = 1;
nodes = (
"374 76 CURVE SMOOTH",
"227 76 OFFCURVE",
"130 210 OFFCURVE",
"130 355 CURVE SMOOTH",
"130 493 OFFCURVE",
"223 634 OFFCURVE",
"374 634 CURVE SMOOTH",
"518 634 OFFCURVE",
"617 500 OFFCURVE",
"617 355 CURVE SMOOTH",
"617 218 OFFCURVE",
"525 76 OFFCURVE"
);
},
{
closed = 1;
nodes = (
"613 0 LINE",
"701 0 LINE",
"502 232 LINE",
"414 232 LINE"
);
}
);
width = 746;
},
{
layerId = "CD86D743-087E-48CD-95ED-391136C80322";
paths = (
{
closed = 1;
nodes = (
"381 -5 CURVE SMOOTH",
"593 -5 OFFCURVE",
"743 166 OFFCURVE",
"743 352 CURVE SMOOTH",
"743 533 OFFCURVE",
"601 715 OFFCURVE",
"385 715 CURVE SMOOTH",
"174 715 OFFCURVE",
"22 544 OFFCURVE",
"22 356 CURVE SMOOTH",
"22 173 OFFCURVE",
"166 -5 OFFCURVE"
);
},
{
closed = 1;
nodes = (
"383 168 CURVE SMOOTH",
"272 168 OFFCURVE",
"220 259 OFFCURVE",
"220 354 CURVE SMOOTH",
"220 447 OFFCURVE",
"270 542 OFFCURVE",
"382 542 CURVE SMOOTH",
"492 542 OFFCURVE",
"545 452 OFFCURVE",
"545 356 CURVE SMOOTH",
"545 263 OFFCURVE",
"496 168 OFFCURVE"
);
},
{
closed = 1;
nodes = (
"579 0 LINE",
"761 0 LINE",
"485 300 LINE",
"303 300 LINE"
);
}
);
width = 765;
}
);
unicode = 0051;
userData = {
org.robofab.fontlab.mark = 0;
};
},
{
glyphname = R;
lastChange = "2016-08-01 09:41:41 +0000";
layers = (
{
anchors = (
{
name = bottom;
position = "{316, 0}";
},
{
name = top;
position = "{316, 710}";
}
);
layerId = "DC0D5209-C0CE-4187-A591-293A64199C8F";
paths = (
{
closed = 1;
nodes = (
"119 0 LINE",
"119 279 LINE",
"383 279 LINE",
"563 0 LINE",
"587 0 LINE",
"407 279 LINE",
"514 287 OFFCURVE",
"588 385 OFFCURVE",
"588 495 CURVE SMOOTH",
"588 601 OFFCURVE",
"504 710 OFFCURVE",
"388 710 CURVE SMOOTH",
"99 710 LINE",
"99 0 LINE"
);
},
{
closed = 1;
nodes = (
"119 690 LINE",
"388 690 LINE SMOOTH",
"488 690 OFFCURVE",
"568 596 OFFCURVE",
"568 495 CURVE SMOOTH",
"568 397 OFFCURVE",
"502 299 OFFCURVE",
"395 299 CURVE SMOOTH",
"119 299 LINE"
);
}
);
width = 642;
},
{
anchors = (
{
name = bottom;
position = "{332, 0}";
},
{
name = top;
position = "{318, 710}";
}
);
layerId = "A8272220-FCE5-4C48-BDEF-D37440F7149C";
paths = (
{
closed = 1;
nodes = (
"175 0 LINE",
"175 255 LINE",
"363 255 LINE",
"525 0 LINE",
"627 0 LINE",
"455 272 LINE",
"545 295 OFFCURVE",
"604 384 OFFCURVE",
"604 483 CURVE SMOOTH",
"604 595 OFFCURVE",
"514 710 OFFCURVE",
"389 710 CURVE SMOOTH",
"85 710 LINE",
"85 0 LINE"
);
},
{
closed = 1;
nodes = (
"175 630 LINE",
"384 630 LINE SMOOTH",
"453 630 OFFCURVE",
"513 563 OFFCURVE",
"513 483 CURVE SMOOTH",
"513 405 OFFCURVE",
"464 335 OFFCURVE",
"390 335 CURVE SMOOTH",
"175 335 LINE"
);
}
);
width = 657;
},
{
anchors = (
{
name = bottom;
position = "{354, 0}";
},
{
name = top;
position = "{319, 709}";
}
);
layerId = "CD86D743-087E-48CD-95ED-391136C80322";
paths = (
{
closed = 1;
nodes = (
"256 0 LINE",
"256 218 LINE",
"329 218 LINE",
"454 0 LINE",
"674 0 LINE",
"524 261 LINE",
"588 306 OFFCURVE",
"626 382 OFFCURVE",
"626 464 CURVE SMOOTH",
"626 585 OFFCURVE",
"526 710 OFFCURVE",
"387 710 CURVE SMOOTH",
"61 710 LINE",
"61 0 LINE"
);
},
{
closed = 1;
nodes = (
"256 540 LINE",
"374 540 LINE SMOOTH",
"398 540 OFFCURVE",
"428 513 OFFCURVE",
"428 464 CURVE SMOOTH",
"428 416 OFFCURVE",
"403 388 OFFCURVE",
"379 388 CURVE SMOOTH",
"256 388 LINE"
);
}
);
width = 675;
}
);
unicode = 0052;
userData = {
org.robofab.fontlab.mark = 0;
};
},
{
glyphname = S;
lastChange = "2016-08-01 09:41:41 +0000";
layers = (
{
anchors = (
{
name = bottom;
position = "{308, 0}";
},
{
name = top;
position = "{308, 729}";
}
);
layerId = "DC0D5209-C0CE-4187-A591-293A64199C8F";
paths = (
{
closed = 1;
nodes = (
"522 630 LINE",
"466 691 OFFCURVE",
"401 715 OFFCURVE",
"311 715 CURVE SMOOTH",
"160 715 OFFCURVE",
"63 647 OFFCURVE",
"63 524 CURVE SMOOTH",
"63 406 OFFCURVE",
"151 376 OFFCURVE",
"308 346 CURVE SMOOTH",
"472 314 OFFCURVE",
"545 277 OFFCURVE",
"545 171 CURVE SMOOTH",
"545 65 OFFCURVE",
"457 12 OFFCURVE",
"316 12 CURVE SMOOTH",
"208 12 OFFCURVE",
"126 44 OFFCURVE",
"54 118 CURVE",
"39 105 LINE",
"115 30 OFFCURVE",
"201 -5 OFFCURVE",
"315 -5 CURVE SMOOTH",
"470 -5 OFFCURVE",
"565 59 OFFCURVE",
"565 174 CURVE SMOOTH",
"565 299 OFFCURVE",
"465 333 OFFCURVE",
"307 365 CURVE SMOOTH",
"149 397 OFFCURVE",
"83 424 OFFCURVE",
"83 526 CURVE SMOOTH",
"83 629 OFFCURVE",
"151 696 OFFCURVE",
"313 696 CURVE SMOOTH",
"397 696 OFFCURVE",
"453 678 OFFCURVE",
"509 616 CURVE"
);
}
);
width = 602;
},
{
anchors = (
{
name = bottom;
position = "{316, 0}";
},
{
name = top;
position = "{316, 721}";
}
);
layerId = "A8272220-FCE5-4C48-BDEF-D37440F7149C";
paths = (
{
closed = 1;
nodes = (
"544 634 LINE",
"484 683 OFFCURVE",
"406 715 OFFCURVE",
"311 715 CURVE SMOOTH",
"164 715 OFFCURVE",
"56 641 OFFCURVE",
"56 505 CURVE SMOOTH",
"56 392 OFFCURVE",
"131 353 OFFCURVE",
"275 318 CURVE SMOOTH",
"407 286 OFFCURVE",
"480 262 OFFCURVE",
"480 182 CURVE SMOOTH",
"480 111 OFFCURVE",
"421 74 OFFCURVE",
"320 74 CURVE SMOOTH",
"212 74 OFFCURVE",
"115 124 OFFCURVE",
"72 169 CURVE",
"29 93 LINE",
"109 28 OFFCURVE",
"209 -7 OFFCURVE",
"318 -7 CURVE SMOOTH",
"464 -7 OFFCURVE",
"576 54 OFFCURVE",
"576 191 CURVE SMOOTH",
"576 319 OFFCURVE",
"484 361 OFFCURVE",
"336 394 CURVE SMOOTH",
"208 423 OFFCURVE",
"149 443 OFFCURVE",
"149 519 CURVE SMOOTH",
"149 591 OFFCURVE",
"199 635 OFFCURVE",
"309 635 CURVE SMOOTH",
"394 635 OFFCURVE",
"469 598 OFFCURVE",
"502 561 CURVE"
);
}
);
width = 609;
},
{
anchors = (
{
name = bottom;
position = "{327, 0}";
},
{
name = top;
position = "{327, 710}";
}
);
layerId = "CD86D743-087E-48CD-95ED-391136C80322";
paths = (
{
closed = 1;
nodes = (
"575 639 LINE",
"511 671 OFFCURVE",
"412 716 OFFCURVE",
"309 716 CURVE SMOOTH",
"169 716 OFFCURVE",
"44 633 OFFCURVE",
"44 476 CURVE SMOOTH",
"44 372 OFFCURVE",
"99 319 OFFCURVE",
"224 277 CURVE SMOOTH",
"309 248 OFFCURVE",
"382 239 OFFCURVE",
"382 198 CURVE SMOOTH",
"382 179 OFFCURVE",
"367 167 OFFCURVE",
"325 167 CURVE SMOOTH",
"216 167 OFFCURVE",
"97 245 OFFCURVE",
"97 245 CURVE",
"13 74 LINE",
"98 24 OFFCURVE",
"219 -9 OFFCURVE",
"322 -9 CURVE SMOOTH",
"454 -9 OFFCURVE",
"592 46 OFFCURVE",
"592 217 CURVE SMOOTH",
"592 350 OFFCURVE",
"509 396 OFFCURVE",
"378 437 CURVE SMOOTH",
"296 463 OFFCURVE",
"246 471 OFFCURVE",
"246 508 CURVE SMOOTH",
"246 533 OFFCURVE",
"269 543 OFFCURVE",
"303 543 CURVE SMOOTH",
"388 543 OFFCURVE",
"491 478 OFFCURVE",
"491 478 CURVE"
);
}
);
width = 617;
}
);
unicode = 0053;
userData = {
org.robofab.fontlab.mark = 0;
};
},
{
glyphname = Schwa;
lastChange = "2016-08-09 17:03:00 +0000";
layers = (
{
layerId = "DC0D5209-C0CE-4187-A591-293A64199C8F";
paths = (
{
closed = 1;
nodes = (
"366 -10 CURVE SMOOTH",
"546 -10 OFFCURVE",
"691 149 OFFCURVE",
"691 346 CURVE SMOOTH",
"691 548 OFFCURVE",
"541 715 OFFCURVE",
"359 715 CURVE SMOOTH",
"239 715 OFFCURVE",
"123 643 OFFCURVE",
"86 548 CURVE",
"106 539 LINE",
"144 633 OFFCURVE",
"251 694 OFFCURVE",
"357 694 CURVE SMOOTH",
"521 694 OFFCURVE",
"656 552 OFFCURVE",
"669 362 CURVE",
"33 362 LINE",
"33 359 OFFCURVE",
"33 356 OFFCURVE",
"33 352 CURVE SMOOTH",
"33 151 OFFCURVE",
"177 -10 OFFCURVE"
);
},
{
closed = 1;
nodes = (
"364 12 CURVE SMOOTH",
"197 12 OFFCURVE",
"69 149 OFFCURVE",
"56 340 CURVE",
"669 340 LINE",
"660 152 OFFCURVE",
"530 12 OFFCURVE"
);
}
);
width = 739;
},
{
layerId = "A8272220-FCE5-4C48-BDEF-D37440F7149C";
paths = (
{
closed = 1;
nodes = (
"364 -5 CURVE SMOOTH",
"550 -5 OFFCURVE",
"696 152 OFFCURVE",
"696 353 CURVE SMOOTH",
"696 555 OFFCURVE",
"550 715 OFFCURVE",
"367 715 CURVE SMOOTH",
"245 715 OFFCURVE",
"125 643 OFFCURVE",
"73 538 CURVE",
"158 499 LINE",
"183 576 OFFCURVE",
"267 632 OFFCURVE",
"359 632 CURVE SMOOTH",
"481 632 OFFCURVE",
"583 529 OFFCURVE",
"597 392 CURVE",
"30 392 LINE",
"28 384 OFFCURVE",
"27 366 OFFCURVE",
"27 349 CURVE SMOOTH",
"27 154 OFFCURVE",
"178 -5 OFFCURVE"
);
},
{
closed = 1;
nodes = (
"366 76 CURVE SMOOTH",
"238 76 OFFCURVE",
"132 180 OFFCURVE",
"124 314 CURVE",
"599 314 LINE",
"590 177 OFFCURVE",
"491 76 OFFCURVE"
);
}
);
width = 736;
},
{
layerId = "CD86D743-087E-48CD-95ED-391136C80322";
paths = (
{
closed = 1;
nodes = (
"375 -5 CURVE SMOOTH",
"611 -5 OFFCURVE",
"736 187 OFFCURVE",
"736 366 CURVE SMOOTH",
"736 523 OFFCURVE",
"607 714 OFFCURVE",
"375 714 CURVE SMOOTH",
"214 714 OFFCURVE",
"99 637 OFFCURVE",
"45 521 CURVE",
"248 464 LINE",
"263 514 OFFCURVE",
"321 543 OFFCURVE",
"377 543 CURVE SMOOTH",
"447 543 OFFCURVE",
"514 505 OFFCURVE",
"523 411 CURVE",
"18 411 LINE",
"15 391 OFFCURVE",
"12 363 OFFCURVE",
"12 338 CURVE SMOOTH",
"12 189 OFFCURVE",
"138 -5 OFFCURVE"
);
},
{
closed = 1;
nodes = (
"378 165 CURVE SMOOTH",
"298 165 OFFCURVE",
"240 203 OFFCURVE",
"228 268 CURVE",
"518 268 LINE",
"507 203 OFFCURVE",
"453 165 OFFCURVE"
);
}
);
width = 758;
}
);
unicode = 018F;
},
{
glyphname = T;
lastChange = "2016-08-01 09:41:41 +0000";
layers = (
{
anchors = (
{
name = bottom;
position = "{300, 0}";
},
{
name = top;
position = "{300, 707}";
}
);
layerId = "DC0D5209-C0CE-4187-A591-293A64199C8F";
paths = (
{
closed = 1;
nodes = (
"582 710 LINE",
"18 710 LINE",
"18 690 LINE",
"290 690 LINE",
"290 0 LINE",
"310 0 LINE",
"310 690 LINE",
"582 690 LINE"
);
}
);
width = 600;
},
{
anchors = (
{
name = bottom;
position = "{310, 0}";
},
{
name = top;
position = "{310, 708}";
}
);
layerId = "A8272220-FCE5-4C48-BDEF-D37440F7149C";
paths = (
{
closed = 1;
nodes = (
"597 710 LINE",
"17 710 LINE",
"17 630 LINE",
"262 630 LINE",
"262 0 LINE",
"352 0 LINE",
"352 630 LINE",
"597 630 LINE"
);
}
);
width = 614;
},
{
anchors = (
{
name = bottom;
position = "{320, 0}";
},
{
name = top;
position = "{320, 710}";
}
);
layerId = "CD86D743-087E-48CD-95ED-391136C80322";
paths = (
{
closed = 1;
nodes = (
"614 710 LINE",
"10 710 LINE",
"10 540 LINE",
"215 540 LINE",
"215 0 LINE",
"410 0 LINE",
"410 540 LINE",
"614 540 LINE"
);
}
);
width = 624;
}
);
unicode = 0054;
userData = {
org.robofab.fontlab.mark = 0;
};
},
{
glyphname = Tbar;
lastChange = "2016-08-01 09:41:41 +0000";
layers = (
{
components = (
{
name = T;
transform = "{1, 0, 0, 1, 20, 0}";
}
);
layerId = "DC0D5209-C0CE-4187-A591-293A64199C8F";
paths = (
{
closed = 1;
nodes = (
"572 404 LINE",
"572 424 LINE",
"68 424 LINE",
"68 404 LINE"
);
}
);
width = 640;
},
{
components = (
{
name = T;
transform = "{1, 0, 0, 1, 14, 0}";
}
);
layerId = "A8272220-FCE5-4C48-BDEF-D37440F7149C";
paths = (
{
closed = 1;
nodes = (
"577 350 LINE",
"577 397 LINE",
"65 397 LINE",
"65 350 LINE"
);
}
);
width = 642;
},
{
components = (
{
name = T;
transform = "{1, 0, 0, 1, 11, 0}";
}
);
layerId = "CD86D743-087E-48CD-95ED-391136C80322";
paths = (
{
closed = 1;
nodes = (
"585 268 LINE",
"585 356 LINE",
"61 356 LINE",
"61 268 LINE"
);
}
);
width = 646;
}
);
unicode = 0166;
userData = {
org.robofab.fontlab.mark = 0;
};
},
{
glyphname = U;
lastChange = "2016-08-09 19:00:05 +0000";
layers = (
{
anchors = (
{
name = bottom;
position = "{379, 0}";
},
{
name = ogonek;
position = "{680, 10}";
},
{
name = top;
position = "{379, 707}";
},
{
name = topright;
position = "{725, 672}";
}
);
layerId = "DC0D5209-C0CE-4187-A591-293A64199C8F";
paths = (
{
closed = 1;
nodes = (
"378 15 CURVE SMOOTH",
"168 15 OFFCURVE",
"108 184 OFFCURVE",
"108 355 CURVE SMOOTH",
"108 710 LINE",
"88 710 LINE",
"88 355 LINE SMOOTH",
"88 177 OFFCURVE",
"154 -5 OFFCURVE",
"379 -5 CURVE SMOOTH",
"597 -5 OFFCURVE",
"669 167 OFFCURVE",
"669 355 CURVE SMOOTH",
"669 710 LINE",
"649 710 LINE",
"649 355 LINE SMOOTH",
"649 189 OFFCURVE",
"592 15 OFFCURVE"
);
}
);
width = 756;
},
{
anchors = (
{
name = bottom;
position = "{378, 0}";
},
{
name = ogonek;
position = "{679, 10}";
},
{
name = top;
position = "{378, 708}";
},
{
name = topright;
position = "{702, 646}";
}
);
layerId = "A8272220-FCE5-4C48-BDEF-D37440F7149C";
paths = (
{
closed = 1;
nodes = (
"377 76 CURVE SMOOTH",
"215 76 OFFCURVE",
"165 211 OFFCURVE",
"165 351 CURVE SMOOTH",
"165 710 LINE",
"75 710 LINE",
"75 351 LINE SMOOTH",
"75 169 OFFCURVE",
"152 -5 OFFCURVE",
"378 -5 CURVE SMOOTH",
"596 -5 OFFCURVE",
"680 159 OFFCURVE",
"680 351 CURVE SMOOTH",
"680 710 LINE",
"590 710 LINE",
"590 351 LINE SMOOTH",
"590 215 OFFCURVE",
"542 76 OFFCURVE"
);
}
);
width = 755;
},
{
anchors = (
{
name = bottom;
position = "{371, 0}";
},
{
name = ogonek;
position = "{669, 10}";
},
{
name = top;
position = "{371, 710}";
},
{
name = topright;
position = "{670, 638}";
}
);
layerId = "CD86D743-087E-48CD-95ED-391136C80322";
paths = (
{
closed = 1;
nodes = (
"371 167 CURVE SMOOTH",
"281 167 OFFCURVE",
"246 251 OFFCURVE",
"246 345 CURVE SMOOTH",
"246 710 LINE",
"51 710 LINE",
"51 345 LINE SMOOTH",
"51 157 OFFCURVE",
"144 -6 OFFCURVE",
"371 -6 CURVE SMOOTH",
"591 -6 OFFCURVE",
"692 147 OFFCURVE",
"692 345 CURVE SMOOTH",
"692 710 LINE",
"497 710 LINE",
"497 345 LINE SMOOTH",
"497 253 OFFCURVE",
"463 167 OFFCURVE"
);
}
);
width = 743;
}
);
unicode = 0055;
userData = {
org.robofab.fontlab.mark = 0;
};
},
{
glyphname = V;
lastChange = "2016-08-01 09:41:41 +0000";
layers = (
{
layerId = "DC0D5209-C0CE-4187-A591-293A64199C8F";
paths = (
{
closed = 1;
nodes = (
"19 710 LINE",
"328 0 LINE",
"350 0 LINE",
"659 710 LINE",
"637 710 LINE",
"339 25 LINE",
"40 710 LINE"
);
}
);
width = 678;
},
{
layerId = "A8272220-FCE5-4C48-BDEF-D37440F7149C";
paths = (
{
closed = 1;
nodes = (
"10 710 LINE",
"301 0 LINE",
"379 0 LINE",
"669 710 LINE",
"574 710 LINE",
"340 113 LINE",
"105 710 LINE"
);
}
);
width = 680;
},
{
layerId = "CD86D743-087E-48CD-95ED-391136C80322";
paths = (
{
closed = 1;
nodes = (
"-8 710 LINE",
"256 0 LINE",
"418 0 LINE",
"679 710 LINE",
"474 710 LINE",
"337 245 LINE",
"198 710 LINE"
);
}
);
width = 672;
}
);
unicode = 0056;
userData = {
org.robofab.fontlab.mark = 0;
};
},
{
glyphname = W;
lastChange = "2016-08-01 09:41:41 +0000";
layers = (
{
anchors = (
{
name = top;
position = "{518, 707}";
}
);
layerId = "DC0D5209-C0CE-4187-A591-293A64199C8F";
paths = (
{
closed = 1;
nodes = (
"508 414 LINE",
"339 25 LINE",
"41 710 LINE",
"19 710 LINE",
"328 0 LINE",
"350 0 LINE",
"519 389 LINE",
"688 0 LINE",
"710 0 LINE",
"1019 710 LINE",
"997 710 LINE",
"699 25 LINE",
"529 414 LINE",
"656 704 LINE",
"634 704 LINE",
"518 438 LINE",
"403 704 LINE",
"381 704 LINE"
);
}
);
width = 1038;
},
{
anchors = (
{
name = top;
position = "{524, 708}";
}
);
layerId = "A8272220-FCE5-4C48-BDEF-D37440F7149C";
paths = (
{
closed = 1;
nodes = (
"468 397 LINE",
"347 104 LINE",
"106 710 LINE",
"9 710 LINE",
"305 0 LINE",
"383 0 LINE",
"525 335 LINE",
"666 0 LINE",
"744 0 LINE",
"1041 710 LINE",
"943 710 LINE",
"703 104 LINE",
"581 397 LINE",
"704 706 LINE",
"619 706 LINE",
"524 459 LINE",
"430 706 LINE",
"345 706 LINE"
);
}
);
width = 1049;
},
{
anchors = (
{
name = top;
position = "{528, 710}";
}
);
layerId = "CD86D743-087E-48CD-95ED-391136C80322";
paths = (
{
closed = 1;
nodes = (
"402 371 LINE",
"353 223 LINE",
"199 710 LINE",
"-12 710 LINE",
"266 0 LINE",
"428 0 LINE",
"528 254 LINE",
"629 0 LINE",
"791 0 LINE",
"1069 710 LINE",
"857 710 LINE",
"704 223 LINE",
"653 371 LINE",
"770 710 LINE",
"591 710 LINE",
"528 491 LINE",
"466 710 LINE",
"287 710 LINE"
);
}
);
width = 1057;
}
);
unicode = 0057;
userData = {
org.robofab.fontlab.mark = 0;
};
},
{
glyphname = X;
lastChange = "2016-08-05 15:22:58 +0000";
layers = (
{
layerId = "DC0D5209-C0CE-4187-A591-293A64199C8F";
paths = (
{
closed = 1;
nodes = (
"11 710 LINE",
"298 350 LINE",
"19 0 LINE",
"45 0 LINE",
"311 334 LINE",
"577 0 LINE",
"602 0 LINE",
"323 350 LINE",
"610 710 LINE",
"585 710 LINE",
"311 366 LINE",
"37 710 LINE"
);
}
);
width = 621;
},
{
layerId = "A8272220-FCE5-4C48-BDEF-D37440F7149C";
paths = (
{
closed = 1;
nodes = (
"3 710 LINE",
"270 350 LINE",
"11 0 LINE",
"111 0 LINE",
"319 286 LINE",
"527 0 LINE",
"626 0 LINE",
"367 350 LINE",
"634 710 LINE",
"535 710 LINE",
"319 414 LINE",
"103 710 LINE"
);
}
);
width = 637;
},
{
layerId = "CD86D743-087E-48CD-95ED-391136C80322";
paths = (
{
closed = 1;
nodes = (
"-11 710 LINE",
"226 350 LINE",
"-3 0 LINE",
"208 0 LINE",
"329 214 LINE",
"450 0 LINE",
"660 0 LINE",
"431 350 LINE",
"668 710 LINE",
"458 710 LINE",
"329 486 LINE",
"200 710 LINE"
);
}
);
width = 657;
}
);
unicode = 0058;
userData = {
org.robofab.fontlab.mark = 0;
};
},
{
glyphname = Y;
lastChange = "2016-08-09 19:12:40 +0000";
layers = (
{
anchors = (
{
name = bottom;
position = "{321, 0}";
},
{
name = top;
position = "{320, 707}";
},
{
name = topleft;
position = "{20, 710}";
}
);
layerId = "DC0D5209-C0CE-4187-A591-293A64199C8F";
paths = (
{
closed = 1;
nodes = (
"23 710 LINE",
"310 277 LINE",
"310 0 LINE",
"330 0 LINE",
"330 275 LINE",
"618 710 LINE",
"595 710 LINE",
"320 298 LINE",
"46 710 LINE"
);
}
);
width = 641;
},
{
anchors = (
{
name = bottom;
position = "{328, 0}";
},
{
name = top;
position = "{327, 708}";
},
{
name = topleft;
position = "{20, 710}";
}
);
layerId = "A8272220-FCE5-4C48-BDEF-D37440F7149C";
paths = (
{
closed = 1;
nodes = (
"13 710 LINE",
"282 261 LINE",
"282 0 LINE",
"372 0 LINE",
"372 259 LINE",
"642 710 LINE",
"544 710 LINE",
"327 340 LINE",
"112 710 LINE"
);
}
);
width = 655;
},
{
anchors = (
{
name = bottom;
position = "{333, 0}";
},
{
name = top;
position = "{332, 710}";
},
{
name = topleft;
position = "{20, 710}";
}
);
layerId = "CD86D743-087E-48CD-95ED-391136C80322";
paths = (
{
closed = 1;
nodes = (
"-6 710 LINE",
"235 237 LINE",
"235 0 LINE",
"429 0 LINE",
"429 235 LINE",
"674 710 LINE",
"462 710 LINE",
"332 403 LINE",
"205 710 LINE"
);
}
);
width = 666;
}
);
unicode = 0059;
userData = {
org.robofab.fontlab.mark = 0;
};
},
{
glyphname = Z;
lastChange = "2016-08-01 09:41:41 +0000";
layers = (
{
anchors = (
{
name = top;
position = "{330, 707}";
}
);
layerId = "DC0D5209-C0CE-4187-A591-293A64199C8F";
paths = (
{
closed = 1;
nodes = (
"28 0 LINE",
"591 0 LINE",
"591 20 LINE",
"53 20 LINE",
"595 690 LINE",
"595 710 LINE",
"33 710 LINE",
"33 690 LINE",
"570 690 LINE",
"28 20 LINE"
);
}
);
width = 624;
},
{
anchors = (
{
name = top;
position = "{331, 708}";
}
);
layerId = "A8272220-FCE5-4C48-BDEF-D37440F7149C";
paths = (
{
closed = 1;
nodes = (
"32 0 LINE",
"595 0 LINE",
"595 80 LINE",
"145 80 LINE",
"595 640 LINE",
"595 710 LINE",
"41 710 LINE",
"41 630 LINE",
"490 630 LINE",
"32 70 LINE"
);
}
);
width = 631;
},
{
anchors = (
{
name = top;
position = "{320, 710}";
}
);
layerId = "CD86D743-087E-48CD-95ED-391136C80322";
paths = (
{
closed = 1;
nodes = (
"27 0 LINE",
"590 0 LINE",
"590 170 LINE",
"272 170 LINE",
"584 565 LINE",
"584 710 LINE",
"42 710 LINE",
"42 540 LINE",
"359 540 LINE",
"27 145 LINE"
);
}
);
width = 622;
}
);
unicode = 005A;
userData = {
org.robofab.fontlab.mark = 0;
};
},
{
glyphname = G.alt;
lastChange = "2016-08-09 17:04:21 +0000";
layers = (
{
layerId = "DC0D5209-C0CE-4187-A591-293A64199C8F";
paths = (
{
closed = 1;
nodes = (
"377 -5 CURVE SMOOTH",
"552 -5 OFFCURVE",
"684 144 OFFCURVE",
"706 308 CURVE SMOOTH",
"707 317 OFFCURVE",
"708 323 OFFCURVE",
"708 329 CURVE",
"440 329 LINE",
"440 309 LINE",
"686 309 LINE",
"666 158 OFFCURVE",
"547 15 OFFCURVE",
"379 15 CURVE SMOOTH",
"199 15 OFFCURVE",
"68 179 OFFCURVE",
"68 353 CURVE SMOOTH",
"68 523 OFFCURVE",
"194 695 OFFCURVE",
"378 695 CURVE SMOOTH",
"488 695 OFFCURVE",
"580 633 OFFCURVE",
"635 544 CURVE",
"649 558 LINE",
"592 649 OFFCURVE",
"496 715 OFFCURVE",
"379 715 CURVE SMOOTH",
"192 715 OFFCURVE",
"48 544 OFFCURVE",
"48 356 CURVE SMOOTH",
"48 172 OFFCURVE",
"186 -5 OFFCURVE"
);
}
);
width = 736;
},
{
layerId = "A8272220-FCE5-4C48-BDEF-D37440F7149C";
paths = (
{
closed = 1;
nodes = (
"381 -5 CURVE SMOOTH",
"562 -5 OFFCURVE",
"690 141 OFFCURVE",
"703 308 CURVE SMOOTH",
"703 314 OFFCURVE",
"704 353 OFFCURVE",
"704 357 CURVE",
"414 357 LINE",
"414 277 LINE",
"606 277 LINE",
"587 174 OFFCURVE",
"497 76 OFFCURVE",
"374 76 CURVE SMOOTH",
"224 76 OFFCURVE",
"131 217 OFFCURVE",
"131 354 CURVE SMOOTH",
"131 493 OFFCURVE",
"224 634 OFFCURVE",
"374 634 CURVE SMOOTH",
"475 634 OFFCURVE",
"544 565 OFFCURVE",
"579 506 CURVE",
"650 563 LINE",
"594 655 OFFCURVE",
"498 715 OFFCURVE",
"379 715 CURVE SMOOTH",
"178 715 OFFCURVE",
"40 543 OFFCURVE",
"40 358 CURVE SMOOTH",
"40 172 OFFCURVE",
"181 -5 OFFCURVE"
);
}
);
width = 730;
},
{
layerId = "CD86D743-087E-48CD-95ED-391136C80322";
paths = (
{
closed = 1;
nodes = (
"381 -5 CURVE SMOOTH",
"571 -5 OFFCURVE",
"693 137 OFFCURVE",
"693 309 CURVE SMOOTH",
"693 339 OFFCURVE",
"693 368 OFFCURVE",
"693 398 CURVE",
"371 398 LINE",
"371 228 LINE",
"482 228 LINE",
"464 197 OFFCURVE",
"416 168 OFFCURVE",
"361 168 CURVE SMOOTH",
"256 168 OFFCURVE",
"220 273 OFFCURVE",
"220 356 CURVE SMOOTH",
"220 448 OFFCURVE",
"265 542 OFFCURVE",
"362 542 CURVE SMOOTH",
"450 542 OFFCURVE",
"485 463 OFFCURVE",
"491 449 CURVE",
"646 570 LINE",
"593 664 OFFCURVE",
"496 715 OFFCURVE",
"374 715 CURVE SMOOTH",
"153 715 OFFCURVE",
"22 541 OFFCURVE",
"22 361 CURVE SMOOTH",
"22 171 OFFCURVE",
"169 -5 OFFCURVE"
);
}
);
width = 711;
}
);
userData = {
org.robofab.fontlab.mark = 0;
};
},
{
glyphname = W.alt;
lastChange = "2016-08-01 09:41:41 +0000";
layers = (
{
layerId = "DC0D5209-C0CE-4187-A591-293A64199C8F";
paths = (
{
closed = 1;
nodes = (
"976 710 LINE",
"758 25 LINE",
"519 710 LINE",
"497 710 LINE",
"269 25 LINE",
"50 710 LINE",
"29 710 LINE",
"258 0 LINE",
"280 0 LINE",
"509 678 LINE",
"747 0 LINE",
"769 0 LINE",
"998 710 LINE"
);
}
);
width = 1027;
},
{
layerId = "A8272220-FCE5-4C48-BDEF-D37440F7149C";
paths = (
{
closed = 1;
nodes = (
"957 710 LINE",
"779 133 LINE",
"584 710 LINE",
"486 710 LINE",
"298 133 LINE",
"119 710 LINE",
"18 710 LINE",
"243 0 LINE",
"337 0 LINE",
"536 563 LINE",
"740 0 LINE",
"834 0 LINE",
"1059 710 LINE"
);
}
);
width = 1077;
},
{
layerId = "CD86D743-087E-48CD-95ED-391136C80322";
paths = (
{
closed = 1;
nodes = (
"927 711 LINE",
"809 296 LINE",
"680 710 LINE",
"468 710 LINE",
"340 295 LINE",
"221 710 LINE",
"0 710 LINE",
"219 0 LINE",
"421 0 LINE",
"574 391 LINE",
"728 1 LINE",
"930 1 LINE",
"1149 711 LINE"
);
}
);
width = 1149;
}
);
userData = {
org.robofab.fontlab.mark = 0;
};
},
{
glyphname = a;
lastChange = "2016-08-09 18:30:10 +0000";
layers = (
{
anchors = (
{
name = bottom;
position = "{450, 11}";
},
{
name = bottomviet;
position = "{246, 7}";
},
{
name = ogonek;
position = "{472, 10}";
},
{
name = top;
position = "{257, 519}";
}
);
layerId = "DC0D5209-C0CE-4187-A591-293A64199C8F";
paths = (
{
closed = 1;
nodes = (
"207 -10 CURVE SMOOTH",
"297 -10 OFFCURVE",
"379 26 OFFCURVE",
"427 88 CURVE",
"427 40 LINE SMOOTH",
"427 23 OFFCURVE",
"436 7 OFFCURVE",
"449 2 CURVE SMOOTH",
"452 0 OFFCURVE",
"455 0 OFFCURVE",
"463 0 CURVE",
"463 20 LINE",
"453 20 OFFCURVE",
"447 27 OFFCURVE",
"447 40 CURVE SMOOTH",
"447 327 LINE SMOOTH",
"447 449 OFFCURVE",
"373 527 OFFCURVE",
"257 527 CURVE SMOOTH",
"203 527 OFFCURVE",
"143 504 OFFCURVE",
"77 459 CURVE",
"89 443 LINE",
"147 484 OFFCURVE",
"207 507 OFFCURVE",
"257 507 CURVE SMOOTH",
"359 507 OFFCURVE",
"427 435 OFFCURVE",
"427 327 CURVE SMOOTH",
"427 268 LINE",
"378 286 OFFCURVE",
"312 297 OFFCURVE",
"253 297 CURVE SMOOTH",
"127 297 OFFCURVE",
"39 236 OFFCURVE",
"39 149 CURVE SMOOTH",
"39 60 OFFCURVE",
"113 -10 OFFCURVE"
);
},
{
closed = 1;
nodes = (
"207 10 CURVE SMOOTH",
"124 10 OFFCURVE",
"59 71 OFFCURVE",
"59 149 CURVE SMOOTH",
"59 226 OFFCURVE",
"137 277 OFFCURVE",
"253 277 CURVE SMOOTH",
"315 277 OFFCURVE",
"373 267 OFFCURVE",
"427 246 CURVE",
"427 143 LINE SMOOTH",
"427 131 OFFCURVE",
"422 116 OFFCURVE",
"412 102 CURVE SMOOTH",
"376 46 OFFCURVE",
"296 10 OFFCURVE"
);
}
);
width = 524;
},
{
anchors = (
{
name = bottom;
position = "{477, 7}";
},
{
name = bottomviet;
position = "{258, 7}";
},
{
name = ogonek;
position = "{499, 10}";
},
{
name = top;
position = "{266, 522}";
}
);
layerId = "A8272220-FCE5-4C48-BDEF-D37440F7149C";
paths = (
{
closed = 1;
nodes = (
"205 -10 CURVE SMOOTH",
"286 -10 OFFCURVE",
"361 24 OFFCURVE",
"408 86 CURVE",
"410 49 LINE SMOOTH",
"414 20 OFFCURVE",
"435 -4 OFFCURVE",
"470 -4 CURVE SMOOTH",
"483 -4 OFFCURVE",
"494 -3 OFFCURVE",
"512 0 CURVE",
"512 76 LINE",
"492 77 OFFCURVE",
"484 86 OFFCURVE",
"484 108 CURVE SMOOTH",
"484 321 LINE SMOOTH",
"484 453 OFFCURVE",
"402 531 OFFCURVE",
"266 531 CURVE SMOOTH",
"197 531 OFFCURVE",
"130 508 OFFCURVE",
"63 463 CURVE",
"92 406 LINE",
"149 446 OFFCURVE",
"204 467 OFFCURVE",
"258 467 CURVE SMOOTH",
"345 467 OFFCURVE",
"396 415 OFFCURVE",
"396 330 CURVE SMOOTH",
"396 288 LINE",
"356 304 OFFCURVE",
"301 314 OFFCURVE",
"250 314 CURVE SMOOTH",
"121 314 OFFCURVE",
"30 248 OFFCURVE",
"30 153 CURVE SMOOTH",
"30 61 OFFCURVE",
"106 -10 OFFCURVE"
);
},
{
closed = 1;
nodes = (
"228 56 CURVE SMOOTH",
"163 56 OFFCURVE",
"114 101 OFFCURVE",
"114 160 CURVE SMOOTH",
"114 220 OFFCURVE",
"175 261 OFFCURVE",
"263 261 CURVE SMOOTH",
"308 261 OFFCURVE",
"355 252 OFFCURVE",
"396 236 CURVE",
"396 159 LINE SMOOTH",
"396 147 OFFCURVE",
"389 132 OFFCURVE",
"377 120 CURVE SMOOTH",
"349 81 OFFCURVE",
"290 56 OFFCURVE"
);
}
);
width = 554;
},
{
anchors = (
{
name = bottom;
position = "{518, 0}";
},
{
name = bottomviet;
position = "{300, 8}";
},
{
name = ogonek;
position = "{539, 10}";
},
{
name = top;
position = "{280, 526}";
}
);
layerId = "CD86D743-087E-48CD-95ED-391136C80322";
paths = (
{
closed = 1;
nodes = (
"203 -10 CURVE SMOOTH",
"272 -10 OFFCURVE",
"335 22 OFFCURVE",
"382 82 CURVE",
"386 63 LINE SMOOTH",
"396 15 OFFCURVE",
"430 -10 OFFCURVE",
"498 -10 CURVE SMOOTH",
"519 -10 OFFCURVE",
"547 -7 OFFCURVE",
"578 0 CURVE",
"578 160 LINE",
"551 162 OFFCURVE",
"542 174 OFFCURVE",
"542 210 CURVE SMOOTH",
"542 312 LINE SMOOTH",
"542 460 OFFCURVE",
"447 536 OFFCURVE",
"280 536 CURVE SMOOTH",
"190 536 OFFCURVE",
"113 514 OFFCURVE",
"43 469 CURVE",
"98 351 LINE",
"154 388 OFFCURVE",
"202 408 OFFCURVE",
"261 408 CURVE SMOOTH",
"325 408 OFFCURVE",
"352 384 OFFCURVE",
"352 335 CURVE SMOOTH",
"352 319 LINE",
"325 332 OFFCURVE",
"287 339 OFFCURVE",
"246 339 CURVE SMOOTH",
"113 339 OFFCURVE",
"19 265 OFFCURVE",
"19 159 CURVE SMOOTH",
"19 62 OFFCURVE",
"98 -10 OFFCURVE"
);
},
{
closed = 1;
nodes = (
"260 126 CURVE SMOOTH",
"224 126 OFFCURVE",
"198 147 OFFCURVE",
"198 176 CURVE SMOOTH",
"198 210 OFFCURVE",
"233 236 OFFCURVE",
"279 236 CURVE SMOOTH",
"300 236 OFFCURVE",
"330 230 OFFCURVE",
"352 222 CURVE",
"352 183 LINE SMOOTH",
"352 170 OFFCURVE",
"342 156 OFFCURVE",
"327 146 CURVE SMOOTH",
"309 134 OFFCURVE",
"283 126 OFFCURVE"
);
}
);
width = 599;
}
);
unicode = 0061;
userData = {
org.robofab.fontlab.mark = 0;
};
},
{
glyphname = ae;
lastChange = "2016-08-09 17:05:10 +0000";
layers = (
{
anchors = (
{
name = top;
position = "{436, 519}";
}
);
layerId = "DC0D5209-C0CE-4187-A591-293A64199C8F";
paths = (
{
closed = 1;
nodes = (
"207 -10 CURVE SMOOTH",
"292 -10 OFFCURVE",
"399 25 OFFCURVE",
"441 111 CURVE",
"486 38 OFFCURVE",
"562 -10 OFFCURVE",
"648 -10 CURVE SMOOTH",
"738 -10 OFFCURVE",
"826 43 OFFCURVE",
"854 114 CURVE",
"835 119 LINE",
"806 55 OFFCURVE",
"729 10 OFFCURVE",
"649 10 CURVE SMOOTH",
"528 10 OFFCURVE",
"428 114 OFFCURVE",
"418 248 CURVE",
"893 248 LINE",
"893 252 OFFCURVE",
"893 255 OFFCURVE",
"893 259 CURVE SMOOTH",
"892 408 OFFCURVE",
"781 527 OFFCURVE",
"643 527 CURVE SMOOTH",
"555 527 OFFCURVE",
"478 477 OFFCURVE",
"435 403 CURVE",
"410 481 OFFCURVE",
"346 527 OFFCURVE",
"257 527 CURVE SMOOTH",
"203 527 OFFCURVE",
"143 504 OFFCURVE",
"77 459 CURVE",
"89 443 LINE",
"147 484 OFFCURVE",
"207 507 OFFCURVE",
"257 507 CURVE SMOOTH",
"342 507 OFFCURVE",
"404 456 OFFCURVE",
"421 376 CURVE",
"408 345 OFFCURVE",
"400 312 OFFCURVE",
"398 277 CURVE",
"354 289 OFFCURVE",
"301 297 OFFCURVE",
"253 297 CURVE SMOOTH",
"127 297 OFFCURVE",
"39 236 OFFCURVE",
"39 149 CURVE SMOOTH",
"39 60 OFFCURVE",
"113 -10 OFFCURVE"
);
},
{
closed = 1;
nodes = (
"207 10 CURVE SMOOTH",
"124 10 OFFCURVE",
"59 71 OFFCURVE",
"59 149 CURVE SMOOTH",
"59 226 OFFCURVE",
"137 277 OFFCURVE",
"253 277 CURVE SMOOTH",
"304 277 OFFCURVE",
"352 270 OFFCURVE",
"398 256 CURVE",
"399 213 OFFCURVE",
"409 173 OFFCURVE",
"427 137 CURVE",
"425 126 OFFCURVE",
"420 114 OFFCURVE",
"412 102 CURVE SMOOTH",
"376 46 OFFCURVE",
"296 10 OFFCURVE"
);
},
{
closed = 1;
nodes = (
"418 268 LINE",
"425 405 OFFCURVE",
"521 507 OFFCURVE",
"644 507 CURVE SMOOTH",
"767 507 OFFCURVE",
"863 407 OFFCURVE",
"872 268 CURVE"
);
}
);
width = 928;
},
{
anchors = (
{
name = top;
position = "{445, 522}";
}
);
layerId = "A8272220-FCE5-4C48-BDEF-D37440F7149C";
paths = (
{
closed = 1;
nodes = (
"204 -10 CURVE SMOOTH",
"282 -10 OFFCURVE",
"381 23 OFFCURVE",
"426 103 CURVE",
"472 35 OFFCURVE",
"550 -10 OFFCURVE",
"644 -10 CURVE SMOOTH",
"749 -10 OFFCURVE",
"838 45 OFFCURVE",
"872 122 CURVE",
"796 143 LINE",
"774 91 OFFCURVE",
"711 56 OFFCURVE",
"647 56 CURVE SMOOTH",
"550 56 OFFCURVE",
"469 128 OFFCURVE",
"461 231 CURVE",
"904 231 LINE",
"905 237 OFFCURVE",
"906 253 OFFCURVE",
"906 261 CURVE SMOOTH",
"905 408 OFFCURVE",
"799 531 OFFCURVE",
"641 531 CURVE SMOOTH",
"559 531 OFFCURVE",
"490 493 OFFCURVE",
"446 436 CURVE",
"413 496 OFFCURVE",
"350 531 OFFCURVE",
"265 531 CURVE SMOOTH",
"197 531 OFFCURVE",
"130 508 OFFCURVE",
"62 463 CURVE",
"91 406 LINE",
"149 446 OFFCURVE",
"204 467 OFFCURVE",
"257 467 CURVE SMOOTH",
"334 467 OFFCURVE",
"382 427 OFFCURVE",
"392 360 CURVE",
"384 341 OFFCURVE",
"380 315 OFFCURVE",
"378 294 CURVE",
"341 306 OFFCURVE",
"294 314 OFFCURVE",
"249 314 CURVE SMOOTH",
"120 314 OFFCURVE",
"30 248 OFFCURVE",
"30 153 CURVE SMOOTH",
"30 61 OFFCURVE",
"106 -10 OFFCURVE"
);
},
{
closed = 1;
nodes = (
"227 56 CURVE SMOOTH",
"163 56 OFFCURVE",
"113 101 OFFCURVE",
"113 160 CURVE SMOOTH",
"113 220 OFFCURVE",
"174 261 OFFCURVE",
"262 261 CURVE SMOOTH",
"301 261 OFFCURVE",
"342 254 OFFCURVE",
"378 242 CURVE",
"379 217 OFFCURVE",
"385 177 OFFCURVE",
"396 155 CURVE",
"395 144 OFFCURVE",
"388 131 OFFCURVE",
"377 120 CURVE SMOOTH",
"348 81 OFFCURVE",
"290 56 OFFCURVE"
);
},
{
closed = 1;
nodes = (
"460 288 LINE",
"466 391 OFFCURVE",
"541 465 OFFCURVE",
"640 465 CURVE SMOOTH",
"739 465 OFFCURVE",
"814 392 OFFCURVE",
"822 288 CURVE"
);
}
);
width = 933;
},
{
anchors = (
{
name = top;
position = "{465, 526}";
}
);
layerId = "CD86D743-087E-48CD-95ED-391136C80322";
paths = (
{
closed = 1;
nodes = (
"203 -10 CURVE SMOOTH",
"270 -10 OFFCURVE",
"356 20 OFFCURVE",
"407 92 CURVE",
"455 31 OFFCURVE",
"534 -10 OFFCURVE",
"640 -10 CURVE SMOOTH",
"768 -10 OFFCURVE",
"859 49 OFFCURVE",
"902 133 CURVE",
"741 179 LINE",
"729 146 OFFCURVE",
"687 126 OFFCURVE",
"646 126 CURVE SMOOTH",
"602 126 OFFCURVE",
"558 149 OFFCURVE",
"554 205 CURVE",
"923 205 LINE",
"926 221 OFFCURVE",
"928 243 OFFCURVE",
"928 263 CURVE SMOOTH",
"928 408 OFFCURVE",
"828 536 OFFCURVE",
"640 536 CURVE SMOOTH",
"568 536 OFFCURVE",
"510 517 OFFCURVE",
"465 486 CURVE",
"420 519 OFFCURVE",
"358 536 OFFCURVE",
"280 536 CURVE SMOOTH",
"190 536 OFFCURVE",
"113 514 OFFCURVE",
"43 469 CURVE",
"98 351 LINE",
"154 388 OFFCURVE",
"202 408 OFFCURVE",
"261 408 CURVE SMOOTH",
"325 408 OFFCURVE",
"351 384 OFFCURVE",
"352 335 CURVE",
"352 330 OFFCURVE",
"352 324 OFFCURVE",
"352 319 CURVE",
"325 332 OFFCURVE",
"287 339 OFFCURVE",
"246 339 CURVE SMOOTH",
"113 339 OFFCURVE",
"19 265 OFFCURVE",
"19 159 CURVE SMOOTH",
"19 62 OFFCURVE",
"98 -10 OFFCURVE"
);
},
{
closed = 1;
nodes = (
"260 126 CURVE SMOOTH",
"224 126 OFFCURVE",
"198 147 OFFCURVE",
"198 176 CURVE SMOOTH",
"198 210 OFFCURVE",
"233 236 OFFCURVE",
"279 236 CURVE SMOOTH",
"300 236 OFFCURVE",
"330 230 OFFCURVE",
"352 222 CURVE",
"352 209 OFFCURVE",
"352 196 OFFCURVE",
"352 183 CURVE SMOOTH",
"352 170 OFFCURVE",
"342 156 OFFCURVE",
"327 146 CURVE SMOOTH",
"309 134 OFFCURVE",
"283 126 OFFCURVE"
);
},
{
closed = 1;
nodes = (
"550 319 LINE",
"556 370 OFFCURVE",
"589 401 OFFCURVE",
"637 401 CURVE SMOOTH",
"685 401 OFFCURVE",
"718 370 OFFCURVE",
"724 319 CURVE"
);
}
);
width = 942;
}
);
unicode = 00E6;
userData = {
org.robofab.fontlab.mark = 0;
};
},
{
glyphname = b;
lastChange = "2016-08-01 09:41:41 +0000";
layers = (
{
layerId = "DC0D5209-C0CE-4187-A591-293A64199C8F";
paths = (
{
closed = 1;
nodes = (
"307 -10 CURVE SMOOTH",
"448 -10 OFFCURVE",
"557 117 OFFCURVE",
"557 258 CURVE SMOOTH",
"557 386 OFFCURVE",
"468 527 OFFCURVE",
"316 527 CURVE SMOOTH",
"225 527 OFFCURVE",
"157 473 OFFCURVE",
"104 398 CURVE",
"104 730 LINE",
"84 730 LINE",
"84 0 LINE",
"104 0 LINE",
"104 108 LINE",
"145 42 OFFCURVE",
"225 -10 OFFCURVE"
);
},
{
closed = 1;
nodes = (
"307 10 CURVE SMOOTH",
"226 10 OFFCURVE",
"109 82 OFFCURVE",
"104 167 CURVE",
"104 356 LINE",
"143 435 OFFCURVE",
"217 507 OFFCURVE",
"316 507 CURVE SMOOTH",
"447 507 OFFCURVE",
"537 386 OFFCURVE",
"537 258 CURVE SMOOTH",
"537 135 OFFCURVE",
"441 10 OFFCURVE"
);
}
);
width = 603;
},
{
layerId = "A8272220-FCE5-4C48-BDEF-D37440F7149C";
paths = (
{
closed = 1;
nodes = (
"339 -10 CURVE SMOOTH",
"479 -10 OFFCURVE",
"586 112 OFFCURVE",
"586 259 CURVE SMOOTH",
"586 399 OFFCURVE",
"495 531 OFFCURVE",
"352 531 CURVE SMOOTH",
"267 531 OFFCURVE",
"203 486 OFFCURVE",
"159 418 CURVE",
"159 730 LINE",
"71 730 LINE",
"71 0 LINE",
"149 0 LINE",
"149 98 LINE",
"187 34 OFFCURVE",
"258 -10 OFFCURVE"
);
},
{
closed = 1;
nodes = (
"317 66 CURVE SMOOTH",
"254 66 OFFCURVE",
"172 116 OFFCURVE",
"159 182 CURVE",
"159 333 LINE",
"190 399 OFFCURVE",
"250 455 OFFCURVE",
"325 455 CURVE SMOOTH",
"426 455 OFFCURVE",
"496 361 OFFCURVE",
"496 259 CURVE SMOOTH",
"496 159 OFFCURVE",
"422 66 OFFCURVE"
);
}
);
width = 623;
},
{
layerId = "CD86D743-087E-48CD-95ED-391136C80322";
paths = (
{
closed = 1;
nodes = (
"383 -10 CURVE SMOOTH",
"523 -10 OFFCURVE",
"627 105 OFFCURVE",
"627 261 CURVE SMOOTH",
"627 419 OFFCURVE",
"531 536 OFFCURVE",
"402 536 CURVE SMOOTH",
"326 536 OFFCURVE",
"268 505 OFFCURVE",
"238 448 CURVE",
"238 730 LINE",
"48 730 LINE",
"48 0 LINE",
"213 0 LINE",
"213 82 LINE",
"246 22 OFFCURVE",
"304 -10 OFFCURVE"
);
},
{
closed = 1;
nodes = (
"328 150 CURVE SMOOTH",
"292 150 OFFCURVE",
"263 168 OFFCURVE",
"238 204 CURVE",
"238 298 LINE",
"256 344 OFFCURVE",
"296 376 OFFCURVE",
"336 376 CURVE SMOOTH",
"391 376 OFFCURVE",
"432 324 OFFCURVE",
"432 260 CURVE SMOOTH",
"432 194 OFFCURVE",
"390 150 OFFCURVE"
);
}
);
width = 647;
}
);
unicode = 0062;
userData = {
org.robofab.fontlab.mark = 0;
};
},
{
glyphname = c;
lastChange = "2016-08-01 09:41:41 +0000";
layers = (
{
anchors = (
{
name = bottom;
position = "{297, 0}";
},
{
name = top;
position = "{293, 519}";
}
);
layerId = "DC0D5209-C0CE-4187-A591-293A64199C8F";
paths = (
{
closed = 1;
nodes = (
"46 262 CURVE SMOOTH",
"46 113 OFFCURVE",
"160 -10 OFFCURVE",
"297 -10 CURVE SMOOTH",
"387 -10 OFFCURVE",
"475 43 OFFCURVE",
"498 113 CURVE",
"478 119 LINE",
"462 62 OFFCURVE",
"375 10 OFFCURVE",
"294 10 CURVE SMOOTH",
"170 10 OFFCURVE",
"66 125 OFFCURVE",
"66 262 CURVE SMOOTH",
"66 399 OFFCURVE",
"166 507 OFFCURVE",
"293 507 CURVE SMOOTH",
"369 507 OFFCURVE",
"437 468 OFFCURVE",
"471 404 CURVE",
"491 411 LINE",
"456 484 OFFCURVE",
"383 527 OFFCURVE",
"296 527 CURVE SMOOTH",
"155 527 OFFCURVE",
"46 411 OFFCURVE"
);
}
);
width = 538;
},
{
anchors = (
{
name = bottom;
position = "{302, 0}";
},
{
name = top;
position = "{300, 522}";
}
);
layerId = "A8272220-FCE5-4C48-BDEF-D37440F7149C";
paths = (
{
closed = 1;
nodes = (
"36 262 CURVE SMOOTH",
"36 115 OFFCURVE",
"145 -10 OFFCURVE",
"302 -10 CURVE SMOOTH",
"407 -10 OFFCURVE",
"494 45 OFFCURVE",
"525 121 CURVE",
"439 147 LINE",
"423 103 OFFCURVE",
"361 66 OFFCURVE",
"300 66 CURVE SMOOTH",
"205 66 OFFCURVE",
"126 152 OFFCURVE",
"126 262 CURVE SMOOTH",
"126 373 OFFCURVE",
"202 455 OFFCURVE",
"299 455 CURVE SMOOTH",
"357 455 OFFCURVE",
"408 426 OFFCURVE",
"435 377 CURVE",
"521 404 LINE",
"483 481 OFFCURVE",
"404 531 OFFCURVE",
"301 531 CURVE SMOOTH",
"142 531 OFFCURVE",
"36 409 OFFCURVE"
);
}
);
width = 554;
},
{
anchors = (
{
name = bottom;
position = "{308, 0}";
},
{
name = top;
position = "{308, 526}";
}
);
layerId = "CD86D743-087E-48CD-95ED-391136C80322";
paths = (
{
closed = 1;
nodes = (
"19 263 CURVE SMOOTH",
"19 119 OFFCURVE",
"122 -10 OFFCURVE",
"308 -10 CURVE SMOOTH",
"435 -10 OFFCURVE",
"522 49 OFFCURVE",
"565 133 CURVE",
"380 189 LINE",
"363 164 OFFCURVE",
"338 150 OFFCURVE",
"307 150 CURVE SMOOTH",
"255 150 OFFCURVE",
"214 192 OFFCURVE",
"214 263 CURVE SMOOTH",
"214 334 OFFCURVE",
"255 376 OFFCURVE",
"307 376 CURVE SMOOTH",
"338 376 OFFCURVE",
"363 362 OFFCURVE",
"380 337 CURVE",
"565 393 LINE",
"522 477 OFFCURVE",
"435 536 OFFCURVE",
"308 536 CURVE SMOOTH",
"122 536 OFFCURVE",
"19 407 OFFCURVE"
);
}
);
width = 577;
}
);
unicode = 0063;
userData = {
org.robofab.fontlab.mark = 0;
};
},
{
glyphname = d;
lastChange = "2016-08-01 09:41:41 +0000";
layers = (
{
anchors = (
{
name = top;
position = "{572, 519}";
}
);
layerId = "DC0D5209-C0CE-4187-A591-293A64199C8F";
paths = (
{
closed = 1;
nodes = (
"296 -10 CURVE SMOOTH",
"375 -10 OFFCURVE",
"455 39 OFFCURVE",
"499 108 CURVE",
"499 40 LINE SMOOTH",
"499 24 OFFCURVE",
"507 8 OFFCURVE",
"522 2 CURVE SMOOTH",
"526 0 OFFCURVE",
"530 0 OFFCURVE",
"535 0 CURVE",
"535 20 LINE",
"525 20 OFFCURVE",
"519 28 OFFCURVE",
"519 40 CURVE SMOOTH",
"519 730 LINE",
"499 730 LINE",
"499 398 LINE",
"457 467 OFFCURVE",
"382 527 OFFCURVE",
"287 527 CURVE SMOOTH",
"148 527 OFFCURVE",
"46 401 OFFCURVE",
"46 258 CURVE SMOOTH",
"46 125 OFFCURVE",
"151 -10 OFFCURVE"
);
},
{
closed = 1;
nodes = (
"296 10 CURVE SMOOTH",
"168 10 OFFCURVE",
"66 128 OFFCURVE",
"66 258 CURVE SMOOTH",
"66 382 OFFCURVE",
"152 507 OFFCURVE",
"287 507 CURVE SMOOTH",
"371 507 OFFCURVE",
"469 439 OFFCURVE",
"499 356 CURVE",
"499 169 LINE",
"494 84 OFFCURVE",
"377 10 OFFCURVE"
);
}
);
width = 604;
},
{
anchors = (
{
name = top;
position = "{617, 522}";
}
);
layerId = "A8272220-FCE5-4C48-BDEF-D37440F7149C";
paths = (
{
closed = 1;
nodes = (
"286 -10 CURVE SMOOTH",
"361 -10 OFFCURVE",
"436 31 OFFCURVE",
"477 98 CURVE",
"477 54 LINE SMOOTH",
"477 24 OFFCURVE",
"507 -4 OFFCURVE",
"542 -4 CURVE SMOOTH",
"553 -4 OFFCURVE",
"562 -3 OFFCURVE",
"581 0 CURVE",
"581 76 LINE",
"561 77 OFFCURVE",
"553 86 OFFCURVE",
"553 108 CURVE SMOOTH",
"553 730 LINE",
"465 730 LINE",
"465 418 LINE",
"427 481 OFFCURVE",
"358 531 OFFCURVE",
"274 531 CURVE SMOOTH",
"136 531 OFFCURVE",
"37 408 OFFCURVE",
"37 260 CURVE SMOOTH",
"37 116 OFFCURVE",
"141 -10 OFFCURVE"
);
},
{
closed = 1;
nodes = (
"307 66 CURVE SMOOTH",
"206 66 OFFCURVE",
"128 154 OFFCURVE",
"128 259 CURVE SMOOTH",
"128 359 OFFCURVE",
"196 455 OFFCURVE",
"299 455 CURVE SMOOTH",
"365 455 OFFCURVE",
"440 401 OFFCURVE",
"465 333 CURVE",
"465 183 LINE",
"452 118 OFFCURVE",
"370 66 OFFCURVE"
);
}
);
width = 629;
},
{
anchors = (
{
name = top;
position = "{681, 526}";
}
);
layerId = "CD86D743-087E-48CD-95ED-391136C80322";
paths = (
{
closed = 1;
nodes = (
"268 -10 CURVE SMOOTH",
"337 -10 OFFCURVE",
"403 18 OFFCURVE",
"439 82 CURVE",
"443 63 LINE SMOOTH",
"453 14 OFFCURVE",
"491 -10 OFFCURVE",
"555 -10 CURVE SMOOTH",
"575 -10 OFFCURVE",
"601 -7 OFFCURVE",
"635 0 CURVE",
"635 160 LINE",
"608 162 OFFCURVE",
"599 174 OFFCURVE",
"599 210 CURVE SMOOTH",
"599 730 LINE",
"409 730 LINE",
"409 448 LINE",
"379 503 OFFCURVE",
"318 536 OFFCURVE",
"250 536 CURVE SMOOTH",
"115 536 OFFCURVE",
"20 419 OFFCURVE",
"20 264 CURVE SMOOTH",
"20 103 OFFCURVE",
"123 -10 OFFCURVE"
);
},
{
closed = 1;
nodes = (
"320 150 CURVE SMOOTH",
"258 150 OFFCURVE",
"216 194 OFFCURVE",
"216 260 CURVE SMOOTH",
"216 324 OFFCURVE",
"257 376 OFFCURVE",
"312 376 CURVE SMOOTH",
"352 376 OFFCURVE",
"392 344 OFFCURVE",
"410 298 CURVE",
"410 204 LINE",
"385 168 OFFCURVE",
"356 150 OFFCURVE"
);
}
);
width = 665;
}
);
unicode = 0064;
userData = {
org.robofab.fontlab.mark = 0;
};
},
{
glyphname = eth;
lastChange = "2016-08-01 09:41:41 +0000";
layers = (
{
layerId = "DC0D5209-C0CE-4187-A591-293A64199C8F";
paths = (
{
closed = 1;
nodes = (
"542 246 CURVE SMOOTH",
"542 420 OFFCURVE",
"509 575 OFFCURVE",
"249 730 CURVE",
"220 730 LINE",
"457 593 OFFCURVE",
"509 457 OFFCURVE",
"522 330 CURVE",
"487 415 OFFCURVE",
"399 475 OFFCURVE",
"295 475 CURVE SMOOTH",
"161 475 OFFCURVE",
"48 364 OFFCURVE",
"48 232 CURVE SMOOTH",
"48 101 OFFCURVE",
"158 -10 OFFCURVE",
"295 -10 CURVE SMOOTH",
"431 -10 OFFCURVE",
"542 108 OFFCURVE"
);
},
{
closed = 1;
nodes = (
"68 230 CURVE SMOOTH",
"68 352 OFFCURVE",
"172 455 OFFCURVE",
"295 455 CURVE SMOOTH",
"418 455 OFFCURVE",
"522 360 OFFCURVE",
"522 247 CURVE SMOOTH",
"522 119 OFFCURVE",
"418 10 OFFCURVE",
"294 10 CURVE SMOOTH",
"170 10 OFFCURVE",
"68 110 OFFCURVE"
);
},
{
closed = 1;
nodes = (
"461 713 LINE",
"361 647 LINE",
"355 643 LINE",
"230 561 LINE",
"240 547 LINE",
"368 631 LINE",
"375 636 LINE",
"471 699 LINE"
);
}
);
width = 593;
},
{
layerId = "A8272220-FCE5-4C48-BDEF-D37440F7149C";
paths = (
{
closed = 1;
nodes = (
"566 290 CURVE SMOOTH",
"566 423 OFFCURVE",
"503 612 OFFCURVE",
"301 730 CURVE",
"177 730 LINE",
"387 614 OFFCURVE",
"455 495 OFFCURVE",
"476 368 CURVE",
"440 431 OFFCURVE",
"366 473 OFFCURVE",
"283 473 CURVE SMOOTH",
"148 473 OFFCURVE",
"39 364 OFFCURVE",
"39 233 CURVE SMOOTH",
"39 97 OFFCURVE",
"156 -10 OFFCURVE",
"297 -10 CURVE SMOOTH",
"442 -10 OFFCURVE",
"566 104 OFFCURVE"
);
},
{
closed = 1;
nodes = (
"129 233 CURVE SMOOTH",
"129 326 OFFCURVE",
"206 401 OFFCURVE",
"304 401 CURVE SMOOTH",
"399 401 OFFCURVE",
"476 331 OFFCURVE",
"476 239 CURVE SMOOTH",
"476 146 OFFCURVE",
"399 66 OFFCURVE",
"300 66 CURVE SMOOTH",
"205 66 OFFCURVE",
"129 140 OFFCURVE"
);
},
{
closed = 1;
nodes = (
"478 713 LINE",
"369 647 LINE",
"343 639 LINE",
"226 569 LINE",
"253 532 LINE",
"372 604 LINE",
"400 614 LINE",
"505 676 LINE"
);
}
);
width = 606;
},
{
layerId = "CD86D743-087E-48CD-95ED-391136C80322";
paths = (
{
closed = 1;
nodes = (
"598 291 CURVE SMOOTH",
"598 480 OFFCURVE",
"487 667 OFFCURVE",
"338 730 CURVE",
"108 730 LINE",
"277 646 OFFCURVE",
"369 551 OFFCURVE",
"403 425 CURVE",
"365 454 OFFCURVE",
"313 471 OFFCURVE",
"260 471 CURVE SMOOTH",
"126 471 OFFCURVE",
"22 367 OFFCURVE",
"22 234 CURVE SMOOTH",
"22 91 OFFCURVE",
"141 -10 OFFCURVE",
"310 -10 CURVE SMOOTH",
"489 -10 OFFCURVE",
"598 103 OFFCURVE"
);
},
{
closed = 1;
nodes = (
"217 235 CURVE SMOOTH",
"217 286 OFFCURVE",
"254 320 OFFCURVE",
"310 320 CURVE SMOOTH",
"366 320 OFFCURVE",
"403 286 OFFCURVE",
"403 235 CURVE SMOOTH",
"403 184 OFFCURVE",
"366 150 OFFCURVE",
"310 150 CURVE SMOOTH",
"254 150 OFFCURVE",
"217 184 OFFCURVE"
);
},
{
closed = 1;
nodes = (
"499 712 LINE",
"376 648 LINE",
"322 634 LINE",
"216 581 LINE",
"268 510 LINE",
"375 563 LINE",
"433 580 LINE",
"551 641 LINE"
);
}
);
width = 621;
}
);
unicode = 00F0;
userData = {
org.robofab.fontlab.mark = 0;
};
},
{
glyphname = dcroat;
lastChange = "2016-08-01 09:41:41 +0000";
layers = (
{
components = (
{
name = d;
}
);
layerId = "DC0D5209-C0CE-4187-A591-293A64199C8F";
paths = (
{
closed = 1;
nodes = (
"595 633 LINE",
"595 653 LINE",
"375 653 LINE",
"375 633 LINE"
);
}
);
width = 604;
},
{
components = (
{
name = d;
}
);
layerId = "A8272220-FCE5-4C48-BDEF-D37440F7149C";
paths = (
{
closed = 1;
nodes = (
"621 611 LINE",
"621 667 LINE",
"355 667 LINE",
"355 611 LINE"
);
}
);
width = 629;
},
{
components = (
{
name = d;
}
);
layerId = "CD86D743-087E-48CD-95ED-391136C80322";
paths = (
{
closed = 1;
nodes = (
"657 579 LINE",
"657 688 LINE",
"322 688 LINE",
"322 579 LINE"
);
}
);
width = 665;
}
);
unicode = 0111;
userData = {
org.robofab.fontlab.mark = 0;
};
},
{
glyphname = e;
lastChange = "2016-08-09 17:50:11 +0000";
layers = (
{
anchors = (
{
name = bottom;
position = "{296, 0}";
},
{
name = ogonek;
position = "{518, 10}";
},
{
name = top;
position = "{292, 519}";
}
);
layerId = "DC0D5209-C0CE-4187-A591-293A64199C8F";
paths = (
{
closed = 1;
nodes = (
"296 -10 CURVE SMOOTH",
"386 -10 OFFCURVE",
"474 43 OFFCURVE",
"502 114 CURVE",
"483 119 LINE",
"454 55 OFFCURVE",
"377 10 OFFCURVE",
"297 10 CURVE SMOOTH",
"176 10 OFFCURVE",
"76 114 OFFCURVE",
"66 248 CURVE",
"541 248 LINE",
"541 252 OFFCURVE",
"541 255 OFFCURVE",
"541 259 CURVE",
"540 408 OFFCURVE",
"429 527 OFFCURVE",
"291 527 CURVE SMOOTH",
"155 527 OFFCURVE",
"46 409 OFFCURVE",
"46 263 CURVE SMOOTH",
"46 114 OFFCURVE",
"159 -10 OFFCURVE"
);
},
{
closed = 1;
nodes = (
"66 268 LINE",
"73 405 OFFCURVE",
"169 507 OFFCURVE",
"292 507 CURVE SMOOTH",
"415 507 OFFCURVE",
"511 407 OFFCURVE",
"520 268 CURVE"
);
}
);
width = 576;
},
{
anchors = (
{
name = bottom;
position = "{301, 0}";
},
{
name = ogonek;
position = "{532, 10}";
},
{
name = top;
position = "{299, 522}";
}
);
layerId = "A8272220-FCE5-4C48-BDEF-D37440F7149C";
paths = (
{
closed = 1;
nodes = (
"302 -10 CURVE SMOOTH",
"407 -10 OFFCURVE",
"496 45 OFFCURVE",
"530 122 CURVE",
"454 143 LINE",
"432 91 OFFCURVE",
"369 56 OFFCURVE",
"305 56 CURVE SMOOTH",
"214 56 OFFCURVE",
"137 128 OFFCURVE",
"129 231 CURVE",
"562 231 LINE",
"563 237 OFFCURVE",
"564 251 OFFCURVE",
"564 265 CURVE SMOOTH",
"564 405 OFFCURVE",
"461 531 OFFCURVE",
"303 531 CURVE SMOOTH",
"146 531 OFFCURVE",
"36 408 OFFCURVE",
"36 261 CURVE SMOOTH",
"36 114 OFFCURVE",
"145 -10 OFFCURVE"
);
},
{
closed = 1;
nodes = (
"127 296 LINE",
"134 395 OFFCURVE",
"210 465 OFFCURVE",
"303 465 CURVE SMOOTH",
"396 465 OFFCURVE",
"472 396 OFFCURVE",
"481 296 CURVE"
);
}
);
width = 591;
},
{
anchors = (
{
name = bottom;
position = "{307, 0}";
},
{
name = ogonek;
position = "{548, 10}";
},
{
name = top;
position = "{307, 526}";
}
);
layerId = "CD86D743-087E-48CD-95ED-391136C80322";
paths = (
{
closed = 1;
nodes = (
"307 -10 CURVE SMOOTH",
"435 -10 OFFCURVE",
"526 49 OFFCURVE",
"569 133 CURVE",
"408 179 LINE",
"396 146 OFFCURVE",
"354 126 OFFCURVE",
"313 126 CURVE SMOOTH",
"269 126 OFFCURVE",
"225 149 OFFCURVE",
"221 205 CURVE",
"590 205 LINE",
"593 221 OFFCURVE",
"595 243 OFFCURVE",
"595 263 CURVE SMOOTH",
"595 408 OFFCURVE",
"495 536 OFFCURVE",
"307 536 CURVE SMOOTH",
"119 536 OFFCURVE",
"19 408 OFFCURVE",
"19 256 CURVE SMOOTH",
"19 115 OFFCURVE",
"122 -10 OFFCURVE"
);
},
{
closed = 1;
nodes = (
"217 319 LINE",
"223 370 OFFCURVE",
"256 401 OFFCURVE",
"304 401 CURVE SMOOTH",
"352 401 OFFCURVE",
"385 370 OFFCURVE",
"391 319 CURVE"
);
}
);
width = 609;
}
);
unicode = 0065;
userData = {
org.robofab.fontlab.mark = 0;
};
},
{
glyphname = f;
lastChange = "2016-08-01 09:41:41 +0000";
layers = (
{
layerId = "DC0D5209-C0CE-4187-A591-293A64199C8F";
paths = (
{
closed = 1;
nodes = (
"123 0 LINE",
"123 499 LINE",
"278 499 LINE",
"278 519 LINE",
"123 519 LINE",
"123 540 LINE SMOOTH",
"123 657 OFFCURVE",
"165 721 OFFCURVE",
"241 721 CURVE SMOOTH",
"272 721 OFFCURVE",
"303 710 OFFCURVE",
"319 694 CURVE",
"335 706 LINE",
"317 726 OFFCURVE",
"278 740 OFFCURVE",
"240 740 CURVE SMOOTH",
"154 740 OFFCURVE",
"103 666 OFFCURVE",
"103 540 CURVE SMOOTH",
"103 519 LINE",
"28 519 LINE",
"28 499 LINE",
"103 499 LINE",
"103 0 LINE"
);
}
);
width = 299;
},
{
layerId = "A8272220-FCE5-4C48-BDEF-D37440F7149C";
paths = (
{
closed = 1;
nodes = (
"187 0 LINE",
"187 453 LINE",
"326 453 LINE",
"326 522 LINE",
"187 522 LINE",
"187 536 LINE SMOOTH",
"187 619 OFFCURVE",
"219 665 OFFCURVE",
"277 665 CURVE SMOOTH",
"303 665 OFFCURVE",
"333 656 OFFCURVE",
"352 643 CURVE",
"374 708 LINE",
"342 728 OFFCURVE",
"300 740 OFFCURVE",
"259 740 CURVE SMOOTH",
"161 740 OFFCURVE",
"99 661 OFFCURVE",
"99 533 CURVE SMOOTH",
"99 522 LINE",
"28 522 LINE",
"28 453 LINE",
"99 453 LINE",
"99 0 LINE"
);
}
);
width = 343;
},
{
layerId = "CD86D743-087E-48CD-95ED-391136C80322";
paths = (
{
closed = 1;
nodes = (
"275 0 LINE",
"275 322 LINE",
"390 322 LINE",
"390 465 LINE",
"275 465 LINE",
"275 529 LINE SMOOTH",
"275 563 OFFCURVE",
"290 580 OFFCURVE",
"321 580 CURVE SMOOTH",
"341 580 OFFCURVE",
"370 574 OFFCURVE",
"392 566 CURVE",
"424 710 LINE",
"371 730 OFFCURVE",
"323 740 OFFCURVE",
"278 740 CURVE SMOOTH",
"162 740 OFFCURVE",
"85 654 OFFCURVE",
"85 522 CURVE SMOOTH",
"85 465 LINE",
"20 465 LINE",
"20 322 LINE",
"85 322 LINE",
"85 0 LINE"
);
}
);
width = 402;
}
);
unicode = 0066;
userData = {
org.robofab.fontlab.mark = 0;
};
},
{
glyphname = g;
lastChange = "2016-08-01 09:41:41 +0000";
layers = (
{
anchors = (
{
name = top;
position = "{314, 519}";
}
);
layerId = "DC0D5209-C0CE-4187-A591-293A64199C8F";
paths = (
{
closed = 1;
nodes = (
"296 -10 CURVE SMOOTH",
"375 -10 OFFCURVE",
"455 39 OFFCURVE",
"499 108 CURVE",
"499 -22 LINE SMOOTH",
"499 -141 OFFCURVE",
"404 -203 OFFCURVE",
"290 -203 CURVE SMOOTH",
"206 -203 OFFCURVE",
"126 -171 OFFCURVE",
"84 -93 CURVE",
"65 -99 LINE",
"104 -173 OFFCURVE",
"167 -223 OFFCURVE",
"290 -223 CURVE SMOOTH",
"408 -223 OFFCURVE",
"519 -159 OFFCURVE",
"519 -22 CURVE SMOOTH",
"519 519 LINE",
"499 519 LINE",
"499 398 LINE",
"449 469 OFFCURVE",
"381 527 OFFCURVE",
"287 527 CURVE SMOOTH",
"145 527 OFFCURVE",
"46 397 OFFCURVE",
"46 258 CURVE SMOOTH",
"46 125 OFFCURVE",
"151 -10 OFFCURVE"
);
},
{
closed = 1;
nodes = (
"296 10 CURVE SMOOTH",
"168 10 OFFCURVE",
"66 128 OFFCURVE",
"66 258 CURVE SMOOTH",
"66 376 OFFCURVE",
"147 507 OFFCURVE",
"287 507 CURVE SMOOTH",
"376 507 OFFCURVE",
"466 443 OFFCURVE",
"499 356 CURVE",
"499 169 LINE",
"493 95 OFFCURVE",
"394 10 OFFCURVE"
);
}
);
width = 603;
},
{
anchors = (
{
name = top;
position = "{331, 522}";
}
);
layerId = "A8272220-FCE5-4C48-BDEF-D37440F7149C";
paths = (
{
closed = 1;
nodes = (
"279 -6 CURVE SMOOTH",
"353 -6 OFFCURVE",
"426 34 OFFCURVE",
"465 98 CURVE",
"465 6 LINE SMOOTH",
"465 -103 OFFCURVE",
"383 -155 OFFCURVE",
"287 -155 CURVE SMOOTH",
"212 -155 OFFCURVE",
"142 -124 OFFCURVE",
"101 -63 CURVE",
"50 -108 LINE",
"99 -179 OFFCURVE",
"169 -223 OFFCURVE",
"287 -223 CURVE SMOOTH",
"435 -223 OFFCURVE",
"553 -142 OFFCURVE",
"553 6 CURVE SMOOTH",
"553 522 LINE",
"475 522 LINE",
"475 418 LINE",
"431 483 OFFCURVE",
"367 531 OFFCURVE",
"280 531 CURVE SMOOTH",
"137 531 OFFCURVE",
"38 407 OFFCURVE",
"38 260 CURVE SMOOTH",
"38 121 OFFCURVE",
"137 -6 OFFCURVE"
);
},
{
closed = 1;
nodes = (
"306 66 CURVE SMOOTH",
"206 66 OFFCURVE",
"127 154 OFFCURVE",
"127 258 CURVE SMOOTH",
"127 355 OFFCURVE",
"192 455 OFFCURVE",
"298 455 CURVE SMOOTH",
"367 455 OFFCURVE",
"437 404 OFFCURVE",
"465 333 CURVE",
"465 183 LINE",
"451 124 OFFCURVE",
"380 66 OFFCURVE"
);
}
);
width = 624;
},
{
anchors = (
{
name = top;
position = "{353, 526}";
}
);
layerId = "CD86D743-087E-48CD-95ED-391136C80322";
paths = (
{
closed = 1;
nodes = (
"250 0 CURVE SMOOTH",
"317 0 OFFCURVE",
"379 27 OFFCURVE",
"409 82 CURVE",
"409 48 LINE SMOOTH",
"409 -46 OFFCURVE",
"348 -82 OFFCURVE",
"279 -82 CURVE SMOOTH",
"218 -82 OFFCURVE",
"161 -54 OFFCURVE",
"123 -18 CURVE",
"23 -122 LINE",
"87 -187 OFFCURVE",
"168 -223 OFFCURVE",
"279 -223 CURVE SMOOTH",
"471 -223 OFFCURVE",
"599 -116 OFFCURVE",
"599 48 CURVE SMOOTH",
"599 526 LINE",
"434 526 LINE",
"434 448 LINE",
"401 505 OFFCURVE",
"341 536 OFFCURVE",
"266 536 CURVE SMOOTH",
"122 536 OFFCURVE",
"21 421 OFFCURVE",
"21 264 CURVE SMOOTH",
"21 115 OFFCURVE",
"113 0 OFFCURVE"
);
},
{
closed = 1;
nodes = (
"318 150 CURVE SMOOTH",
"258 150 OFFCURVE",
"215 194 OFFCURVE",
"215 259 CURVE SMOOTH",
"215 323 OFFCURVE",
"256 376 OFFCURVE",
"310 376 CURVE SMOOTH",
"350 376 OFFCURVE",
"390 346 OFFCURVE",
"409 298 CURVE",
"409 204 LINE",
"384 168 OFFCURVE",
"356 150 OFFCURVE"
);
}
);
width = 647;
}
);
unicode = 0067;
userData = {
org.robofab.fontlab.mark = 0;
};
},
{
glyphname = h;
lastChange = "2016-08-01 09:41:41 +0000";
layers = (
{
anchors = (
{
name = top;
position = "{302, 518}";
}
);
layerId = "DC0D5209-C0CE-4187-A591-293A64199C8F";
paths = (
{
closed = 1;
nodes = (
"487 289 LINE SMOOTH",
"487 445 OFFCURVE",
"430 527 OFFCURVE",
"322 527 CURVE SMOOTH",
"233 527 OFFCURVE",
"147 471 OFFCURVE",
"104 385 CURVE",
"104 730 LINE",
"84 730 LINE",
"84 0 LINE",
"104 0 LINE",
"104 328 LINE",
"131 429 OFFCURVE",
"226 507 OFFCURVE",
"323 507 CURVE SMOOTH",
"418 507 OFFCURVE",
"467 433 OFFCURVE",
"467 289 CURVE SMOOTH",
"467 0 LINE",
"487 0 LINE"
);
}
);
width = 565;
},
{
anchors = (
{
name = top;
position = "{335, 521}";
}
);
layerId = "A8272220-FCE5-4C48-BDEF-D37440F7149C";
paths = (
{
closed = 1;
nodes = (
"524 312 LINE",
"524 436 OFFCURVE",
"483 531 OFFCURVE",
"359 531 CURVE SMOOTH",
"276 531 OFFCURVE",
"200 485 OFFCURVE",
"159 410 CURVE",
"159 730 LINE",
"71 730 LINE",
"71 0 LINE",
"159 0 LINE",
"159 315 LINE",
"182 394 OFFCURVE",
"257 452 OFFCURVE",
"326 452 CURVE SMOOTH",
"397 452 OFFCURVE",
"436 399 OFFCURVE",
"436 292 CURVE SMOOTH",
"436 0 LINE",
"524 0 LINE"
);
}
);
width = 590;
},
{
anchors = (
{
name = top;
position = "{381, 525}";
}
);
layerId = "CD86D743-087E-48CD-95ED-391136C80322";
paths = (
{
closed = 1;
nodes = (
"577 346 LINE SMOOTH",
"577 423 OFFCURVE",
"560 536 OFFCURVE",
"412 536 CURVE SMOOTH",
"338 536 OFFCURVE",
"275 505 OFFCURVE",
"238 448 CURVE",
"238 730 LINE",
"48 730 LINE",
"48 0 LINE",
"238 0 LINE",
"238 295 LINE",
"256 341 OFFCURVE",
"301 370 OFFCURVE",
"326 370 CURVE SMOOTH",
"361 370 OFFCURVE",
"387 348 OFFCURVE",
"387 296 CURVE SMOOTH",
"387 0 LINE",
"577 0 LINE"
);
}
);
width = 621;
}
);
unicode = 0068;
userData = {
org.robofab.fontlab.mark = 0;
};
},
{
glyphname = hbar;
lastChange = "2016-08-01 09:41:41 +0000";
layers = (
{
components = (
{
name = h;
}
);
layerId = "DC0D5209-C0CE-4187-A591-293A64199C8F";
paths = (
{
closed = 1;
nodes = (
"230 633 LINE",
"230 653 LINE",
"10 653 LINE",
"10 633 LINE"
);
}
);
width = 565;
},
{
components = (
{
name = h;
}
);
layerId = "A8272220-FCE5-4C48-BDEF-D37440F7149C";
paths = (
{
closed = 1;
nodes = (
"281 611 LINE",
"281 667 LINE",
"15 667 LINE",
"15 611 LINE"
);
}
);
width = 590;
},
{
components = (
{
name = h;
}
);
layerId = "CD86D743-087E-48CD-95ED-391136C80322";
paths = (
{
closed = 1;
nodes = (
"353 579 LINE",
"353 688 LINE",
"18 688 LINE",
"18 579 LINE"
);
}
);
width = 621;
}
);
unicode = 0127;
userData = {
org.robofab.fontlab.mark = 0;
};
},
{
glyphname = i;
lastChange = "2016-08-05 15:56:29 +0000";
layers = (
{
layerId = "DC0D5209-C0CE-4187-A591-293A64199C8F";
paths = (
{
closed = 1;
nodes = (
"104 0 LINE",
"104 519 LINE",
"84 519 LINE",
"84 0 LINE"
);
},
{
closed = 1;
nodes = (
"104 653 LINE",
"104 730 LINE",
"84 730 LINE",
"84 653 LINE"
);
}
);
width = 188;
},
{
layerId = "A8272220-FCE5-4C48-BDEF-D37440F7149C";
paths = (
{
closed = 1;
nodes = (
"159 0 LINE",
"159 522 LINE",
"71 522 LINE",
"71 0 LINE"
);
},
{
closed = 1;
nodes = (
"159 620 LINE",
"159 730 LINE",
"71 730 LINE",
"71 620 LINE"
);
}
);
width = 230;
},
{
layerId = "CD86D743-087E-48CD-95ED-391136C80322";
paths = (
{
closed = 1;
nodes = (
"238 0 LINE",
"238 526 LINE",
"48 526 LINE",
"48 0 LINE"
);
},
{
closed = 1;
nodes = (
"238 570 LINE",
"238 730 LINE",
"48 730 LINE",
"48 570 LINE"
);
}
);
width = 286;
}
);
unicode = 0069;
userData = {
org.robofab.fontlab.mark = 0;
};
},
{
glyphname = dotlessi;
lastChange = "2016-08-05 15:57:20 +0000";
layers = (
{
anchors = (
{
name = top;
position = "{94, 519}";
}
);
layerId = "DC0D5209-C0CE-4187-A591-293A64199C8F";
paths = (
{
closed = 1;
nodes = (
"104 0 LINE",
"104 519 LINE",
"84 519 LINE",
"84 0 LINE"
);
}
);
width = 188;
},
{
anchors = (
{
name = top;
position = "{115, 522}";
}
);
layerId = "A8272220-FCE5-4C48-BDEF-D37440F7149C";
paths = (
{
closed = 1;
nodes = (
"159 0 LINE",
"159 522 LINE",
"71 522 LINE",
"71 0 LINE"
);
}
);
width = 230;
},
{
anchors = (
{
name = top;
position = "{143, 526}";
}
);
layerId = "CD86D743-087E-48CD-95ED-391136C80322";
paths = (
{
closed = 1;
nodes = (
"238 0 LINE",
"238 526 LINE",
"48 526 LINE",
"48 0 LINE"
);
}
);
width = 286;
}
);
unicode = 0131;
userData = {
org.robofab.fontlab.mark = 0;
};
},
{
glyphname = j;
lastChange = "2016-08-01 09:41:41 +0000";
layers = (
{
layerId = "DC0D5209-C0CE-4187-A591-293A64199C8F";
paths = (
{
closed = 1;
nodes = (
"-21 -170 CURVE SMOOTH",
"41 -170 OFFCURVE",
"112 -114 OFFCURVE",
"112 -36 CURVE SMOOTH",
"112 519 LINE",
"92 519 LINE",
"92 -36 LINE SMOOTH",
"92 -100 OFFCURVE",
"33 -150 OFFCURVE",
"-22 -150 CURVE SMOOTH",
"-50 -150 OFFCURVE",
"-81 -145 OFFCURVE",
"-105 -124 CURVE",
"-121 -136 LINE",
"-95 -162 OFFCURVE",
"-60 -170 OFFCURVE"
);
},
{
closed = 1;
nodes = (
"112 653 LINE",
"112 730 LINE",
"92 730 LINE",
"92 653 LINE"
);
}
);
width = 196;
},
{
layerId = "A8272220-FCE5-4C48-BDEF-D37440F7149C";
paths = (
{
closed = 1;
nodes = (
"4 -186 CURVE SMOOTH",
"89 -186 OFFCURVE",
"166 -116 OFFCURVE",
"166 -17 CURVE SMOOTH",
"166 522 LINE",
"78 522 LINE",
"78 -23 LINE SMOOTH",
"78 -72 OFFCURVE",
"37 -108 OFFCURVE",
"-6 -108 CURVE SMOOTH",
"-30 -108 OFFCURVE",
"-56 -102 OFFCURVE",
"-75 -85 CURVE",
"-116 -144 LINE",
"-84 -173 OFFCURVE",
"-42 -186 OFFCURVE"
);
},
{
closed = 1;
nodes = (
"166 620 LINE",
"166 730 LINE",
"78 730 LINE",
"78 620 LINE"
);
}
);
width = 237;
},
{
layerId = "CD86D743-087E-48CD-95ED-391136C80322";
paths = (
{
closed = 1;
nodes = (
"36 -209 CURVE SMOOTH",
"157 -209 OFFCURVE",
"242 -119 OFFCURVE",
"242 12 CURVE SMOOTH",
"242 526 LINE",
"52 526 LINE",
"52 -3 LINE SMOOTH",
"52 -30 OFFCURVE",
"37 -46 OFFCURVE",
"12 -46 CURVE SMOOTH",
"-6 -46 OFFCURVE",
"-24 -38 OFFCURVE",
"-35 -26 CURVE",
"-113 -155 LINE",
"-72 -190 OFFCURVE",
"-19 -209 OFFCURVE"
);
},
{
closed = 1;
nodes = (
"242 570 LINE",
"242 730 LINE",
"52 730 LINE",
"52 570 LINE"
);
}
);
width = 290;
}
);
unicode = 006A;
userData = {
org.robofab.fontlab.mark = 0;
};
},
{
glyphname = dotlessj;
lastChange = "2016-08-01 09:41:41 +0000";
layers = (
{
anchors = (
{
name = top;
position = "{94, 519}";
}
);
layerId = "DC0D5209-C0CE-4187-A591-293A64199C8F";
paths = (
{
closed = 1;
nodes = (
"-29 -170 CURVE SMOOTH",
"33 -170 OFFCURVE",
"104 -114 OFFCURVE",
"104 -36 CURVE SMOOTH",
"104 519 LINE",
"84 519 LINE",
"84 -36 LINE SMOOTH",
"84 -100 OFFCURVE",
"25 -150 OFFCURVE",
"-30 -150 CURVE SMOOTH",
"-58 -150 OFFCURVE",
"-89 -145 OFFCURVE",
"-113 -124 CURVE",
"-129 -136 LINE",
"-103 -162 OFFCURVE",
"-68 -170 OFFCURVE"
);
}
);
width = 188;
},
{
anchors = (
{
name = top;
position = "{115, 522}";
}
);
layerId = "A8272220-FCE5-4C48-BDEF-D37440F7149C";
paths = (
{
closed = 1;
nodes = (
"-3 -186 CURVE SMOOTH",
"82 -186 OFFCURVE",
"159 -116 OFFCURVE",
"159 -17 CURVE SMOOTH",
"159 522 LINE",
"71 522 LINE",
"71 -23 LINE SMOOTH",
"71 -72 OFFCURVE",
"30 -108 OFFCURVE",
"-13 -108 CURVE SMOOTH",
"-37 -108 OFFCURVE",
"-63 -102 OFFCURVE",
"-82 -85 CURVE",
"-123 -144 LINE",
"-91 -173 OFFCURVE",
"-49 -186 OFFCURVE"
);
}
);
width = 230;
},
{
anchors = (
{
name = top;
position = "{143, 526}";
}
);
layerId = "CD86D743-087E-48CD-95ED-391136C80322";
paths = (
{
closed = 1;
nodes = (
"32 -209 CURVE SMOOTH",
"153 -209 OFFCURVE",
"238 -119 OFFCURVE",
"238 12 CURVE SMOOTH",
"238 526 LINE",
"48 526 LINE",
"48 -3 LINE SMOOTH",
"48 -30 OFFCURVE",
"33 -46 OFFCURVE",
"8 -46 CURVE SMOOTH",
"-10 -46 OFFCURVE",
"-28 -38 OFFCURVE",
"-39 -26 CURVE",
"-117 -155 LINE",
"-76 -190 OFFCURVE",
"-23 -209 OFFCURVE"
);
}
);
width = 286;
}
);
unicode = 0237;
userData = {
org.robofab.fontlab.mark = 0;
};
},
{
glyphname = k;
lastChange = "2016-08-01 09:41:41 +0000";
layers = (
{
anchors = (
{
name = bottom;
position = "{265, 0}";
}
);
layerId = "DC0D5209-C0CE-4187-A591-293A64199C8F";
paths = (
{
closed = 1;
nodes = (
"490 0 LINE",
"260 311 LINE",
"485 517 LINE",
"458 517 LINE",
"104 196 LINE",
"104 730 LINE",
"84 730 LINE",
"84 0 LINE",
"104 0 LINE",
"104 169 LINE",
"245 297 LINE",
"466 0 LINE"
);
}
);
width = 508;
},
{
anchors = (
{
name = bottom;
position = "{280, 0}";
}
);
layerId = "A8272220-FCE5-4C48-BDEF-D37440F7149C";
paths = (
{
closed = 1;
nodes = (
"534 0 LINE",
"316 305 LINE",
"524 521 LINE",
"427 521 LINE",
"159 250 LINE",
"159 730 LINE",
"71 730 LINE",
"71 0 LINE",
"159 0 LINE",
"159 161 LINE",
"259 255 LINE",
"439 0 LINE"
);
}
);
width = 539;
},
{
anchors = (
{
name = bottom;
position = "{300, 0}";
}
);
layerId = "CD86D743-087E-48CD-95ED-391136C80322";
paths = (
{
closed = 1;
nodes = (
"596 0 LINE",
"397 296 LINE",
"578 526 LINE",
"378 526 LINE",
"238 331 LINE",
"238 730 LINE",
"48 730 LINE",
"48 0 LINE",
"238 0 LINE",
"238 150 LINE",
"276 192 LINE",
"395 0 LINE"
);
}
);
width = 582;
}
);
unicode = 006B;
userData = {
org.robofab.fontlab.mark = 0;
};
},
{
glyphname = kgreenlandic;
lastChange = "2016-08-01 09:41:41 +0000";
layers = (
{
layerId = "DC0D5209-C0CE-4187-A591-293A64199C8F";
paths = (
{
closed = 1;
nodes = (
"490 0 LINE",
"260 311 LINE",
"485 517 LINE",
"458 517 LINE",
"104 196 LINE",
"104 519 LINE",
"84 519 LINE",
"84 0 LINE",
"104 0 LINE",
"104 169 LINE",
"245 297 LINE",
"466 0 LINE"
);
}
);
width = 508;
},
{
layerId = "A8272220-FCE5-4C48-BDEF-D37440F7149C";
paths = (
{
closed = 1;
nodes = (
"534 0 LINE",
"316 305 LINE",
"524 521 LINE",
"427 521 LINE",
"159 250 LINE",
"159 522 LINE",
"71 522 LINE",
"71 0 LINE",
"159 0 LINE",
"159 161 LINE",
"259 255 LINE",
"439 0 LINE"
);
}
);
width = 539;
},
{
layerId = "CD86D743-087E-48CD-95ED-391136C80322";
paths = (
{
closed = 1;
nodes = (
"596 0 LINE",
"397 296 LINE",
"578 526 LINE",
"378 526 LINE",
"238 331 LINE",
"238 526 LINE",
"48 526 LINE",
"48 0 LINE",
"238 0 LINE",
"238 150 LINE",
"276 192 LINE",
"395 0 LINE"
);
}
);
width = 582;
}
);
unicode = 0138;
userData = {
org.robofab.fontlab.mark = 0;
};
},
{
glyphname = l;
lastChange = "2016-08-01 09:41:41 +0000";
layers = (
{
anchors = (
{
name = bottom;
position = "{162, 0}";
},
{
name = top;
position = "{180, 519}";
}
);
layerId = "DC0D5209-C0CE-4187-A591-293A64199C8F";
paths = (
{
closed = 1;
nodes = (
"90 77 LINE SMOOTH",
"90 28 OFFCURVE",
"122 -5 OFFCURVE",
"169 -5 CURVE SMOOTH",
"187 -5 OFFCURVE",
"220 1 OFFCURVE",
"238 7 CURVE",
"231 23 LINE",
"214 18 OFFCURVE",
"191 14 OFFCURVE",
"176 14 CURVE SMOOTH",
"136 14 OFFCURVE",
"110 38 OFFCURVE",
"110 77 CURVE SMOOTH",
"110 730 LINE",
"90 730 LINE"
);
}
);
width = 238;
},
{
anchors = (
{
name = bottom;
position = "{179, 0}";
},
{
name = top;
position = "{258, 521}";
}
);
layerId = "A8272220-FCE5-4C48-BDEF-D37440F7149C";
paths = (
{
closed = 1;
nodes = (
"73 103 LINE",
"73 34 OFFCURVE",
"115 -7 OFFCURVE",
"183 -7 CURVE SMOOTH",
"214 -7 OFFCURVE",
"259 2 OFFCURVE",
"288 14 CURVE",
"274 85 LINE",
"257 78 OFFCURVE",
"235 73 OFFCURVE",
"220 73 CURVE SMOOTH",
"183 73 OFFCURVE",
"161 96 OFFCURVE",
"161 135 CURVE SMOOTH",
"161 730 LINE",
"73 730 LINE"
);
}
);
width = 286;
},
{
anchors = (
{
name = bottom;
position = "{202, 0}";
},
{
name = top;
position = "{371, 525}";
}
);
layerId = "CD86D743-087E-48CD-95ED-391136C80322";
paths = (
{
closed = 1;
nodes = (
"44 142 LINE SMOOTH",
"44 44 OFFCURVE",
"101 -10 OFFCURVE",
"202 -10 CURVE SMOOTH",
"252 -10 OFFCURVE",
"314 3 OFFCURVE",
"359 24 CURVE",
"335 164 LINE",
"319 155 OFFCURVE",
"299 149 OFFCURVE",
"283 149 CURVE SMOOTH",
"251 149 OFFCURVE",
"234 170 OFFCURVE",
"234 209 CURVE SMOOTH",
"234 730 LINE",
"44 730 LINE"
);
}
);
width = 355;
}
);
unicode = 006C;
userData = {
org.robofab.fontlab.mark = 0;
};
},
{
glyphname = lslash;
lastChange = "2016-08-01 09:41:41 +0000";
layers = (
{
components = (
{
name = l;
transform = "{1, 0, 0, 1, 14, 0}";
}
);
layerId = "DC0D5209-C0CE-4187-A591-293A64199C8F";
paths = (
{
closed = 1;
nodes = (
"231 504 LINE",
"216 518 LINE",
"16 318 LINE",
"31 304 LINE"
);
}
);
width = 253;
},
{
components = (
{
name = l;
transform = "{1, 0, 0, 1, 21, 0}";
}
);
layerId = "A8272220-FCE5-4C48-BDEF-D37440F7149C";
paths = (
{
closed = 1;
nodes = (
"297 473 LINE",
"270 522 LINE",
"8 332 LINE",
"34 283 LINE"
);
}
);
width = 308;
},
{
components = (
{
name = l;
transform = "{1, 0, 0, 1, 28, 0}";
}
);
layerId = "CD86D743-087E-48CD-95ED-391136C80322";
paths = (
{
closed = 1;
nodes = (
"388 426 LINE",
"345 527 LINE",
"-11 353 LINE",
"32 252 LINE"
);
}
);
width = 387;
}
);
unicode = 0142;
userData = {
org.robofab.fontlab.mark = 0;
};
},
{
glyphname = m;
lastChange = "2016-08-01 09:41:41 +0000";
layers = (
{
layerId = "DC0D5209-C0CE-4187-A591-293A64199C8F";
paths = (
{
closed = 1;
nodes = (
"830 289 LINE SMOOTH",
"830 450 OFFCURVE",
"779 527 OFFCURVE",
"671 527 CURVE SMOOTH",
"583 527 OFFCURVE",
"515 477 OFFCURVE",
"463 376 CURVE",
"453 468 OFFCURVE",
"392 527 OFFCURVE",
"305 527 CURVE SMOOTH",
"223 527 OFFCURVE",
"149 475 OFFCURVE",
"104 385 CURVE",
"104 519 LINE",
"84 519 LINE",
"84 0 LINE",
"104 0 LINE",
"104 328 LINE",
"134 435 OFFCURVE",
"212 507 OFFCURVE",
"309 507 CURVE SMOOTH",
"404 507 OFFCURVE",
"447 439 OFFCURVE",
"447 289 CURVE SMOOTH",
"447 0 LINE",
"467 0 LINE",
"467 327 LINE",
"495 432 OFFCURVE",
"572 507 OFFCURVE",
"671 507 CURVE SMOOTH",
"766 507 OFFCURVE",
"810 437 OFFCURVE",
"810 289 CURVE SMOOTH",
"810 0 LINE",
"830 0 LINE"
);
}
);
width = 908;
},
{
layerId = "A8272220-FCE5-4C48-BDEF-D37440F7149C";
paths = (
{
closed = 1;
nodes = (
"858 312 LINE",
"858 437 OFFCURVE",
"820 531 OFFCURVE",
"700 531 CURVE SMOOTH",
"615 531 OFFCURVE",
"547 487 OFFCURVE",
"501 404 CURVE",
"489 478 OFFCURVE",
"436 531 OFFCURVE",
"349 531 CURVE SMOOTH",
"264 531 OFFCURVE",
"193 487 OFFCURVE",
"151 410 CURVE",
"151 522 LINE",
"71 522 LINE",
"71 0 LINE",
"159 0 LINE",
"159 315 LINE",
"183 397 OFFCURVE",
"246 452 OFFCURVE",
"316 452 CURVE SMOOTH",
"385 452 OFFCURVE",
"420 403 OFFCURVE",
"420 292 CURVE SMOOTH",
"420 0 LINE",
"508 0 LINE",
"508 314 LINE",
"532 395 OFFCURVE",
"594 452 OFFCURVE",
"665 452 CURVE SMOOTH",
"734 452 OFFCURVE",
"770 401 OFFCURVE",
"770 292 CURVE SMOOTH",
"770 0 LINE",
"858 0 LINE"
);
}
);
width = 924;
},
{
layerId = "CD86D743-087E-48CD-95ED-391136C80322";
paths = (
{
closed = 1;
nodes = (
"896 346 LINE SMOOTH",
"896 418 OFFCURVE",
"879 536 OFFCURVE",
"741 536 CURVE SMOOTH",
"659 536 OFFCURVE",
"591 502 OFFCURVE",
"554 445 CURVE",
"539 492 OFFCURVE",
"498 536 OFFCURVE",
"412 536 CURVE SMOOTH",
"323 536 OFFCURVE",
"256 505 OFFCURVE",
"219 448 CURVE",
"219 526 LINE",
"48 526 LINE",
"48 0 LINE",
"238 0 LINE",
"238 295 LINE",
"254 339 OFFCURVE",
"294 370 OFFCURVE",
"324 370 CURVE SMOOTH",
"353 370 OFFCURVE",
"377 348 OFFCURVE",
"377 296 CURVE SMOOTH",
"377 0 LINE",
"567 0 LINE",
"567 295 LINE",
"583 339 OFFCURVE",
"623 370 OFFCURVE",
"653 370 CURVE SMOOTH",
"682 370 OFFCURVE",
"706 348 OFFCURVE",
"706 296 CURVE SMOOTH",
"706 0 LINE",
"896 0 LINE"
);
}
);
width = 940;
}
);
unicode = 006D;
userData = {
org.robofab.fontlab.mark = 0;
};
},
{
glyphname = n;
lastChange = "2016-08-01 09:41:41 +0000";
layers = (
{
anchors = (
{
name = bottom;
position = "{280, 0}";
},
{
name = top;
position = "{280, 519}";
}
);
layerId = "DC0D5209-C0CE-4187-A591-293A64199C8F";
paths = (
{
closed = 1;
nodes = (
"487 289 LINE SMOOTH",
"487 452 OFFCURVE",
"439 527 OFFCURVE",
"333 527 CURVE SMOOTH",
"240 527 OFFCURVE",
"147 469 OFFCURVE",
"104 385 CURVE",
"104 519 LINE",
"84 519 LINE",
"84 0 LINE",
"104 0 LINE",
"104 328 LINE",
"133 430 OFFCURVE",
"234 507 OFFCURVE",
"334 507 CURVE SMOOTH",
"427 507 OFFCURVE",
"467 440 OFFCURVE",
"467 289 CURVE SMOOTH",
"467 0 LINE",
"487 0 LINE"
);
}
);
width = 565;
},
{
anchors = (
{
name = bottom;
position = "{294, 0}";
},
{
name = top;
position = "{303, 522}";
}
);
layerId = "A8272220-FCE5-4C48-BDEF-D37440F7149C";
paths = (
{
closed = 1;
nodes = (
"524 312 LINE",
"524 438 OFFCURVE",
"489 531 OFFCURVE",
"368 531 CURVE SMOOTH",
"276 531 OFFCURVE",
"192 483 OFFCURVE",
"151 410 CURVE",
"151 522 LINE",
"71 522 LINE",
"71 0 LINE",
"159 0 LINE",
"159 315 LINE",
"183 394 OFFCURVE",
"261 452 OFFCURVE",
"333 452 CURVE SMOOTH",
"402 452 OFFCURVE",
"436 403 OFFCURVE",
"436 292 CURVE SMOOTH",
"436 0 LINE",
"524 0 LINE"
);
}
);
width = 590;
},
{
anchors = (
{
name = bottom;
position = "{311, 0}";
},
{
name = top;
position = "{333, 526}";
}
);
layerId = "CD86D743-087E-48CD-95ED-391136C80322";
paths = (
{
closed = 1;
nodes = (
"577 346 LINE SMOOTH",
"577 418 OFFCURVE",
"560 536 OFFCURVE",
"417 536 CURVE SMOOTH",
"326 536 OFFCURVE",
"256 505 OFFCURVE",
"219 448 CURVE",
"219 526 LINE",
"48 526 LINE",
"48 0 LINE",
"238 0 LINE",
"238 295 LINE",
"255 339 OFFCURVE",
"297 370 OFFCURVE",
"329 370 CURVE SMOOTH",
"360 370 OFFCURVE",
"387 348 OFFCURVE",
"387 296 CURVE SMOOTH",
"387 0 LINE",
"577 0 LINE"
);
}
);
width = 621;
}
);
unicode = 006E;
userData = {
org.robofab.fontlab.mark = 0;
};
},
{
glyphname = eng;
lastChange = "2016-08-01 09:41:41 +0000";
layers = (
{
layerId = "DC0D5209-C0CE-4187-A591-293A64199C8F";
paths = (
{
closed = 1;
nodes = (
"354 -170 CURVE SMOOTH",
"416 -170 OFFCURVE",
"487 -114 OFFCURVE",
"487 -36 CURVE SMOOTH",
"487 289 LINE SMOOTH",
"487 452 OFFCURVE",
"439 527 OFFCURVE",
"333 527 CURVE SMOOTH",
"240 527 OFFCURVE",
"147 469 OFFCURVE",
"104 385 CURVE",
"104 519 LINE",
"84 519 LINE",
"84 0 LINE",
"104 0 LINE",
"104 328 LINE",
"133 430 OFFCURVE",
"234 507 OFFCURVE",
"334 507 CURVE SMOOTH",
"427 507 OFFCURVE",
"467 440 OFFCURVE",
"467 289 CURVE SMOOTH",
"467 -36 LINE SMOOTH",
"467 -100 OFFCURVE",
"408 -150 OFFCURVE",
"353 -150 CURVE SMOOTH",
"325 -150 OFFCURVE",
"294 -145 OFFCURVE",
"270 -124 CURVE",
"254 -136 LINE",
"280 -162 OFFCURVE",
"315 -170 OFFCURVE"
);
}
);
width = 565;
},
{
layerId = "A8272220-FCE5-4C48-BDEF-D37440F7149C";
paths = (
{
closed = 1;
nodes = (
"362 -186 CURVE SMOOTH",
"447 -186 OFFCURVE",
"524 -116 OFFCURVE",
"524 -17 CURVE SMOOTH",
"524 312 LINE SMOOTH",
"524 438 OFFCURVE",
"489 531 OFFCURVE",
"368 531 CURVE SMOOTH",
"276 531 OFFCURVE",
"192 483 OFFCURVE",
"151 410 CURVE",
"151 522 LINE",
"71 522 LINE",
"71 0 LINE",
"159 0 LINE",
"159 315 LINE",
"183 394 OFFCURVE",
"261 452 OFFCURVE",
"333 452 CURVE SMOOTH",
"402 452 OFFCURVE",
"436 403 OFFCURVE",
"436 292 CURVE SMOOTH",
"436 -23 LINE SMOOTH",
"436 -72 OFFCURVE",
"395 -108 OFFCURVE",
"352 -108 CURVE SMOOTH",
"328 -108 OFFCURVE",
"302 -102 OFFCURVE",
"283 -85 CURVE",
"242 -144 LINE",
"274 -173 OFFCURVE",
"316 -186 OFFCURVE"
);
}
);
width = 590;
},
{
layerId = "CD86D743-087E-48CD-95ED-391136C80322";
paths = (
{
closed = 1;
nodes = (
"370 -209 CURVE SMOOTH",
"489 -209 OFFCURVE",
"576 -119 OFFCURVE",
"576 12 CURVE SMOOTH",
"576 346 LINE SMOOTH",
"576 418 OFFCURVE",
"561 536 OFFCURVE",
"417 536 CURVE SMOOTH",
"326 536 OFFCURVE",
"256 505 OFFCURVE",
"219 448 CURVE",
"219 526 LINE",
"48 526 LINE",
"48 0 LINE",
"238 0 LINE",
"238 295 LINE",
"255 339 OFFCURVE",
"297 370 OFFCURVE",
"329 370 CURVE SMOOTH",
"360 370 OFFCURVE",
"387 348 OFFCURVE",
"387 296 CURVE SMOOTH",
"387 -3 LINE SMOOTH",
"387 -30 OFFCURVE",
"371 -46 OFFCURVE",
"346 -46 CURVE SMOOTH",
"328 -46 OFFCURVE",
"310 -38 OFFCURVE",
"299 -26 CURVE",
"221 -155 LINE",
"262 -190 OFFCURVE",
"315 -209 OFFCURVE"
);
}
);
width = 620;
}
);
unicode = 014B;
userData = {
org.robofab.fontlab.mark = 0;
};
},
{
glyphname = o;
lastChange = "2016-08-09 18:59:34 +0000";
layers = (
{
anchors = (
{
name = bottom;
position = "{292, 0}";
},
{
name = center;
position = "{293, 260}";
},
{
name = ogonek;
position = "{527, 10}";
},
{
name = top;
position = "{293, 519}";
},
{
name = topright;
position = "{423, 481}";
}
);
layerId = "DC0D5209-C0CE-4187-A591-293A64199C8F";
paths = (
{
closed = 1;
nodes = (
"293 -10 CURVE SMOOTH",
"429 -10 OFFCURVE",
"540 113 OFFCURVE",
"540 258 CURVE SMOOTH",
"540 404 OFFCURVE",
"427 527 OFFCURVE",
"293 527 CURVE SMOOTH",
"159 527 OFFCURVE",
"46 404 OFFCURVE",
"46 258 CURVE SMOOTH",
"46 113 OFFCURVE",
"156 -10 OFFCURVE"
);
},
{
closed = 1;
nodes = (
"66 256 CURVE SMOOTH",
"66 392 OFFCURVE",
"170 507 OFFCURVE",
"293 507 CURVE SMOOTH",
"416 507 OFFCURVE",
"520 393 OFFCURVE",
"520 259 CURVE SMOOTH",
"520 124 OFFCURVE",
"416 10 OFFCURVE",
"292 10 CURVE SMOOTH",
"168 10 OFFCURVE",
"66 122 OFFCURVE"
);
}
);
width = 586;
},
{
anchors = (
{
name = bottom;
position = "{299, 0}";
},
{
name = center;
position = "{300, 261}";
},
{
name = ogonek;
position = "{539, 10}";
},
{
name = top;
position = "{299, 522}";
},
{
name = topright;
position = "{439, 458}";
}
);
layerId = "A8272220-FCE5-4C48-BDEF-D37440F7149C";
paths = (
{
closed = 1;
nodes = (
"299 -10 CURVE SMOOTH",
"456 -10 OFFCURVE",
"563 115 OFFCURVE",
"563 260 CURVE SMOOTH",
"563 406 OFFCURVE",
"455 531 OFFCURVE",
"299 531 CURVE SMOOTH",
"144 531 OFFCURVE",
"36 406 OFFCURVE",
"36 260 CURVE SMOOTH",
"36 115 OFFCURVE",
"142 -10 OFFCURVE"
);
},
{
closed = 1;
nodes = (
"126 259 CURVE SMOOTH",
"126 368 OFFCURVE",
"204 455 OFFCURVE",
"299 455 CURVE SMOOTH",
"395 455 OFFCURVE",
"473 369 OFFCURVE",
"473 261 CURVE SMOOTH",
"473 152 OFFCURVE",
"395 66 OFFCURVE",
"299 66 CURVE SMOOTH",
"203 66 OFFCURVE",
"126 150 OFFCURVE"
);
}
);
width = 599;
},
{
anchors = (
{
name = bottom;
position = "{307, 0}";
},
{
name = center;
position = "{307, 263}";
},
{
name = ogonek;
position = "{553, 10}";
},
{
name = top;
position = "{307, 526}";
},
{
name = topright;
position = "{460, 453}";
}
);
layerId = "CD86D743-087E-48CD-95ED-391136C80322";
paths = (
{
closed = 1;
nodes = (
"307 -10 CURVE SMOOTH",
"495 -10 OFFCURVE",
"595 119 OFFCURVE",
"595 263 CURVE SMOOTH",
"595 408 OFFCURVE",
"495 536 OFFCURVE",
"307 536 CURVE SMOOTH",
"119 536 OFFCURVE",
"19 408 OFFCURVE",
"19 263 CURVE SMOOTH",
"19 119 OFFCURVE",
"119 -10 OFFCURVE"
);
},
{
closed = 1;
nodes = (
"214 263 CURVE SMOOTH",
"214 333 OFFCURVE",
"253 376 OFFCURVE",
"307 376 CURVE SMOOTH",
"361 376 OFFCURVE",
"400 333 OFFCURVE",
"400 263 CURVE SMOOTH",
"400 193 OFFCURVE",
"361 150 OFFCURVE",
"307 150 CURVE SMOOTH",
"253 150 OFFCURVE",
"214 193 OFFCURVE"
);
}
);
width = 614;
}
);
unicode = 006F;
userData = {
org.robofab.fontlab.mark = 0;
};
},
{
glyphname = oslash;
lastChange = "2016-08-01 09:41:41 +0000";
layers = (
{
layerId = "DC0D5209-C0CE-4187-A591-293A64199C8F";
paths = (
{
closed = 1;
nodes = (
"293 -10 CURVE SMOOTH",
"429 -10 OFFCURVE",
"540 113 OFFCURVE",
"540 258 CURVE SMOOTH",
"540 404 OFFCURVE",
"427 527 OFFCURVE",
"293 527 CURVE SMOOTH",
"159 527 OFFCURVE",
"46 404 OFFCURVE",
"46 258 CURVE SMOOTH",
"46 113 OFFCURVE",
"156 -10 OFFCURVE"
);
},
{
closed = 1;
nodes = (
"292 10 CURVE SMOOTH",
"168 10 OFFCURVE",
"66 122 OFFCURVE",
"66 256 CURVE SMOOTH",
"66 392 OFFCURVE",
"170 507 OFFCURVE",
"293 507 CURVE SMOOTH",
"416 507 OFFCURVE",
"520 393 OFFCURVE",
"520 259 CURVE SMOOTH",
"520 124 OFFCURVE",
"416 10 OFFCURVE"
);
},
{
closed = 1;
nodes = (
"148 0 LINE",
"171 38 LINE",
"154 51 LINE",
"123 0 LINE"
);
},
{
closed = 1;
nodes = (
"171 38 LINE",
"434 466 LINE",
"416 479 LINE",
"154 51 LINE"
);
},
{
closed = 1;
nodes = (
"434 466 LINE",
"466 519 LINE",
"440 519 LINE",
"416 479 LINE"
);
}
);
width = 586;
},
{
layerId = "A8272220-FCE5-4C48-BDEF-D37440F7149C";
paths = (
{
closed = 1;
nodes = (
"299 -10 CURVE SMOOTH",
"456 -10 OFFCURVE",
"563 115 OFFCURVE",
"563 260 CURVE SMOOTH",
"563 406 OFFCURVE",
"455 531 OFFCURVE",
"299 531 CURVE SMOOTH",
"144 531 OFFCURVE",
"36 406 OFFCURVE",
"36 260 CURVE SMOOTH",
"36 115 OFFCURVE",
"142 -10 OFFCURVE"
);
},
{
closed = 1;
nodes = (
"299 66 CURVE SMOOTH",
"203 66 OFFCURVE",
"126 150 OFFCURVE",
"126 259 CURVE SMOOTH",
"126 368 OFFCURVE",
"204 455 OFFCURVE",
"299 455 CURVE SMOOTH",
"395 455 OFFCURVE",
"473 369 OFFCURVE",
"473 261 CURVE SMOOTH",
"473 152 OFFCURVE",
"395 66 OFFCURVE"
);
},
{
closed = 1;
nodes = (
"135 -2 LINE",
"188 64 LINE",
"157 94 LINE",
"80 -2 LINE"
);
},
{
closed = 1;
nodes = (
"192 71 LINE",
"442 432 LINE",
"408 455 LINE",
"163 98 LINE"
);
},
{
closed = 1;
nodes = (
"448 437 LINE",
"517 524 LINE",
"461 524 LINE",
"412 461 LINE"
);
}
);
width = 599;
},
{
layerId = "CD86D743-087E-48CD-95ED-391136C80322";
paths = (
{
closed = 1;
nodes = (
"307 -10 CURVE SMOOTH",
"495 -10 OFFCURVE",
"595 119 OFFCURVE",
"595 263 CURVE SMOOTH",
"595 408 OFFCURVE",
"495 536 OFFCURVE",
"307 536 CURVE SMOOTH",
"119 536 OFFCURVE",
"19 408 OFFCURVE",
"19 263 CURVE SMOOTH",
"19 119 OFFCURVE",
"119 -10 OFFCURVE"
);
},
{
closed = 1;
nodes = (
"307 150 CURVE SMOOTH",
"253 150 OFFCURVE",
"214 193 OFFCURVE",
"214 263 CURVE SMOOTH",
"214 333 OFFCURVE",
"253 376 OFFCURVE",
"307 376 CURVE SMOOTH",
"361 376 OFFCURVE",
"400 333 OFFCURVE",
"400 263 CURVE SMOOTH",
"400 193 OFFCURVE",
"361 150 OFFCURVE"
);
},
{
closed = 1;
nodes = (
"114 -6 LINE",
"211 104 LINE",
"159 158 LINE",
"14 -6 LINE"
);
},
{
closed = 1;
nodes = (
"221 121 LINE",
"452 381 LINE",
"395 418 LINE",
"174 169 LINE"
);
},
{
closed = 1;
nodes = (
"467 393 LINE",
"591 532 LINE",
"490 532 LINE",
"404 435 LINE"
);
}
);
width = 614;
}
);
unicode = 00F8;
userData = {
org.robofab.fontlab.mark = 0;
};
},
{
glyphname = oe;
lastChange = "2016-08-09 17:05:59 +0000";
layers = (
{
layerId = "DC0D5209-C0CE-4187-A591-293A64199C8F";
paths = (
{
closed = 1;
nodes = (
"291 -10 CURVE SMOOTH",
"402 -10 OFFCURVE",
"498 68 OFFCURVE",
"530 185 CURVE",
"562 72 OFFCURVE",
"667 -10 OFFCURVE",
"779 -10 CURVE SMOOTH",
"868 -10 OFFCURVE",
"956 42 OFFCURVE",
"986 114 CURVE",
"967 119 LINE",
"941 55 OFFCURVE",
"864 10 OFFCURVE",
"781 10 CURVE SMOOTH",
"655 10 OFFCURVE",
"550 115 OFFCURVE",
"540 248 CURVE",
"1015 248 LINE",
"1015 252 OFFCURVE",
"1014 255 OFFCURVE",
"1014 259 CURVE SMOOTH",
"999 424 OFFCURVE",
"904 527 OFFCURVE",
"766 527 CURVE SMOOTH",
"648 527 OFFCURVE",
"556 452 OFFCURVE",
"528 332 CURVE",
"499 449 OFFCURVE",
"405 527 OFFCURVE",
"295 527 CURVE SMOOTH",
"157 527 OFFCURVE",
"46 406 OFFCURVE",
"46 257 CURVE SMOOTH",
"46 109 OFFCURVE",
"155 -10 OFFCURVE"
);
},
{
closed = 1;
nodes = (
"292 10 CURVE SMOOTH",
"167 10 OFFCURVE",
"66 119 OFFCURVE",
"66 255 CURVE SMOOTH",
"66 393 OFFCURVE",
"169 507 OFFCURVE",
"294 507 CURVE SMOOTH",
"418 507 OFFCURVE",
"520 395 OFFCURVE",
"520 258 CURVE SMOOTH",
"520 121 OFFCURVE",
"418 10 OFFCURVE"
);
},
{
closed = 1;
nodes = (
"540 268 LINE",
"547 405 OFFCURVE",
"643 507 OFFCURVE",
"766 507 CURVE SMOOTH",
"889 507 OFFCURVE",
"985 407 OFFCURVE",
"994 268 CURVE"
);
}
);
width = 1050;
},
{
layerId = "A8272220-FCE5-4C48-BDEF-D37440F7149C";
paths = (
{
closed = 1;
nodes = (
"298 -10 CURVE SMOOTH",
"392 -10 OFFCURVE",
"469 45 OFFCURVE",
"518 139 CURVE",
"567 48 OFFCURVE",
"650 -10 OFFCURVE",
"745 -10 CURVE SMOOTH",
"845 -10 OFFCURVE",
"937 43 OFFCURVE",
"973 122 CURVE",
"899 143 LINE",
"879 91 OFFCURVE",
"816 55 OFFCURVE",
"749 55 CURVE SMOOTH",
"653 55 OFFCURVE",
"574 132 OFFCURVE",
"566 231 CURVE",
"999 231 LINE",
"1000 237 OFFCURVE",
"1000 253 OFFCURVE",
"1000 261 CURVE SMOOTH",
"991 423 OFFCURVE",
"887 531 OFFCURVE",
"738 531 CURVE SMOOTH",
"636 531 OFFCURVE",
"558 476 OFFCURVE",
"517 379 CURVE",
"478 473 OFFCURVE",
"397 531 OFFCURVE",
"299 531 CURVE SMOOTH",
"150 531 OFFCURVE",
"36 413 OFFCURVE",
"36 259 CURVE SMOOTH",
"36 107 OFFCURVE",
"149 -10 OFFCURVE"
);
},
{
closed = 1;
nodes = (
"299 66 CURVE SMOOTH",
"202 66 OFFCURVE",
"126 149 OFFCURVE",
"126 258 CURVE SMOOTH",
"126 368 OFFCURVE",
"203 455 OFFCURVE",
"300 455 CURVE SMOOTH",
"397 455 OFFCURVE",
"473 369 OFFCURVE",
"473 260 CURVE SMOOTH",
"473 151 OFFCURVE",
"397 66 OFFCURVE"
);
},
{
closed = 1;
nodes = (
"564 288 LINE",
"570 391 OFFCURVE",
"642 465 OFFCURVE",
"736 465 CURVE SMOOTH",
"829 465 OFFCURVE",
"908 392 OFFCURVE",
"915 288 CURVE"
);
}
);
width = 1028;
},
{
layerId = "CD86D743-087E-48CD-95ED-391136C80322";
paths = (
{
closed = 1;
nodes = (
"305 -10 CURVE SMOOTH",
"375 -10 OFFCURVE",
"423 10 OFFCURVE",
"497 70 CURVE",
"571 11 OFFCURVE",
"621 -10 OFFCURVE",
"692 -10 CURVE SMOOTH",
"807 -10 OFFCURVE",
"905 44 OFFCURVE",
"951 133 CURVE",
"795 179 LINE",
"782 146 OFFCURVE",
"741 122 OFFCURVE",
"698 122 CURVE SMOOTH",
"646 122 OFFCURVE",
"606 157 OFFCURVE",
"603 205 CURVE",
"972 205 LINE",
"975 221 OFFCURVE",
"977 243 OFFCURVE",
"977 263 CURVE SMOOTH",
"977 422 OFFCURVE",
"859 536 OFFCURVE",
"693 536 CURVE SMOOTH",
"616 536 OFFCURVE",
"559 511 OFFCURVE",
"497 450 CURVE",
"443 509 OFFCURVE",
"383 536 OFFCURVE",
"303 536 CURVE SMOOTH",
"137 536 OFFCURVE",
"19 423 OFFCURVE",
"19 263 CURVE SMOOTH",
"19 103 OFFCURVE",
"137 -10 OFFCURVE"
);
},
{
closed = 1;
nodes = (
"307 150 CURVE SMOOTH",
"251 150 OFFCURVE",
"214 195 OFFCURVE",
"214 263 CURVE SMOOTH",
"214 331 OFFCURVE",
"251 376 OFFCURVE",
"307 376 CURVE SMOOTH",
"363 376 OFFCURVE",
"400 331 OFFCURVE",
"400 263 CURVE SMOOTH",
"400 195 OFFCURVE",
"363 150 OFFCURVE"
);
},
{
closed = 1;
nodes = (
"597 319 LINE",
"602 369 OFFCURVE",
"637 401 OFFCURVE",
"687 401 CURVE SMOOTH",
"736 401 OFFCURVE",
"771 369 OFFCURVE",
"777 319 CURVE"
);
}
);
width = 991;
}
);
unicode = 0153;
userData = {
org.robofab.fontlab.mark = 0;
};
},
{
glyphname = p;
lastChange = "2016-08-01 09:41:41 +0000";
layers = (
{
layerId = "DC0D5209-C0CE-4187-A591-293A64199C8F";
paths = (
{
closed = 1;
nodes = (
"316 -10 CURVE SMOOTH",
"461 -10 OFFCURVE",
"557 116 OFFCURVE",
"557 258 CURVE SMOOTH",
"557 391 OFFCURVE",
"453 527 OFFCURVE",
"307 527 CURVE SMOOTH",
"228 527 OFFCURVE",
"148 478 OFFCURVE",
"104 409 CURVE",
"104 519 LINE",
"84 519 LINE",
"84 -213 LINE",
"104 -213 LINE",
"104 119 LINE",
"149 49 OFFCURVE",
"224 -10 OFFCURVE"
);
},
{
closed = 1;
nodes = (
"316 10 CURVE SMOOTH",
"224 10 OFFCURVE",
"141 77 OFFCURVE",
"104 161 CURVE",
"104 348 LINE",
"109 431 OFFCURVE",
"227 507 OFFCURVE",
"307 507 CURVE SMOOTH",
"435 507 OFFCURVE",
"537 388 OFFCURVE",
"537 258 CURVE SMOOTH",
"537 135 OFFCURVE",
"451 10 OFFCURVE"
);
}
);
width = 603;
},
{
layerId = "A8272220-FCE5-4C48-BDEF-D37440F7149C";
paths = (
{
closed = 1;
nodes = (
"352 -10 CURVE SMOOTH",
"490 -10 OFFCURVE",
"586 112 OFFCURVE",
"586 261 CURVE SMOOTH",
"586 403 OFFCURVE",
"482 531 OFFCURVE",
"339 531 CURVE SMOOTH",
"260 531 OFFCURVE",
"190 488 OFFCURVE",
"149 424 CURVE",
"149 522 LINE",
"71 522 LINE",
"71 -213 LINE",
"159 -213 LINE",
"159 103 LINE",
"198 38 OFFCURVE",
"266 -10 OFFCURVE"
);
},
{
closed = 1;
nodes = (
"325 66 CURVE SMOOTH",
"254 66 OFFCURVE",
"188 120 OFFCURVE",
"159 189 CURVE",
"159 338 LINE",
"172 402 OFFCURVE",
"254 455 OFFCURVE",
"317 455 CURVE SMOOTH",
"418 455 OFFCURVE",
"496 366 OFFCURVE",
"496 261 CURVE SMOOTH",
"496 162 OFFCURVE",
"428 66 OFFCURVE"
);
}
);
width = 623;
},
{
layerId = "CD86D743-087E-48CD-95ED-391136C80322";
paths = (
{
closed = 1;
nodes = (
"402 -10 CURVE SMOOTH",
"531 -10 OFFCURVE",
"626 107 OFFCURVE",
"626 265 CURVE SMOOTH",
"626 421 OFFCURVE",
"523 536 OFFCURVE",
"383 536 CURVE SMOOTH",
"304 536 OFFCURVE",
"250 504 OFFCURVE",
"213 447 CURVE",
"213 526 LINE",
"48 526 LINE",
"48 -213 LINE",
"238 -213 LINE",
"238 78 LINE",
"268 21 OFFCURVE",
"326 -10 OFFCURVE"
);
},
{
closed = 1;
nodes = (
"336 150 CURVE SMOOTH",
"296 150 OFFCURVE",
"256 185 OFFCURVE",
"238 231 CURVE",
"238 322 LINE",
"263 358 OFFCURVE",
"292 376 OFFCURVE",
"328 376 CURVE SMOOTH",
"390 376 OFFCURVE",
"432 332 OFFCURVE",
"432 266 CURVE SMOOTH",
"432 202 OFFCURVE",
"391 150 OFFCURVE"
);
}
);
width = 647;
}
);
unicode = 0070;
userData = {
org.robofab.fontlab.mark = 0;
};
},
{
glyphname = thorn;
lastChange = "2016-08-01 09:41:41 +0000";
layers = (
{
layerId = "DC0D5209-C0CE-4187-A591-293A64199C8F";
paths = (
{
closed = 1;
nodes = (
"557 258 CURVE",
"557 386 OFFCURVE",
"468 527 OFFCURVE",
"316 527 CURVE SMOOTH",
"225 527 OFFCURVE",
"157 473 OFFCURVE",
"104 398 CURVE",
"104 710 LINE",
"84 710 LINE",
"84 -213 LINE",
"104 -213 LINE",
"104 108 LINE",
"145 42 OFFCURVE",
"225 -10 OFFCURVE",
"307 -10 CURVE SMOOTH",
"448 -10 OFFCURVE",
"553 117 OFFCURVE"
);
},
{
closed = 1;
nodes = (
"537 258 CURVE SMOOTH",
"537 135 OFFCURVE",
"441 10 OFFCURVE",
"307 10 CURVE SMOOTH",
"226 10 OFFCURVE",
"104 84 OFFCURVE",
"104 169 CURVE SMOOTH",
"104 356 LINE",
"143 435 OFFCURVE",
"217 507 OFFCURVE",
"316 507 CURVE SMOOTH",
"447 507 OFFCURVE",
"537 386 OFFCURVE"
);
}
);
width = 603;
},
{
layerId = "A8272220-FCE5-4C48-BDEF-D37440F7149C";
paths = (
{
closed = 1;
nodes = (
"568 257 CURVE",
"568 389 OFFCURVE",
"473 534 OFFCURVE",
"319 534 CURVE SMOOTH",
"241 534 OFFCURVE",
"193 494 OFFCURVE",
"161 449 CURVE",
"161 710 LINE",
"71 710 LINE",
"71 -213 LINE",
"161 -213 LINE",
"161 60 LINE",
"186 19 OFFCURVE",
"241 -18 OFFCURVE",
"310 -18 CURVE SMOOTH",
"453 -18 OFFCURVE",
"566 112 OFFCURVE"
);
},
{
closed = 1;
nodes = (
"478 258 CURVE SMOOTH",
"478 156 OFFCURVE",
"407 62 OFFCURVE",
"308 62 CURVE SMOOTH",
"245 62 OFFCURVE",
"161 117 OFFCURVE",
"161 173 CURVE SMOOTH",
"161 344 LINE",
"191 403 OFFCURVE",
"242 454 OFFCURVE",
"314 454 CURVE SMOOTH",
"413 454 OFFCURVE",
"478 361 OFFCURVE"
);
}
);
width = 603;
},
{
layerId = "CD86D743-087E-48CD-95ED-391136C80322";
paths = (
{
closed = 1;
nodes = (
"581 255 CURVE SMOOTH",
"581 393 OFFCURVE",
"478 544 OFFCURVE",
"319 544 CURVE SMOOTH",
"262 544 OFFCURVE",
"243 525 OFFCURVE",
"243 525 CURVE",
"243 710 LINE",
"48 710 LINE",
"48 -213 LINE",
"243 -213 LINE",
"243 -13 LINE",
"243 -15 OFFCURVE",
"262 -31 OFFCURVE",
"312 -31 CURVE SMOOTH",
"457 -31 OFFCURVE",
"581 104 OFFCURVE"
);
},
{
closed = 1;
nodes = (
"386 259 CURVE SMOOTH",
"386 187 OFFCURVE",
"352 139 OFFCURVE",
"305 139 CURVE SMOOTH",
"270 139 OFFCURVE",
"243 166 OFFCURVE",
"243 179 CURVE",
"243 327 LINE",
"259 356 OFFCURVE",
"276 374 OFFCURVE",
"307 374 CURVE SMOOTH",
"359 374 OFFCURVE",
"386 323 OFFCURVE"
);
}
);
width = 599;
}
);
unicode = 00FE;
userData = {
org.robofab.fontlab.mark = 0;
};
},
{
glyphname = q;
lastChange = "2016-08-01 09:41:41 +0000";
layers = (
{
layerId = "DC0D5209-C0CE-4187-A591-293A64199C8F";
paths = (
{
closed = 1;
nodes = (
"287 -10 CURVE SMOOTH",
"368 -10 OFFCURVE",
"441 35 OFFCURVE",
"499 119 CURVE",
"499 -173 LINE SMOOTH",
"499 -189 OFFCURVE",
"507 -205 OFFCURVE",
"521 -211 CURVE SMOOTH",
"525 -213 OFFCURVE",
"530 -213 OFFCURVE",
"535 -213 CURVE",
"535 -193 LINE",
"524 -193 OFFCURVE",
"519 -185 OFFCURVE",
"519 -173 CURVE SMOOTH",
"519 519 LINE",
"499 519 LINE",
"499 409 LINE",
"458 475 OFFCURVE",
"378 527 OFFCURVE",
"296 527 CURVE SMOOTH",
"157 527 OFFCURVE",
"46 399 OFFCURVE",
"46 258 CURVE SMOOTH",
"46 123 OFFCURVE",
"141 -10 OFFCURVE"
);
},
{
closed = 1;
nodes = (
"287 10 CURVE SMOOTH",
"159 10 OFFCURVE",
"66 127 OFFCURVE",
"66 258 CURVE SMOOTH",
"66 381 OFFCURVE",
"161 507 OFFCURVE",
"296 507 CURVE SMOOTH",
"384 507 OFFCURVE",
"490 431 OFFCURVE",
"499 348 CURVE",
"499 161 LINE",
"459 82 OFFCURVE",
"386 10 OFFCURVE"
);
}
);
width = 603;
},
{
layerId = "A8272220-FCE5-4C48-BDEF-D37440F7149C";
paths = (
{
closed = 1;
nodes = (
"271 -10 CURVE SMOOTH",
"350 -10 OFFCURVE",
"417 29 OFFCURVE",
"464 103 CURVE",
"464 -142 LINE SMOOTH",
"464 -180 OFFCURVE",
"496 -212 OFFCURVE",
"533 -212 CURVE SMOOTH",
"547 -212 OFFCURVE",
"564 -211 OFFCURVE",
"580 -209 CURVE",
"580 -133 LINE",
"560 -132 OFFCURVE",
"552 -123 OFFCURVE",
"552 -101 CURVE SMOOTH",
"552 522 LINE",
"474 522 LINE",
"474 423 LINE",
"435 486 OFFCURVE",
"365 531 OFFCURVE",
"284 531 CURVE SMOOTH",
"145 531 OFFCURVE",
"37 408 OFFCURVE",
"37 261 CURVE SMOOTH",
"37 117 OFFCURVE",
"132 -10 OFFCURVE"
);
},
{
closed = 1;
nodes = (
"301 66 CURVE SMOOTH",
"199 66 OFFCURVE",
"127 154 OFFCURVE",
"127 259 CURVE SMOOTH",
"127 358 OFFCURVE",
"200 455 OFFCURVE",
"303 455 CURVE SMOOTH",
"372 455 OFFCURVE",
"452 396 OFFCURVE",
"464 328 CURVE",
"464 178 LINE",
"430 116 OFFCURVE",
"375 66 OFFCURVE"
);
}
);
width = 623;
},
{
layerId = "CD86D743-087E-48CD-95ED-391136C80322";
paths = (
{
closed = 1;
nodes = (
"245 -10 CURVE SMOOTH",
"321 -10 OFFCURVE",
"379 21 OFFCURVE",
"409 78 CURVE",
"409 -96 LINE SMOOTH",
"409 -167 OFFCURVE",
"469 -213 OFFCURVE",
"540 -213 CURVE SMOOTH",
"569 -213 OFFCURVE",
"612 -209 OFFCURVE",
"645 -203 CURVE",
"645 -43 LINE",
"610 -41 OFFCURVE",
"599 -29 OFFCURVE",
"599 7 CURVE SMOOTH",
"599 526 LINE",
"434 526 LINE",
"434 445 LINE",
"397 502 OFFCURVE",
"343 536 OFFCURVE",
"264 536 CURVE SMOOTH",
"124 536 OFFCURVE",
"21 421 OFFCURVE",
"21 265 CURVE SMOOTH",
"21 107 OFFCURVE",
"116 -10 OFFCURVE"
);
},
{
closed = 1;
nodes = (
"319 150 CURVE SMOOTH",
"257 150 OFFCURVE",
"215 194 OFFCURVE",
"215 260 CURVE SMOOTH",
"215 324 OFFCURVE",
"256 376 OFFCURVE",
"311 376 CURVE SMOOTH",
"351 376 OFFCURVE",
"391 344 OFFCURVE",
"409 298 CURVE",
"409 204 LINE",
"384 168 OFFCURVE",
"355 150 OFFCURVE"
);
}
);
width = 647;
}
);
unicode = 0071;
userData = {
org.robofab.fontlab.mark = 0;
};
},
{
glyphname = r;
lastChange = "2016-08-01 09:41:41 +0000";
layers = (
{
anchors = (
{
name = bottom;
position = "{94, 0}";
},
{
name = top;
position = "{176, 519}";
}
);
layerId = "DC0D5209-C0CE-4187-A591-293A64199C8F";
paths = (
{
closed = 1;
nodes = (
"306 519 LINE",
"298 519 OFFCURVE",
"286 518 OFFCURVE",
"273 517 CURVE SMOOTH",
"205 509 OFFCURVE",
"140 458 OFFCURVE",
"104 385 CURVE",
"104 519 LINE",
"84 519 LINE",
"84 0 LINE",
"104 0 LINE",
"104 328 LINE",
"132 431 OFFCURVE",
"208 495 OFFCURVE",
"306 499 CURVE"
);
}
);
width = 323;
},
{
anchors = (
{
name = bottom;
position = "{112, 0}";
},
{
name = top;
position = "{211, 522}";
}
);
layerId = "A8272220-FCE5-4C48-BDEF-D37440F7149C";
paths = (
{
closed = 1;
nodes = (
"347 525 LINE",
"340 526 OFFCURVE",
"331 526 OFFCURVE",
"318 526 CURVE SMOOTH",
"252 521 OFFCURVE",
"189 473 OFFCURVE",
"153 401 CURVE",
"153 522 LINE",
"71 522 LINE",
"71 0 LINE",
"159 0 LINE",
"159 322 LINE",
"187 398 OFFCURVE",
"259 443 OFFCURVE",
"347 445 CURVE"
);
}
);
width = 363;
},
{
anchors = (
{
name = bottom;
position = "{136, 0}";
},
{
name = top;
position = "{259, 526}";
}
);
layerId = "CD86D743-087E-48CD-95ED-391136C80322";
paths = (
{
closed = 1;
nodes = (
"405 535 LINE",
"400 536 OFFCURVE",
"395 536 OFFCURVE",
"381 536 CURVE SMOOTH",
"318 536 OFFCURVE",
"259 496 OFFCURVE",
"222 426 CURVE",
"222 526 LINE",
"48 526 LINE",
"48 0 LINE",
"238 0 LINE",
"238 312 LINE",
"267 349 OFFCURVE",
"332 364 OFFCURVE",
"405 364 CURVE"
);
}
);
width = 416;
}
);
unicode = 0072;
userData = {
org.robofab.fontlab.mark = 0;
};
},
{
glyphname = s;
lastChange = "2016-08-01 09:41:41 +0000";
layers = (
{
anchors = (
{
name = bottom;
position = "{235, 0}";
},
{
name = top;
position = "{240, 519}";
}
);
layerId = "DC0D5209-C0CE-4187-A591-293A64199C8F";
paths = (
{
closed = 1;
nodes = (
"235 -10 CURVE SMOOTH",
"351 -10 OFFCURVE",
"428 48 OFFCURVE",
"428 139 CURVE SMOOTH",
"428 229 OFFCURVE",
"352 248 OFFCURVE",
"228 277 CURVE SMOOTH",
"126 301 OFFCURVE",
"81 314 OFFCURVE",
"81 383 CURVE SMOOTH",
"81 470 OFFCURVE",
"154 507 OFFCURVE",
"240 507 CURVE SMOOTH",
"306 507 OFFCURVE",
"370 485 OFFCURVE",
"395 444 CURVE",
"413 452 LINE",
"390 495 OFFCURVE",
"328 527 OFFCURVE",
"244 527 CURVE SMOOTH",
"146 527 OFFCURVE",
"61 483 OFFCURVE",
"61 380 CURVE SMOOTH",
"61 297 OFFCURVE",
"116 283 OFFCURVE",
"227 257 CURVE SMOOTH",
"343 230 OFFCURVE",
"408 211 OFFCURVE",
"408 136 CURVE SMOOTH",
"408 57 OFFCURVE",
"337 10 OFFCURVE",
"235 10 CURVE SMOOTH",
"161 10 OFFCURVE",
"105 35 OFFCURVE",
"52 87 CURVE",
"37 74 LINE",
"89 17 OFFCURVE",
"156 -10 OFFCURVE"
);
}
);
width = 471;
},
{
anchors = (
{
name = bottom;
position = "{254, 0}";
},
{
name = top;
position = "{248, 522}";
}
);
layerId = "A8272220-FCE5-4C48-BDEF-D37440F7149C";
paths = (
{
closed = 1;
nodes = (
"254 -10 CURVE SMOOTH",
"380 -10 OFFCURVE",
"461 52 OFFCURVE",
"461 149 CURVE SMOOTH",
"461 238 OFFCURVE",
"395 266 OFFCURVE",
"256 299 CURVE SMOOTH",
"167 321 OFFCURVE",
"133 332 OFFCURVE",
"133 381 CURVE SMOOTH",
"133 441 OFFCURVE",
"184 467 OFFCURVE",
"248 467 CURVE SMOOTH",
"305 467 OFFCURVE",
"362 448 OFFCURVE",
"406 409 CURVE",
"446 462 LINE",
"399 503 OFFCURVE",
"328 531 OFFCURVE",
"250 531 CURVE SMOOTH",
"139 531 OFFCURVE",
"50 474 OFFCURVE",
"50 369 CURVE SMOOTH",
"50 287 OFFCURVE",
"103 263 OFFCURVE",
"229 232 CURVE SMOOTH",
"329 208 OFFCURVE",
"376 193 OFFCURVE",
"376 141 CURVE SMOOTH",
"376 87 OFFCURVE",
"327 55 OFFCURVE",
"252 55 CURVE SMOOTH",
"185 55 OFFCURVE",
"124 79 OFFCURVE",
"63 125 CURVE",
"25 66 LINE",
"83 17 OFFCURVE",
"171 -10 OFFCURVE"
);
}
);
width = 494;
},
{
anchors = (
{
name = bottom;
position = "{265, 0}";
},
{
name = top;
position = "{242, 526}";
}
);
layerId = "CD86D743-087E-48CD-95ED-391136C80322";
paths = (
{
closed = 1;
nodes = (
"265 -10 CURVE SMOOTH",
"400 -10 OFFCURVE",
"484 57 OFFCURVE",
"484 165 CURVE SMOOTH",
"484 251 OFFCURVE",
"435 292 OFFCURVE",
"282 333 CURVE SMOOTH",
"220 349 OFFCURVE",
"203 359 OFFCURVE",
"203 379 CURVE SMOOTH",
"203 397 OFFCURVE",
"219 406 OFFCURVE",
"242 406 CURVE SMOOTH",
"281 406 OFFCURVE",
"321 389 OFFCURVE",
"386 347 CURVE",
"458 461 LINE",
"387 522 OFFCURVE",
"320 537 OFFCURVE",
"242 537 CURVE SMOOTH",
"117 537 OFFCURVE",
"27 460 OFFCURVE",
"27 352 CURVE SMOOTH",
"27 273 OFFCURVE",
"77 238 OFFCURVE",
"225 195 CURVE SMOOTH",
"284 178 OFFCURVE",
"301 166 OFFCURVE",
"301 148 CURVE SMOOTH",
"301 131 OFFCURVE",
"288 123 OFFCURVE",
"261 123 CURVE SMOOTH",
"210 123 OFFCURVE",
"148 148 OFFCURVE",
"83 192 CURVE",
"18 78 LINE",
"79 21 OFFCURVE",
"174 -10 OFFCURVE"
);
}
);
width = 501;
}
);
unicode = 0073;
userData = {
org.robofab.fontlab.mark = 0;
};
},
{
glyphname = germandbls;
lastChange = "2016-08-01 09:41:41 +0000";
layers = (
{
layerId = "DC0D5209-C0CE-4187-A591-293A64199C8F";
paths = (
{
closed = 1;
nodes = (
"230 -6 LINE",
"405 0 OFFCURVE",
"500 74 OFFCURVE",
"500 203 CURVE SMOOTH",
"500 308 OFFCURVE",
"438 381 OFFCURVE",
"328 404 CURVE",
"395 417 OFFCURVE",
"448 484 OFFCURVE",
"448 557 CURVE SMOOTH",
"448 646 OFFCURVE",
"370 714 OFFCURVE",
"268 714 CURVE SMOOTH",
"159 714 OFFCURVE",
"84 632 OFFCURVE",
"84 509 CURVE SMOOTH",
"84 0 LINE",
"104 0 LINE",
"104 509 LINE SMOOTH",
"104 621 OFFCURVE",
"168 694 OFFCURVE",
"267 694 CURVE SMOOTH",
"358 694 OFFCURVE",
"428 633 OFFCURVE",
"428 552 CURVE SMOOTH",
"428 473 OFFCURVE",
"362 413 OFFCURVE",
"274 413 CURVE SMOOTH",
"258 413 LINE",
"258 393 LINE",
"275 393 LINE SMOOTH",
"397 393 OFFCURVE",
"480 316 OFFCURVE",
"480 202 CURVE SMOOTH",
"480 84 OFFCURVE",
"390 16 OFFCURVE",
"230 13 CURVE"
);
}
);
width = 546;
},
{
layerId = "A8272220-FCE5-4C48-BDEF-D37440F7149C";
paths = (
{
closed = 1;
nodes = (
"241 -6 LINE",
"402 -1 OFFCURVE",
"518 71 OFFCURVE",
"518 208 CURVE SMOOTH",
"518 303 OFFCURVE",
"462 382 OFFCURVE",
"367 402 CURVE",
"422 417 OFFCURVE",
"467 482 OFFCURVE",
"467 553 CURVE SMOOTH",
"467 649 OFFCURVE",
"385 714 OFFCURVE",
"278 714 CURVE SMOOTH",
"158 714 OFFCURVE",
"71 633 OFFCURVE",
"71 517 CURVE SMOOTH",
"71 0 LINE",
"155 0 LINE",
"155 503 LINE SMOOTH",
"155 574 OFFCURVE",
"192 638 OFFCURVE",
"275 638 CURVE SMOOTH",
"332 638 OFFCURVE",
"383 607 OFFCURVE",
"383 540 CURVE SMOOTH",
"383 478 OFFCURVE",
"339 437 OFFCURVE",
"275 437 CURVE SMOOTH",
"257 437 LINE",
"257 357 LINE",
"276 357 LINE SMOOTH",
"366 357 OFFCURVE",
"427 301 OFFCURVE",
"427 215 CURVE SMOOTH",
"427 118 OFFCURVE",
"350 77 OFFCURVE",
"241 75 CURVE"
);
}
);
width = 553;
},
{
layerId = "CD86D743-087E-48CD-95ED-391136C80322";
paths = (
{
closed = 1;
nodes = (
"254 -6 LINE",
"389 -6 OFFCURVE",
"544 40 OFFCURVE",
"544 213 CURVE SMOOTH",
"544 309 OFFCURVE",
"496 374 OFFCURVE",
"421 403 CURVE",
"458 422 OFFCURVE",
"492 479 OFFCURVE",
"492 546 CURVE SMOOTH",
"492 653 OFFCURVE",
"406 714 OFFCURVE",
"288 714 CURVE SMOOTH",
"153 714 OFFCURVE",
"48 635 OFFCURVE",
"48 529 CURVE SMOOTH",
"48 0 LINE",
"228 0 LINE",
"228 494 LINE SMOOTH",
"228 507 OFFCURVE",
"228 554 OFFCURVE",
"269 554 CURVE SMOOTH",
"271 554 OFFCURVE",
"312 554 OFFCURVE",
"312 512 CURVE SMOOTH",
"312 490 OFFCURVE",
"301 473 OFFCURVE",
"273 473 CURVE SMOOTH",
"252 473 LINE",
"252 303 LINE",
"275 303 LINE SMOOTH",
"298 303 OFFCURVE",
"344 285 OFFCURVE",
"344 237 CURVE SMOOTH",
"344 192 OFFCURVE",
"303 168 OFFCURVE",
"254 168 CURVE"
);
}
);
width = 563;
}
);
unicode = 00DF;
userData = {
org.robofab.fontlab.mark = 0;
};
},
{
glyphname = schwa;
lastChange = "2016-08-09 17:08:54 +0000";
layers = (
{
layerId = "DC0D5209-C0CE-4187-A591-293A64199C8F";
paths = (
{
closed = 1;
nodes = (
"36 109 OFFCURVE",
"147 -10 OFFCURVE",
"285 -10 CURVE SMOOTH",
"421 -10 OFFCURVE",
"530 108 OFFCURVE",
"530 254 CURVE SMOOTH",
"530 403 OFFCURVE",
"417 527 OFFCURVE",
"280 527 CURVE SMOOTH",
"190 527 OFFCURVE",
"102 474 OFFCURVE",
"74 403 CURVE",
"93 398 LINE",
"122 462 OFFCURVE",
"199 507 OFFCURVE",
"279 507 CURVE SMOOTH",
"400 507 OFFCURVE",
"500 403 OFFCURVE",
"510 269 CURVE",
"35 269 LINE",
"35 265 OFFCURVE",
"35 262 OFFCURVE",
"35 258 CURVE"
);
},
{
closed = 1;
nodes = (
"503 112 OFFCURVE",
"407 10 OFFCURVE",
"284 10 CURVE SMOOTH",
"161 10 OFFCURVE",
"65 110 OFFCURVE",
"56 249 CURVE",
"510 249 LINE"
);
}
);
width = 576;
},
{
layerId = "A8272220-FCE5-4C48-BDEF-D37440F7149C";
paths = (
{
closed = 1;
nodes = (
"292 -10 CURVE SMOOTH",
"449 -10 OFFCURVE",
"555 112 OFFCURVE",
"555 258 CURVE SMOOTH",
"555 407 OFFCURVE",
"446 531 OFFCURVE",
"290 531 CURVE SMOOTH",
"184 531 OFFCURVE",
"95 475 OFFCURVE",
"61 399 CURVE",
"137 378 LINE",
"159 429 OFFCURVE",
"222 464 OFFCURVE",
"286 464 CURVE SMOOTH",
"377 464 OFFCURVE",
"454 393 OFFCURVE",
"462 290 CURVE",
"29 290 LINE",
"28 283 OFFCURVE",
"27 268 OFFCURVE",
"27 260 CURVE",
"28 113 OFFCURVE",
"135 -10 OFFCURVE"
);
},
{
closed = 1;
nodes = (
"293 56 CURVE SMOOTH",
"200 56 OFFCURVE",
"119 128 OFFCURVE",
"112 232 CURVE",
"464 232 LINE",
"457 130 OFFCURVE",
"386 56 OFFCURVE"
);
}
);
width = 591;
},
{
layerId = "CD86D743-087E-48CD-95ED-391136C80322";
paths = (
{
closed = 1;
nodes = (
"302 -10 CURVE SMOOTH",
"490 -10 OFFCURVE",
"590 118 OFFCURVE",
"590 270 CURVE SMOOTH",
"590 411 OFFCURVE",
"487 536 OFFCURVE",
"302 536 CURVE SMOOTH",
"174 536 OFFCURVE",
"83 477 OFFCURVE",
"40 393 CURVE",
"201 347 LINE",
"213 380 OFFCURVE",
"255 400 OFFCURVE",
"296 400 CURVE SMOOTH",
"340 400 OFFCURVE",
"384 377 OFFCURVE",
"388 321 CURVE",
"19 321 LINE",
"16 305 OFFCURVE",
"14 283 OFFCURVE",
"14 263 CURVE SMOOTH",
"14 118 OFFCURVE",
"114 -10 OFFCURVE"
);
},
{
closed = 1;
nodes = (
"305 125 CURVE SMOOTH",
"257 125 OFFCURVE",
"224 156 OFFCURVE",
"218 207 CURVE",
"392 207 LINE",
"386 156 OFFCURVE",
"353 125 OFFCURVE"
);
}
);
width = 609;
}
);
unicode = 0259;
userData = {
org.robofab.fontlab.mark = 0;
};
},
{
glyphname = t;
lastChange = "2016-08-01 09:41:41 +0000";
layers = (
{
anchors = (
{
name = bottom;
position = "{191, 0}";
},
{
name = top;
position = "{230, 519}";
}
);
layerId = "DC0D5209-C0CE-4187-A591-293A64199C8F";
paths = (
{
closed = 1;
nodes = (
"275 40 LINE",
"273 38 OFFCURVE",
"237 15 OFFCURVE",
"191 15 CURVE SMOOTH",
"156 15 OFFCURVE",
"124 36 OFFCURVE",
"121 75 CURVE",
"121 499 LINE",
"246 499 LINE",
"246 519 LINE",
"121 519 LINE",
"121 700 LINE",
"101 700 LINE",
"101 519 LINE",
"26 519 LINE",
"26 499 LINE",
"101 499 LINE",
"101 75 LINE SMOOTH",
"101 27 OFFCURVE",
"143 -5 OFFCURVE",
"191 -5 CURVE SMOOTH",
"246 -5 OFFCURVE",
"285 23 OFFCURVE",
"286 24 CURVE"
);
}
);
width = 295;
},
{
anchors = (
{
name = bottom;
position = "{214, 0}";
},
{
name = top;
position = "{287, 522}";
}
);
layerId = "A8272220-FCE5-4C48-BDEF-D37440F7149C";
paths = (
{
closed = 1;
nodes = (
"320 96 LINE",
"310 90 OFFCURVE",
"278 74 OFFCURVE",
"243 74 CURVE SMOOTH",
"212 74 OFFCURVE",
"186 91 OFFCURVE",
"184 129 CURVE",
"184 453 LINE",
"301 453 LINE",
"301 522 LINE",
"184 522 LINE",
"184 696 LINE",
"96 696 LINE",
"96 522 LINE",
"25 522 LINE",
"25 453 LINE",
"96 453 LINE",
"96 102 LINE SMOOTH",
"96 27 OFFCURVE",
"150 -7 OFFCURVE",
"214 -7 CURVE SMOOTH",
"270 -7 OFFCURVE",
"319 16 OFFCURVE",
"341 26 CURVE"
);
}
);
width = 352;
},
{
anchors = (
{
name = bottom;
position = "{242, 0}";
},
{
name = top;
position = "{366, 526}";
}
);
layerId = "CD86D743-087E-48CD-95ED-391136C80322";
paths = (
{
closed = 1;
nodes = (
"383 179 LINE",
"359 169 OFFCURVE",
"334 162 OFFCURVE",
"315 162 CURVE SMOOTH",
"290 162 OFFCURVE",
"274 174 OFFCURVE",
"274 209 CURVE SMOOTH",
"274 383 LINE",
"377 383 LINE",
"377 526 LINE",
"274 526 LINE",
"274 691 LINE",
"84 691 LINE",
"84 526 LINE",
"19 526 LINE",
"19 383 LINE",
"84 383 LINE",
"84 142 LINE SMOOTH",
"84 28 OFFCURVE",
"156 -11 OFFCURVE",
"242 -11 CURVE SMOOTH",
"300 -11 OFFCURVE",
"364 6 OFFCURVE",
"417 29 CURVE"
);
}
);
width = 423;
}
);
unicode = 0074;
userData = {
org.robofab.fontlab.mark = 0;
};
},
{
glyphname = tbar;
lastChange = "2016-08-01 09:41:41 +0000";
layers = (
{
components = (
{
name = t;
transform = "{1, 0, 0, 1, 1, 0}";
}
);
layerId = "DC0D5209-C0CE-4187-A591-293A64199C8F";
paths = (
{
closed = 1;
nodes = (
"247 339 LINE",
"247 359 LINE",
"27 359 LINE",
"27 339 LINE"
);
}
);
width = 297;
},
{
components = (
{
name = t;
transform = "{1, 0, 0, 1, 1, 0}";
}
);
layerId = "A8272220-FCE5-4C48-BDEF-D37440F7149C";
paths = (
{
closed = 1;
nodes = (
"302 294 LINE",
"302 350 LINE",
"26 350 LINE",
"26 294 LINE"
);
}
);
width = 353;
},
{
components = (
{
name = t;
transform = "{1, 0, 0, 1, 1, 0}";
}
);
layerId = "CD86D743-087E-48CD-95ED-391136C80322";
paths = (
{
closed = 1;
nodes = (
"378 227 LINE",
"378 336 LINE",
"20 336 LINE",
"20 227 LINE"
);
}
);
width = 424;
}
);
unicode = 0167;
userData = {
org.robofab.fontlab.mark = 0;
};
},
{
glyphname = u;
lastChange = "2016-08-09 18:59:22 +0000";
layers = (
{
anchors = (
{
name = bottom;
position = "{496, 11}";
},
{
name = bottomviet;
position = "{274, 0}";
},
{
name = ogonek;
position = "{518, 10}";
},
{
name = top;
position = "{282, 519}";
},
{
name = topright;
position = "{545, 481}";
}
);
layerId = "DC0D5209-C0CE-4187-A591-293A64199C8F";
paths = (
{
closed = 1;
nodes = (
"245 -10 CURVE SMOOTH",
"338 -10 OFFCURVE",
"426 45 OFFCURVE",
"471 132 CURVE",
"471 40 LINE SMOOTH",
"471 23 OFFCURVE",
"480 7 OFFCURVE",
"493 2 CURVE SMOOTH",
"496 0 OFFCURVE",
"499 0 OFFCURVE",
"507 0 CURVE",
"507 20 LINE",
"497 20 OFFCURVE",
"491 28 OFFCURVE",
"491 40 CURVE SMOOTH",
"491 519 LINE",
"471 519 LINE",
"471 189 LINE",
"440 85 OFFCURVE",
"345 10 OFFCURVE",
"245 10 CURVE SMOOTH",
"146 10 OFFCURVE",
"98 81 OFFCURVE",
"98 228 CURVE SMOOTH",
"98 519 LINE",
"78 519 LINE",
"78 228 LINE SMOOTH",
"78 71 OFFCURVE",
"135 -10 OFFCURVE"
);
}
);
width = 576;
},
{
anchors = (
{
name = bottom;
position = "{511, 7}";
},
{
name = bottomviet;
position = "{289, 7}";
},
{
name = ogonek;
position = "{541, 10}";
},
{
name = top;
position = "{294, 522}";
},
{
name = topright;
position = "{542, 457}";
}
);
layerId = "A8272220-FCE5-4C48-BDEF-D37440F7149C";
paths = (
{
closed = 1;
nodes = (
"232 -10 CURVE SMOOTH",
"322 -10 OFFCURVE",
"403 34 OFFCURVE",
"449 112 CURVE",
"451 51 LINE SMOOTH",
"452 20 OFFCURVE",
"479 -3 OFFCURVE",
"513 -3 CURVE SMOOTH",
"524 -3 OFFCURVE",
"533 -3 OFFCURVE",
"553 0 CURVE",
"553 76 LINE",
"533 77 OFFCURVE",
"525 86 OFFCURVE",
"525 108 CURVE SMOOTH",
"525 522 LINE",
"437 522 LINE",
"437 195 LINE",
"406 115 OFFCURVE",
"337 66 OFFCURVE",
"265 66 CURVE SMOOTH",
"191 66 OFFCURVE",
"154 119 OFFCURVE",
"154 226 CURVE SMOOTH",
"154 522 LINE",
"66 522 LINE",
"66 209 LINE SMOOTH",
"66 65 OFFCURVE",
"123 -10 OFFCURVE"
);
}
);
width = 601;
},
{
anchors = (
{
name = bottom;
position = "{528, 0}";
},
{
name = bottomviet;
position = "{309, 11}";
},
{
name = ogonek;
position = "{574, 10}";
},
{
name = top;
position = "{308, 526}";
},
{
name = topright;
position = "{581, 456}";
}
);
layerId = "CD86D743-087E-48CD-95ED-391136C80322";
paths = (
{
closed = 1;
nodes = (
"207 -10 CURVE SMOOTH",
"294 -10 OFFCURVE",
"363 17 OFFCURVE",
"412 82 CURVE",
"416 63 LINE SMOOTH",
"426 14 OFFCURVE",
"464 -10 OFFCURVE",
"528 -10 CURVE SMOOTH",
"548 -10 OFFCURVE",
"574 -7 OFFCURVE",
"608 0 CURVE",
"608 160 LINE",
"581 162 OFFCURVE",
"572 174 OFFCURVE",
"572 210 CURVE SMOOTH",
"572 526 LINE",
"382 526 LINE",
"382 204 LINE",
"351 159 OFFCURVE",
"320 150 OFFCURVE",
"291 150 CURVE SMOOTH",
"255 150 OFFCURVE",
"233 177 OFFCURVE",
"233 223 CURVE SMOOTH",
"233 526 LINE",
"43 526 LINE",
"43 180 LINE SMOOTH",
"43 57 OFFCURVE",
"101 -10 OFFCURVE"
);
}
);
width = 638;
}
);
unicode = 0075;
userData = {
org.robofab.fontlab.mark = 0;
};
},
{
glyphname = v;
lastChange = "2016-08-01 09:41:41 +0000";
layers = (
{
layerId = "DC0D5209-C0CE-4187-A591-293A64199C8F";
paths = (
{
closed = 1;
nodes = (
"269 0 LINE",
"495 519 LINE",
"473 519 LINE",
"260 29 LINE",
"47 519 LINE",
"25 519 LINE",
"251 0 LINE"
);
}
);
width = 520;
},
{
layerId = "A8272220-FCE5-4C48-BDEF-D37440F7149C";
paths = (
{
closed = 1;
nodes = (
"316 0 LINE",
"522 522 LINE",
"438 522 LINE",
"272 77 LINE",
"107 522 LINE",
"16 522 LINE",
"222 0 LINE"
);
}
);
width = 538;
},
{
layerId = "CD86D743-087E-48CD-95ED-391136C80322";
paths = (
{
closed = 1;
nodes = (
"385 0 LINE",
"562 526 LINE",
"385 526 LINE",
"290 149 LINE",
"196 526 LINE",
"1 526 LINE",
"178 0 LINE"
);
}
);
width = 563;
}
);
unicode = 0076;
userData = {
org.robofab.fontlab.mark = 0;
};
},
{
glyphname = w;
lastChange = "2016-08-01 09:41:41 +0000";
layers = (
{
anchors = (
{
name = top;
position = "{397, 519}";
}
);
layerId = "DC0D5209-C0CE-4187-A591-293A64199C8F";
paths = (
{
closed = 1;
nodes = (
"533 29 LINE",
"408 316 LINE",
"495 518 LINE",
"474 518 LINE",
"397 342 LINE",
"320 518 LINE",
"299 518 LINE",
"386 316 LINE",
"261 29 LINE",
"47 519 LINE",
"25 519 LINE",
"252 0 LINE",
"270 0 LINE",
"397 291 LINE",
"524 0 LINE",
"542 0 LINE",
"769 519 LINE",
"747 519 LINE"
);
}
);
width = 794;
},
{
anchors = (
{
name = top;
position = "{410, 522}";
}
);
layerId = "A8272220-FCE5-4C48-BDEF-D37440F7149C";
paths = (
{
closed = 1;
nodes = (
"546 87 LINE",
"458 304 LINE",
"547 521 LINE",
"474 521 LINE",
"410 354 LINE",
"346 521 LINE",
"273 521 LINE",
"363 304 LINE",
"275 87 LINE",
"95 522 LINE",
"11 522 LINE",
"233 0 LINE",
"306 0 LINE",
"410 255 LINE",
"515 0 LINE",
"588 0 LINE",
"810 522 LINE",
"725 522 LINE"
);
}
);
width = 821;
},
{
anchors = (
{
name = top;
position = "{431, 526}";
}
);
layerId = "CD86D743-087E-48CD-95ED-391136C80322";
paths = (
{
closed = 1;
nodes = (
"566 173 LINE",
"533 286 LINE",
"627 526 LINE",
"476 526 LINE",
"431 372 LINE",
"386 526 LINE",
"235 526 LINE",
"329 286 LINE",
"296 173 LINE",
"169 526 LINE",
"-10 526 LINE",
"205 0 LINE",
"360 0 LINE",
"431 200 LINE",
"502 0 LINE",
"657 0 LINE",
"872 526 LINE",
"693 526 LINE"
);
}
);
width = 862;
}
);
unicode = 0077;
userData = {
org.robofab.fontlab.mark = 0;
};
},
{
glyphname = x;
lastChange = "2016-08-01 09:41:41 +0000";
layers = (
{
layerId = "DC0D5209-C0CE-4187-A591-293A64199C8F";
paths = (
{
closed = 1;
nodes = (
"20 519 LINE",
"228 258 LINE",
"22 0 LINE",
"48 0 LINE",
"233 232 LINE",
"241 244 LINE",
"249 232 LINE",
"434 0 LINE",
"460 0 LINE",
"254 258 LINE",
"462 519 LINE",
"436 519 LINE",
"249 285 LINE",
"241 273 LINE",
"233 285 LINE",
"46 519 LINE"
);
}
);
width = 482;
},
{
layerId = "A8272220-FCE5-4C48-BDEF-D37440F7149C";
paths = (
{
closed = 1;
nodes = (
"13 522 LINE",
"208 260 LINE",
"12 0 LINE",
"105 0 LINE",
"248 191 LINE",
"256 206 LINE",
"265 191 LINE",
"408 0 LINE",
"501 0 LINE",
"305 260 LINE",
"500 522 LINE",
"407 522 LINE",
"265 330 LINE",
"256 314 LINE",
"248 330 LINE",
"105 522 LINE"
);
}
);
width = 513;
},
{
layerId = "CD86D743-087E-48CD-95ED-391136C80322";
paths = (
{
closed = 1;
nodes = (
"-1 526 LINE",
"175 263 LINE",
"-6 0 LINE",
"187 0 LINE",
"268 129 LINE",
"277 149 LINE",
"286 129 LINE",
"367 0 LINE",
"560 0 LINE",
"379 263 LINE",
"555 526 LINE",
"362 526 LINE",
"287 397 LINE",
"277 376 LINE",
"267 397 LINE",
"192 526 LINE"
);
}
);
width = 554;
}
);
unicode = 0078;
userData = {
org.robofab.fontlab.mark = 0;
};
},
{
glyphname = y;
lastChange = "2016-08-09 19:08:34 +0000";
layers = (
{
anchors = (
{
name = bottom;
position = "{353, 0}";
},
{
name = top;
position = "{272, 519}";
}
);
layerId = "DC0D5209-C0CE-4187-A591-293A64199C8F";
paths = (
{
closed = 1;
nodes = (
"128 -223 LINE",
"142 -223 OFFCURVE",
"157 -221 OFFCURVE",
"169 -218 CURVE SMOOTH",
"184 -214 OFFCURVE",
"194 -204 OFFCURVE",
"202 -186 CURVE SMOOTH",
"511 519 LINE",
"489 519 LINE",
"272 25 LINE",
"43 519 LINE",
"21 519 LINE",
"262 0 LINE",
"193 -158 OFFCURVE",
"182 -184 OFFCURVE",
"175 -193 CURVE SMOOTH",
"168 -202 OFFCURVE",
"151 -203 OFFCURVE",
"128 -203 CURVE"
);
}
);
width = 536;
},
{
anchors = (
{
name = bottom;
position = "{383, 0}";
},
{
name = top;
position = "{281, 522}";
}
);
layerId = "A8272220-FCE5-4C48-BDEF-D37440F7149C";
paths = (
{
closed = 1;
nodes = (
"95 -220 LINE",
"113 -224 OFFCURVE",
"125 -225 OFFCURVE",
"137 -225 CURVE SMOOTH",
"212 -225 OFFCURVE",
"255 -184 OFFCURVE",
"273 -137 CURVE SMOOTH",
"527 522 LINE",
"443 522 LINE",
"281 79 LINE",
"103 522 LINE",
"12 522 LINE",
"233 0 LINE",
"186 -123 OFFCURVE",
"173 -146 OFFCURVE",
"141 -146 CURVE SMOOTH",
"132 -146 OFFCURVE",
"112 -144 OFFCURVE",
"95 -142 CURVE"
);
}
);
width = 545;
},
{
anchors = (
{
name = bottom;
position = "{498, 0}";
},
{
name = top;
position = "{293, 526}";
}
);
layerId = "CD86D743-087E-48CD-95ED-391136C80322";
paths = (
{
closed = 1;
nodes = (
"44 -215 LINE",
"76 -228 OFFCURVE",
"109 -234 OFFCURVE",
"142 -234 CURVE SMOOTH",
"250 -234 OFFCURVE",
"342 -166 OFFCURVE",
"373 -63 CURVE SMOOTH",
"551 526 LINE",
"374 526 LINE",
"293 161 LINE",
"193 526 LINE",
"-2 526 LINE",
"189 0 LINE",
"185 -47 OFFCURVE",
"163 -70 OFFCURVE",
"122 -70 CURVE SMOOTH",
"101 -70 OFFCURVE",
"74 -64 OFFCURVE",
"44 -53 CURVE"
);
}
);
width = 555;
}
);
unicode = 0079;
userData = {
org.robofab.fontlab.mark = 0;
};
},
{
glyphname = z;
lastChange = "2016-08-01 09:41:41 +0000";
layers = (
{
anchors = (
{
name = top;
position = "{259, 519}";
}
);
layerId = "DC0D5209-C0CE-4187-A591-293A64199C8F";
paths = (
{
closed = 1;
nodes = (
"33 0 LINE",
"450 0 LINE",
"450 20 LINE",
"59 20 LINE",
"454 499 LINE",
"454 519 LINE",
"38 519 LINE",
"38 499 LINE",
"429 499 LINE",
"33 20 LINE"
);
}
);
width = 488;
},
{
anchors = (
{
name = top;
position = "{254, 522}";
}
);
layerId = "A8272220-FCE5-4C48-BDEF-D37440F7149C";
paths = (
{
closed = 1;
nodes = (
"30 0 LINE",
"459 0 LINE",
"459 64 LINE",
"126 64 LINE",
"458 465 LINE",
"458 522 LINE",
"39 522 LINE",
"39 458 LINE",
"364 458 LINE",
"30 57 LINE"
);
}
);
width = 493;
},
{
anchors = (
{
name = top;
position = "{243, 526}";
}
);
layerId = "CD86D743-087E-48CD-95ED-391136C80322";
paths = (
{
closed = 1;
nodes = (
"22 0 LINE",
"469 0 LINE",
"469 130 LINE",
"221 130 LINE",
"460 414 LINE",
"460 526 LINE",
"37 526 LINE",
"37 396 LINE",
"262 396 LINE",
"22 112 LINE"
);
}
);
width = 494;
}
);
unicode = 007A;
userData = {
org.robofab.fontlab.mark = 0;
};
},
{
glyphname = a.alt;
lastChange = "2016-08-01 09:41:41 +0000";
layers = (
{
layerId = "DC0D5209-C0CE-4187-A591-293A64199C8F";
paths = (
{
closed = 1;
nodes = (
"293 -10 CURVE SMOOTH",
"383 -10 OFFCURVE",
"460 44 OFFCURVE",
"503 119 CURVE",
"503 0 LINE",
"523 0 LINE",
"523 517 LINE",
"503 517 LINE",
"503 397 LINE",
"461 471 OFFCURVE",
"387 527 OFFCURVE",
"293 527 CURVE SMOOTH",
"157 527 OFFCURVE",
"46 403 OFFCURVE",
"46 258 CURVE SMOOTH",
"46 123 OFFCURVE",
"147 -10 OFFCURVE"
);
},
{
closed = 1;
nodes = (
"503 167 LINE",
"471 82 OFFCURVE",
"395 10 OFFCURVE",
"293 10 CURVE SMOOTH",
"161 10 OFFCURVE",
"66 129 OFFCURVE",
"66 258 CURVE SMOOTH",
"66 376 OFFCURVE",
"156 507 OFFCURVE",
"293 507 CURVE SMOOTH",
"389 507 OFFCURVE",
"469 439 OFFCURVE",
"503 351 CURVE"
);
}
);
width = 607;
},
{
layerId = "A8272220-FCE5-4C48-BDEF-D37440F7149C";
paths = (
{
closed = 1;
nodes = (
"285 -10 CURVE SMOOTH",
"366 -10 OFFCURVE",
"430 33 OFFCURVE",
"467 99 CURVE",
"467 0 LINE",
"555 0 LINE",
"555 517 LINE",
"467 517 LINE",
"467 417 LINE",
"430 484 OFFCURVE",
"361 531 OFFCURVE",
"277 531 CURVE SMOOTH",
"142 531 OFFCURVE",
"37 409 OFFCURVE",
"37 260 CURVE SMOOTH",
"37 115 OFFCURVE",
"139 -10 OFFCURVE"
);
},
{
closed = 1;
nodes = (
"467 182 LINE",
"438 116 OFFCURVE",
"381 66 OFFCURVE",
"305 66 CURVE SMOOTH",
"202 66 OFFCURVE",
"128 155 OFFCURVE",
"128 259 CURVE SMOOTH",
"128 355 OFFCURVE",
"198 455 OFFCURVE",
"302 455 CURVE SMOOTH",
"375 455 OFFCURVE",
"439 402 OFFCURVE",
"467 330 CURVE"
);
}
);
width = 625;
},
{
layerId = "CD86D743-087E-48CD-95ED-391136C80322";
paths = (
{
closed = 1;
nodes = (
"268 -10 CURVE SMOOTH",
"337 -10 OFFCURVE",
"380 16 OFFCURVE",
"410 69 CURVE",
"410 0 LINE",
"599 0 LINE",
"599 518 LINE",
"409 518 LINE",
"409 448 LINE",
"379 503 OFFCURVE",
"319 536 OFFCURVE",
"249 536 CURVE SMOOTH",
"116 536 OFFCURVE",
"20 419 OFFCURVE",
"20 264 CURVE SMOOTH",
"20 103 OFFCURVE",
"123 -10 OFFCURVE"
);
},
{
closed = 1;
nodes = (
"410 204 LINE",
"385 168 OFFCURVE",
"357 150 OFFCURVE",
"319 150 CURVE SMOOTH",
"259 150 OFFCURVE",
"216 194 OFFCURVE",
"216 260 CURVE SMOOTH",
"216 323 OFFCURVE",
"257 376 OFFCURVE",
"311 376 CURVE SMOOTH",
"351 376 OFFCURVE",
"391 346 OFFCURVE",
"410 298 CURVE"
);
}
);
width = 647;
}
);
userData = {
org.robofab.fontlab.mark = 0;
};
},
{
glyphname = d.alt;
lastChange = "2016-08-01 09:41:41 +0000";
layers = (
{
layerId = "DC0D5209-C0CE-4187-A591-293A64199C8F";
paths = (
{
closed = 1;
nodes = (
"519 0 LINE",
"519 730 LINE",
"499 730 LINE",
"499 398 LINE",
"451 467 OFFCURVE",
"382 527 OFFCURVE",
"287 527 CURVE SMOOTH",
"148 527 OFFCURVE",
"46 401 OFFCURVE",
"46 258 CURVE SMOOTH",
"46 125 OFFCURVE",
"151 -10 OFFCURVE",
"296 -10 CURVE SMOOTH",
"375 -10 OFFCURVE",
"455 39 OFFCURVE",
"499 108 CURVE",
"499 0 LINE"
);
},
{
closed = 1;
nodes = (
"499 169 LINE",
"497 84 OFFCURVE",
"377 10 OFFCURVE",
"296 10 CURVE SMOOTH",
"168 10 OFFCURVE",
"66 128 OFFCURVE",
"66 258 CURVE SMOOTH",
"66 382 OFFCURVE",
"152 507 OFFCURVE",
"287 507 CURVE SMOOTH",
"371 507 OFFCURVE",
"471 439 OFFCURVE",
"499 356 CURVE"
);
}
);
width = 603;
},
{
layerId = "A8272220-FCE5-4C48-BDEF-D37440F7149C";
paths = (
{
closed = 1;
nodes = (
"553 0 LINE",
"553 730 LINE",
"465 730 LINE",
"465 418 LINE",
"424 481 OFFCURVE",
"358 531 OFFCURVE",
"273 531 CURVE SMOOTH",
"137 531 OFFCURVE",
"37 408 OFFCURVE",
"37 260 CURVE SMOOTH",
"37 116 OFFCURVE",
"141 -10 OFFCURVE",
"286 -10 CURVE SMOOTH",
"361 -10 OFFCURVE",
"427 30 OFFCURVE",
"465 92 CURVE",
"465 0 LINE"
);
},
{
closed = 1;
nodes = (
"465 183 LINE",
"454 118 OFFCURVE",
"371 66 OFFCURVE",
"307 66 CURVE SMOOTH",
"206 66 OFFCURVE",
"128 154 OFFCURVE",
"128 259 CURVE SMOOTH",
"128 358 OFFCURVE",
"196 455 OFFCURVE",
"298 455 CURVE SMOOTH",
"365 455 OFFCURVE",
"441 402 OFFCURVE",
"465 333 CURVE"
);
}
);
width = 624;
},
{
layerId = "CD86D743-087E-48CD-95ED-391136C80322";
paths = (
{
closed = 1;
nodes = (
"599 0 LINE",
"599 730 LINE",
"409 730 LINE",
"409 448 LINE",
"379 503 OFFCURVE",
"319 536 OFFCURVE",
"249 536 CURVE SMOOTH",
"116 536 OFFCURVE",
"20 419 OFFCURVE",
"20 264 CURVE SMOOTH",
"20 103 OFFCURVE",
"123 -10 OFFCURVE",
"268 -10 CURVE SMOOTH",
"337 -10 OFFCURVE",
"380 16 OFFCURVE",
"410 69 CURVE",
"410 0 LINE"
);
},
{
closed = 1;
nodes = (
"410 204 LINE",
"385 168 OFFCURVE",
"357 150 OFFCURVE",
"319 150 CURVE SMOOTH",
"259 150 OFFCURVE",
"216 194 OFFCURVE",
"216 260 CURVE SMOOTH",
"216 323 OFFCURVE",
"257 376 OFFCURVE",
"311 376 CURVE SMOOTH",
"351 376 OFFCURVE",
"391 346 OFFCURVE",
"410 298 CURVE"
);
}
);
width = 647;
}
);
userData = {
org.robofab.fontlab.mark = 0;
};
},
{
glyphname = j.alt;
lastChange = "2016-08-01 09:41:41 +0000";
layers = (
{
layerId = "DC0D5209-C0CE-4187-A591-293A64199C8F";
paths = (
{
closed = 1;
nodes = (
"84 -213 LINE",
"104 -213 LINE",
"104 517 LINE",
"84 517 LINE"
);
},
{
closed = 1;
nodes = (
"84 653 LINE",
"104 653 LINE",
"104 717 LINE",
"84 717 LINE"
);
}
);
width = 188;
},
{
layerId = "A8272220-FCE5-4C48-BDEF-D37440F7149C";
paths = (
{
closed = 1;
nodes = (
"71 -213 LINE",
"159 -213 LINE",
"159 517 LINE",
"71 517 LINE"
);
},
{
closed = 1;
nodes = (
"71 620 LINE",
"159 620 LINE",
"159 722 LINE",
"71 722 LINE"
);
}
);
width = 230;
},
{
layerId = "CD86D743-087E-48CD-95ED-391136C80322";
paths = (
{
closed = 1;
nodes = (
"48 -213 LINE",
"238 -213 LINE",
"238 517 LINE",
"48 517 LINE"
);
},
{
closed = 1;
nodes = (
"48 570 LINE",
"237 570 LINE",
"237 730 LINE",
"48 730 LINE"
);
}
);
width = 286;
}
);
userData = {
org.robofab.fontlab.mark = 0;
};
},
{
glyphname = l.alt;
lastChange = "2016-08-01 09:41:41 +0000";
layers = (
{
layerId = "DC0D5209-C0CE-4187-A591-293A64199C8F";
paths = (
{
closed = 1;
nodes = (
"92 0 LINE",
"99 0 OFFCURVE",
"112 0 OFFCURVE",
"112 0 CURVE",
"112 730 LINE",
"92 730 LINE"
);
}
);
width = 204;
},
{
layerId = "A8272220-FCE5-4C48-BDEF-D37440F7149C";
paths = (
{
closed = 1;
nodes = (
"76 0 LINE",
"107 0 OFFCURVE",
"164 0 OFFCURVE",
"164 0 CURVE",
"164 730 LINE",
"76 730 LINE"
);
}
);
width = 240;
},
{
layerId = "CD86D743-087E-48CD-95ED-391136C80322";
paths = (
{
closed = 1;
nodes = (
"48 0 LINE",
"116 0 OFFCURVE",
"238 0 OFFCURVE",
"238 0 CURVE",
"238 730 LINE",
"48 730 LINE"
);
}
);
width = 286;
}
);
userData = {
org.robofab.fontlab.mark = 0;
};
},
{
glyphname = q.alt;
lastChange = "2016-08-01 09:41:41 +0000";
layers = (
{
layerId = "DC0D5209-C0CE-4187-A591-293A64199C8F";
paths = (
{
closed = 1;
nodes = (
"287 -10 CURVE SMOOTH",
"368 -10 OFFCURVE",
"441 35 OFFCURVE",
"499 119 CURVE",
"499 -213 LINE",
"519 -213 LINE",
"519 519 LINE",
"499 519 LINE",
"499 409 LINE",
"458 475 OFFCURVE",
"378 527 OFFCURVE",
"296 527 CURVE SMOOTH",
"157 527 OFFCURVE",
"46 399 OFFCURVE",
"46 258 CURVE SMOOTH",
"46 123 OFFCURVE",
"141 -10 OFFCURVE"
);
},
{
closed = 1;
nodes = (
"287 10 CURVE SMOOTH",
"159 10 OFFCURVE",
"66 127 OFFCURVE",
"66 258 CURVE SMOOTH",
"66 381 OFFCURVE",
"161 507 OFFCURVE",
"296 507 CURVE SMOOTH",
"384 507 OFFCURVE",
"490 431 OFFCURVE",
"499 348 CURVE",
"499 161 LINE",
"459 82 OFFCURVE",
"386 10 OFFCURVE"
);
}
);
width = 603;
},
{
layerId = "A8272220-FCE5-4C48-BDEF-D37440F7149C";
paths = (
{
closed = 1;
nodes = (
"271 -10 CURVE SMOOTH",
"350 -10 OFFCURVE",
"417 29 OFFCURVE",
"464 103 CURVE",
"464 -213 LINE",
"552 -213 LINE",
"552 522 LINE",
"474 522 LINE",
"474 423 LINE",
"435 486 OFFCURVE",
"365 531 OFFCURVE",
"284 531 CURVE SMOOTH",
"145 531 OFFCURVE",
"37 408 OFFCURVE",
"37 261 CURVE SMOOTH",
"37 117 OFFCURVE",
"132 -10 OFFCURVE"
);
},
{
closed = 1;
nodes = (
"301 66 CURVE SMOOTH",
"199 66 OFFCURVE",
"127 154 OFFCURVE",
"127 259 CURVE SMOOTH",
"127 358 OFFCURVE",
"200 455 OFFCURVE",
"303 455 CURVE SMOOTH",
"372 455 OFFCURVE",
"452 396 OFFCURVE",
"464 328 CURVE",
"464 178 LINE",
"430 116 OFFCURVE",
"375 66 OFFCURVE"
);
}
);
width = 623;
},
{
layerId = "CD86D743-087E-48CD-95ED-391136C80322";
paths = (
{
closed = 1;
nodes = (
"245 -10 CURVE SMOOTH",
"321 -10 OFFCURVE",
"379 21 OFFCURVE",
"409 78 CURVE",
"409 -214 LINE",
"599 -214 LINE",
"599 526 LINE",
"434 526 LINE",
"434 445 LINE",
"397 502 OFFCURVE",
"343 536 OFFCURVE",
"264 536 CURVE SMOOTH",
"124 536 OFFCURVE",
"21 421 OFFCURVE",
"21 265 CURVE SMOOTH",
"21 107 OFFCURVE",
"116 -10 OFFCURVE"
);
},
{
closed = 1;
nodes = (
"319 150 CURVE SMOOTH",
"257 150 OFFCURVE",
"215 194 OFFCURVE",
"215 260 CURVE SMOOTH",
"215 324 OFFCURVE",
"256 376 OFFCURVE",
"311 376 CURVE SMOOTH",
"351 376 OFFCURVE",
"391 344 OFFCURVE",
"409 298 CURVE",
"409 204 LINE",
"384 168 OFFCURVE",
"355 150 OFFCURVE"
);
}
);
width = 647;
}
);
userData = {
org.robofab.fontlab.mark = 0;
};
},
{
glyphname = t.alt;
lastChange = "2016-08-01 09:41:41 +0000";
layers = (
{
layerId = "DC0D5209-C0CE-4187-A591-293A64199C8F";
paths = (
{
closed = 1;
nodes = (
"123 0 LINE",
"123 499 LINE",
"248 499 LINE",
"248 519 LINE",
"123 519 LINE",
"123 701 LINE",
"103 701 LINE",
"103 519 LINE",
"28 519 LINE",
"28 499 LINE",
"103 499 LINE",
"103 0 LINE"
);
}
);
width = 269;
},
{
layerId = "A8272220-FCE5-4C48-BDEF-D37440F7149C";
paths = (
{
closed = 1;
nodes = (
"194 0 LINE",
"194 442 LINE",
"317 442 LINE",
"317 522 LINE",
"194 522 LINE",
"194 696 LINE",
"104 696 LINE",
"104 522 LINE",
"27 522 LINE",
"27 442 LINE",
"104 442 LINE",
"104 0 LINE"
);
}
);
width = 336;
},
{
layerId = "CD86D743-087E-48CD-95ED-391136C80322";
paths = (
{
closed = 1;
nodes = (
"300 0 LINE",
"300 356 LINE",
"420 356 LINE",
"420 526 LINE",
"300 526 LINE",
"300 691 LINE",
"105 691 LINE",
"105 526 LINE",
"25 526 LINE",
"25 356 LINE",
"105 356 LINE",
"105 0 LINE"
);
}
);
width = 431;
}
);
userData = {
org.robofab.fontlab.mark = 0;
};
},
{
glyphname = u.alt;
lastChange = "2016-08-01 09:41:41 +0000";
layers = (
{
layerId = "DC0D5209-C0CE-4187-A591-293A64199C8F";
paths = (
{
closed = 1;
nodes = (
"491 0 LINE",
"491 519 LINE",
"471 519 LINE",
"471 189 LINE",
"445 97 OFFCURVE",
"354 10 OFFCURVE",
"248 10 CURVE SMOOTH",
"124 10 OFFCURVE",
"98 111 OFFCURVE",
"98 228 CURVE SMOOTH",
"98 519 LINE",
"78 519 LINE",
"78 228 LINE SMOOTH",
"78 113 OFFCURVE",
"103 -10 OFFCURVE",
"248 -10 CURVE SMOOTH",
"339 -10 OFFCURVE",
"428 48 OFFCURVE",
"471 132 CURVE",
"471 0 LINE"
);
}
);
width = 575;
},
{
layerId = "A8272220-FCE5-4C48-BDEF-D37440F7149C";
paths = (
{
closed = 1;
nodes = (
"525 0 LINE",
"525 522 LINE",
"437 522 LINE",
"437 195 LINE",
"409 122 OFFCURVE",
"342 66 OFFCURVE",
"269 66 CURVE SMOOTH",
"177 66 OFFCURVE",
"154 137 OFFCURVE",
"154 226 CURVE SMOOTH",
"154 522 LINE",
"66 522 LINE",
"66 209 LINE SMOOTH",
"66 88 OFFCURVE",
"104 -10 OFFCURVE",
"238 -10 CURVE SMOOTH",
"320 -10 OFFCURVE",
"400 33 OFFCURVE",
"440 107 CURVE",
"440 0 LINE"
);
}
);
width = 596;
},
{
layerId = "CD86D743-087E-48CD-95ED-391136C80322";
paths = (
{
closed = 1;
nodes = (
"572 0 LINE",
"572 526 LINE",
"382 526 LINE",
"382 204 LINE",
"351 159 OFFCURVE",
"319 150 OFFCURVE",
"295 150 CURVE SMOOTH",
"253 150 OFFCURVE",
"233 177 OFFCURVE",
"233 223 CURVE SMOOTH",
"233 526 LINE",
"43 526 LINE",
"43 180 LINE SMOOTH",
"43 51 OFFCURVE",
"101 -10 OFFCURVE",
"218 -10 CURVE SMOOTH",
"286 -10 OFFCURVE",
"354 11 OFFCURVE",
"390 70 CURVE",
"390 0 LINE"
);
}
);
width = 620;
}
);
userData = {
org.robofab.fontlab.mark = 0;
};
},
{
glyphname = w.alt;
lastChange = "2016-08-01 09:41:41 +0000";
layers = (
{
layerId = "DC0D5209-C0CE-4187-A591-293A64199C8F";
paths = (
{
closed = 1;
nodes = (
"582 0 LINE",
"768 519 LINE",
"746 519 LINE",
"573 30 LINE",
"410 519 LINE",
"388 519 LINE",
"225 30 LINE",
"52 519 LINE",
"30 519 LINE",
"216 0 LINE",
"234 0 LINE",
"399 493 LINE",
"564 0 LINE"
);
}
);
width = 798;
},
{
layerId = "A8272220-FCE5-4C48-BDEF-D37440F7149C";
paths = (
{
closed = 1;
nodes = (
"641 0 LINE",
"823 522 LINE",
"732 522 LINE",
"591 108 LINE",
"463 522 LINE",
"379 522 LINE",
"251 108 LINE",
"110 522 LINE",
"18 522 LINE",
"201 0 LINE",
"294 0 LINE",
"421 387 LINE",
"547 0 LINE"
);
}
);
width = 842;
},
{
layerId = "CD86D743-087E-48CD-95ED-391136C80322";
paths = (
{
closed = 1;
nodes = (
"729 0 LINE",
"906 526 LINE",
"711 526 LINE",
"617 224 LINE",
"542 526 LINE",
"365 526 LINE",
"290 224 LINE",
"196 526 LINE",
"1 526 LINE",
"178 0 LINE",
"385 0 LINE",
"453 229 LINE",
"522 0 LINE"
);
}
);
width = 907;
}
);
userData = {
org.robofab.fontlab.mark = 0;
};
},
{
glyphname = y.alt;
lastChange = "2016-08-05 16:04:07 +0000";
layers = (
{
layerId = "DC0D5209-C0CE-4187-A591-293A64199C8F";
paths = (
{
closed = 1;
nodes = (
"488 519 LINE",
"271 25 LINE",
"42 519 LINE",
"20 519 LINE",
"261 0 LINE",
"173 -213 LINE",
"191 -213 LINE",
"510 519 LINE"
);
}
);
width = 535;
},
{
layerId = "A8272220-FCE5-4C48-BDEF-D37440F7149C";
paths = (
{
closed = 1;
nodes = (
"444 522 LINE",
"281 79 LINE",
"104 522 LINE",
"12 522 LINE",
"233 0 LINE",
"147 -213 LINE",
"247 -213 LINE",
"528 522 LINE"
);
}
);
width = 547;
},
{
layerId = "CD86D743-087E-48CD-95ED-391136C80322";
paths = (
{
closed = 1;
nodes = (
"374 526 LINE",
"293 161 LINE",
"193 526 LINE",
"-2 526 LINE",
"189 0 LINE",
"106 -213 LINE",
"328 -213 LINE",
"551 526 LINE"
);
}
);
width = 555;
}
);
userData = {
org.robofab.fontlab.mark = 0;
};
},
{
glyphname = a.alt2;
lastChange = "2016-08-01 09:41:41 +0000";
layers = (
{
layerId = "DC0D5209-C0CE-4187-A591-293A64199C8F";
paths = (
{
closed = 1;
nodes = (
"448 0 LINE",
"448 327 LINE SMOOTH",
"448 439 OFFCURVE",
"383 527 OFFCURVE",
"258 527 CURVE SMOOTH",
"194 527 OFFCURVE",
"132 496 OFFCURVE",
"78 459 CURVE",
"90 443 LINE",
"148 484 OFFCURVE",
"208 507 OFFCURVE",
"258 507 CURVE SMOOTH",
"361 507 OFFCURVE",
"428 433 OFFCURVE",
"428 327 CURVE SMOOTH",
"428 268 LINE",
"401 278 OFFCURVE",
"339 297 OFFCURVE",
"254 297 CURVE SMOOTH",
"164 297 OFFCURVE",
"40 261 OFFCURVE",
"40 149 CURVE SMOOTH",
"40 60 OFFCURVE",
"114 -10 OFFCURVE",
"208 -10 CURVE SMOOTH",
"289 -10 OFFCURVE",
"375 20 OFFCURVE",
"428 88 CURVE",
"428 0 LINE"
);
},
{
closed = 1;
nodes = (
"413 102 CURVE SMOOTH",
"372 38 OFFCURVE",
"284 10 OFFCURVE",
"208 10 CURVE SMOOTH",
"131 10 OFFCURVE",
"60 65 OFFCURVE",
"60 149 CURVE SMOOTH",
"60 246 OFFCURVE",
"169 277 OFFCURVE",
"254 277 CURVE SMOOTH",
"312 277 OFFCURVE",
"371 268 OFFCURVE",
"428 246 CURVE",
"428 143 LINE SMOOTH",
"428 131 OFFCURVE",
"423 117 OFFCURVE"
);
}
);
width = 526;
},
{
layerId = "A8272220-FCE5-4C48-BDEF-D37440F7149C";
paths = (
{
closed = 1;
nodes = (
"484 0 LINE",
"484 321 LINE SMOOTH",
"484 447 OFFCURVE",
"407 531 OFFCURVE",
"266 531 CURVE SMOOTH",
"191 531 OFFCURVE",
"123 503 OFFCURVE",
"63 463 CURVE",
"92 406 LINE",
"149 446 OFFCURVE",
"204 467 OFFCURVE",
"258 467 CURVE SMOOTH",
"345 467 OFFCURVE",
"396 413 OFFCURVE",
"396 330 CURVE SMOOTH",
"396 288 LINE",
"369 300 OFFCURVE",
"317 314 OFFCURVE",
"250 314 CURVE SMOOTH",
"142 314 OFFCURVE",
"30 263 OFFCURVE",
"30 153 CURVE SMOOTH",
"30 61 OFFCURVE",
"106 -10 OFFCURVE",
"205 -10 CURVE SMOOTH",
"281 -10 OFFCURVE",
"354 18 OFFCURVE",
"399 79 CURVE",
"399 0 LINE"
);
},
{
closed = 1;
nodes = (
"377 120 CURVE SMOOTH",
"346 76 OFFCURVE",
"282 56 OFFCURVE",
"228 56 CURVE SMOOTH",
"167 56 OFFCURVE",
"114 98 OFFCURVE",
"114 160 CURVE SMOOTH",
"114 232 OFFCURVE",
"193 261 OFFCURVE",
"263 261 CURVE SMOOTH",
"306 261 OFFCURVE",
"353 253 OFFCURVE",
"396 236 CURVE",
"396 159 LINE SMOOTH",
"396 147 OFFCURVE",
"389 133 OFFCURVE"
);
}
);
width = 549;
},
{
layerId = "CD86D743-087E-48CD-95ED-391136C80322";
paths = (
{
closed = 1;
nodes = (
"542 0 LINE",
"542 312 LINE SMOOTH",
"542 460 OFFCURVE",
"447 536 OFFCURVE",
"280 536 CURVE SMOOTH",
"190 536 OFFCURVE",
"113 514 OFFCURVE",
"43 469 CURVE",
"98 351 LINE",
"154 388 OFFCURVE",
"202 408 OFFCURVE",
"261 408 CURVE SMOOTH",
"325 408 OFFCURVE",
"352 384 OFFCURVE",
"352 335 CURVE SMOOTH",
"352 319 LINE",
"325 332 OFFCURVE",
"287 339 OFFCURVE",
"246 339 CURVE SMOOTH",
"113 339 OFFCURVE",
"19 265 OFFCURVE",
"19 159 CURVE SMOOTH",
"19 62 OFFCURVE",
"98 -10 OFFCURVE",
"203 -10 CURVE SMOOTH",
"272 -10 OFFCURVE",
"325 16 OFFCURVE",
"359 65 CURVE",
"359 0 LINE"
);
},
{
closed = 1;
nodes = (
"327 146 CURVE SMOOTH",
"309 134 OFFCURVE",
"283 126 OFFCURVE",
"260 126 CURVE SMOOTH",
"224 126 OFFCURVE",
"198 147 OFFCURVE",
"198 176 CURVE SMOOTH",
"198 210 OFFCURVE",
"233 236 OFFCURVE",
"279 236 CURVE SMOOTH",
"300 236 OFFCURVE",
"330 230 OFFCURVE",
"352 222 CURVE",
"352 183 LINE SMOOTH",
"352 170 OFFCURVE",
"342 156 OFFCURVE"
);
}
);
width = 584;
}
);
userData = {
org.robofab.fontlab.mark = 0;
};
},
{
glyphname = c_t;
lastChange = "2016-08-01 09:41:41 +0000";
layers = (
{
layerId = "DC0D5209-C0CE-4187-A591-293A64199C8F";
paths = (
{
closed = 1;
nodes = (
"808 40 LINE",
"806 39 OFFCURVE",
"770 15 OFFCURVE",
"724 15 CURVE SMOOTH",
"689 15 OFFCURVE",
"657 36 OFFCURVE",
"654 75 CURVE",
"654 499 LINE",
"779 499 LINE",
"779 519 LINE",
"654 519 LINE",
"654 664 OFFCURVE",
"655 753 OFFCURVE",
"511 753 CURVE SMOOTH",
"427 753 OFFCURVE",
"381 692 OFFCURVE",
"381 620 CURVE SMOOTH",
"381 563 OFFCURVE",
"412 516 OFFCURVE",
"436 481 CURVE",
"401 510 OFFCURVE",
"353 527 OFFCURVE",
"287 527 CURVE SMOOTH",
"145 527 OFFCURVE",
"46 397 OFFCURVE",
"46 258 CURVE SMOOTH",
"46 125 OFFCURVE",
"151 -10 OFFCURVE",
"296 -10 CURVE SMOOTH",
"372 -10 OFFCURVE",
"471 32 OFFCURVE",
"498 113 CURVE",
"478 119 LINE",
"461 53 OFFCURVE",
"361 10 OFFCURVE",
"296 10 CURVE SMOOTH",
"168 10 OFFCURVE",
"66 128 OFFCURVE",
"66 258 CURVE SMOOTH",
"66 376 OFFCURVE",
"147 507 OFFCURVE",
"287 507 CURVE SMOOTH",
"365 507 OFFCURVE",
"432 476 OFFCURVE",
"471 404 CURVE",
"490 411 LINE",
"475 445 OFFCURVE",
"401 548 OFFCURVE",
"401 620 CURVE SMOOTH",
"401 681 OFFCURVE",
"437 733 OFFCURVE",
"511 733 CURVE SMOOTH",
"645 733 OFFCURVE",
"631 646 OFFCURVE",
"634 519 CURVE",
"559 519 LINE",
"559 499 LINE",
"634 499 LINE",
"634 75 LINE SMOOTH",
"634 27 OFFCURVE",
"676 -5 OFFCURVE",
"724 -5 CURVE SMOOTH",
"779 -5 OFFCURVE",
"818 23 OFFCURVE",
"819 24 CURVE"
);
}
);
width = 828;
},
{
layerId = "A8272220-FCE5-4C48-BDEF-D37440F7149C";
paths = (
{
closed = 1;
nodes = (
"870 96 LINE",
"859 91 OFFCURVE",
"828 74 OFFCURVE",
"793 74 CURVE SMOOTH",
"762 74 OFFCURVE",
"736 91 OFFCURVE",
"734 129 CURVE",
"734 453 LINE",
"850 453 LINE",
"850 522 LINE",
"734 522 LINE",
"734 645 OFFCURVE",
"734 744 OFFCURVE",
"568 744 CURVE SMOOTH",
"463 744 OFFCURVE",
"407 686 OFFCURVE",
"407 602 CURVE SMOOTH",
"407 559 OFFCURVE",
"427 520 OFFCURVE",
"445 488 CURVE",
"406 515 OFFCURVE",
"364 531 OFFCURVE",
"299 531 CURVE SMOOTH",
"135 531 OFFCURVE",
"36 401 OFFCURVE",
"36 260 CURVE SMOOTH",
"36 122 OFFCURVE",
"140 -10 OFFCURVE",
"301 -10 CURVE SMOOTH",
"398 -10 OFFCURVE",
"492 39 OFFCURVE",
"525 121 CURVE",
"439 147 LINE",
"422 97 OFFCURVE",
"352 66 OFFCURVE",
"301 66 CURVE SMOOTH",
"203 66 OFFCURVE",
"126 154 OFFCURVE",
"126 260 CURVE SMOOTH",
"126 359 OFFCURVE",
"191 455 OFFCURVE",
"296 455 CURVE SMOOTH",
"355 455 OFFCURVE",
"405 430 OFFCURVE",
"435 377 CURVE",
"521 404 LINE",
"505 439 OFFCURVE",
"449 531 OFFCURVE",
"449 598 CURVE SMOOTH",
"449 654 OFFCURVE",
"478 700 OFFCURVE",
"545 700 CURVE SMOOTH",
"647 700 OFFCURVE",
"646 623 OFFCURVE",
"646 522 CURVE",
"575 522 LINE",
"575 453 LINE",
"646 453 LINE",
"646 102 LINE SMOOTH",
"646 27 OFFCURVE",
"700 -7 OFFCURVE",
"763 -7 CURVE SMOOTH",
"820 -7 OFFCURVE",
"869 16 OFFCURVE",
"890 26 CURVE"
);
}
);
width = 901;
},
{
layerId = "CD86D743-087E-48CD-95ED-391136C80322";
paths = (
{
closed = 1;
nodes = (
"962 179 LINE",
"938 169 OFFCURVE",
"913 162 OFFCURVE",
"894 162 CURVE SMOOTH",
"869 162 OFFCURVE",
"853 174 OFFCURVE",
"853 209 CURVE SMOOTH",
"853 383 LINE",
"956 383 LINE",
"956 526 LINE",
"853 526 LINE",
"853 616 OFFCURVE",
"852 730 OFFCURVE",
"653 730 CURVE SMOOTH",
"516 730 OFFCURVE",
"444 676 OFFCURVE",
"444 576 CURVE SMOOTH",
"444 553 OFFCURVE",
"448 527 OFFCURVE",
"458 499 CURVE",
"413 523 OFFCURVE",
"378 536 OFFCURVE",
"315 536 CURVE SMOOTH",
"118 536 OFFCURVE",
"19 407 OFFCURVE",
"19 264 CURVE SMOOTH",
"19 118 OFFCURVE",
"122 -10 OFFCURVE",
"308 -10 CURVE SMOOTH",
"435 -10 OFFCURVE",
"522 49 OFFCURVE",
"565 133 CURVE",
"380 189 LINE",
"363 164 OFFCURVE",
"338 150 OFFCURVE",
"307 150 CURVE SMOOTH",
"255 150 OFFCURVE",
"214 192 OFFCURVE",
"214 263 CURVE SMOOTH",
"214 334 OFFCURVE",
"255 376 OFFCURVE",
"307 376 CURVE SMOOTH",
"338 376 OFFCURVE",
"363 362 OFFCURVE",
"380 337 CURVE",
"565 393 LINE",
"548 430 OFFCURVE",
"520 506 OFFCURVE",
"520 566 CURVE SMOOTH",
"520 614 OFFCURVE",
"538 651 OFFCURVE",
"595 651 CURVE SMOOTH",
"649 651 OFFCURVE",
"662 618 OFFCURVE",
"663 526 CURVE",
"598 526 LINE",
"598 383 LINE",
"663 383 LINE",
"663 142 LINE SMOOTH",
"663 28 OFFCURVE",
"735 -11 OFFCURVE",
"821 -11 CURVE SMOOTH",
"879 -11 OFFCURVE",
"943 6 OFFCURVE",
"996 29 CURVE"
);
}
);
width = 1002;
}
);
userData = {
org.robofab.fontlab.mark = 0;
};
},
{
glyphname = f_f;
lastChange = "2016-08-09 17:10:18 +0000";
layers = (
{
layerId = "DC0D5209-C0CE-4187-A591-293A64199C8F";
paths = (
{
closed = 1;
nodes = (
"477 720 CURVE SMOOTH",
"525 720 OFFCURVE",
"540 701 OFFCURVE",
"546 694 CURVE",
"562 706 LINE",
"562 709 OFFCURVE",
"542 740 OFFCURVE",
"474 740 CURVE SMOOTH",
"412 740 OFFCURVE",
"374 714 OFFCURVE",
"347 674 CURVE",
"333 685 OFFCURVE",
"294 700 OFFCURVE",
"249 700 CURVE SMOOTH",
"141 700 OFFCURVE",
"103 611 OFFCURVE",
"103 530 CURVE SMOOTH",
"103 519 LINE",
"28 519 LINE",
"28 499 LINE",
"103 499 LINE",
"103 0 LINE",
"123 0 LINE",
"123 499 LINE",
"310 499 LINE",
"310 0 LINE",
"330 0 LINE",
"330 499 LINE",
"515 499 LINE",
"515 519 LINE",
"330 519 LINE",
"330 540 LINE SMOOTH",
"330 621 OFFCURVE",
"366 720 OFFCURVE"
);
},
{
closed = 1;
nodes = (
"310 519 CURVE SMOOTH",
"123 519 LINE",
"123 530 LINE SMOOTH",
"123 589 OFFCURVE",
"148 680 OFFCURVE",
"250 680 CURVE SMOOTH",
"271 680 OFFCURVE",
"313 676 OFFCURVE",
"337 656 CURVE",
"318 620 OFFCURVE",
"310 577 OFFCURVE"
);
}
);
width = 537;
},
{
layerId = "A8272220-FCE5-4C48-BDEF-D37440F7149C";
paths = (
{
closed = 1;
nodes = (
"531 664 CURVE SMOOTH",
"569 664 OFFCURVE",
"588 653 OFFCURVE",
"604 643 CURVE",
"626 708 LINE",
"605 717 OFFCURVE",
"574 740 OFFCURVE",
"515 740 CURVE SMOOTH",
"453 740 OFFCURVE",
"410 714 OFFCURVE",
"381 675 CURVE",
"351 689 OFFCURVE",
"311 702 OFFCURVE",
"263 702 CURVE SMOOTH",
"156 702 OFFCURVE",
"101 618 OFFCURVE",
"99 526 CURVE SMOOTH",
"99 522 LINE",
"28 522 LINE",
"28 453 LINE",
"99 453 LINE",
"99 0 LINE",
"187 0 LINE",
"187 453 LINE",
"339 453 LINE",
"339 0 LINE",
"427 0 LINE",
"427 453 LINE",
"584 453 LINE",
"584 522 LINE",
"427 522 LINE",
"427 536 LINE SMOOTH",
"427 598 OFFCURVE",
"457 664 OFFCURVE"
);
},
{
closed = 1;
nodes = (
"339 522 CURVE",
"187 522 LINE",
"187 527 LINE SMOOTH",
"188 580 OFFCURVE",
"212 626 OFFCURVE",
"279 626 CURVE SMOOTH",
"302 626 OFFCURVE",
"334 622 OFFCURVE",
"355 608 CURVE",
"344 587 OFFCURVE",
"339 547 OFFCURVE"
);
}
);
width = 601;
},
{
layerId = "CD86D743-087E-48CD-95ED-391136C80322";
paths = (
{
closed = 1;
nodes = (
"611 580 CURVE SMOOTH",
"630 580 OFFCURVE",
"659 574 OFFCURVE",
"681 566 CURVE",
"713 710 LINE",
"660 730 OFFCURVE",
"611 740 OFFCURVE",
"570 740 CURVE SMOOTH",
"506 740 OFFCURVE",
"457 716 OFFCURVE",
"423 676 CURVE",
"370 696 OFFCURVE",
"322 706 OFFCURVE",
"281 706 CURVE SMOOTH",
"161 706 OFFCURVE",
"85 620 OFFCURVE",
"85 488 CURVE SMOOTH",
"85 465 LINE",
"20 465 LINE",
"20 322 LINE",
"85 322 LINE",
"85 0 LINE",
"275 0 LINE",
"275 322 LINE",
"374 322 LINE",
"374 0 LINE",
"564 0 LINE",
"564 322 LINE",
"679 322 LINE",
"679 465 LINE",
"564 465 LINE",
"564 529 LINE SMOOTH",
"564 563 OFFCURVE",
"579 580 OFFCURVE"
);
},
{
closed = 1;
nodes = (
"374 513 OFFCURVE",
"374 489 OFFCURVE",
"374 465 CURVE",
"275 465 LINE",
"275 495 LINE SMOOTH",
"275 529 OFFCURVE",
"290 546 OFFCURVE",
"321 546 CURVE SMOOTH",
"336 546 OFFCURVE",
"356 542 OFFCURVE",
"374 537 CURVE"
);
}
);
width = 691;
}
);
userData = {
org.robofab.fontlab.mark = 0;
};
},
{
glyphname = f_f_i;
lastChange = "2016-08-01 09:41:41 +0000";
layers = (
{
layerId = "DC0D5209-C0CE-4187-A591-293A64199C8F";
paths = (
{
closed = 1;
nodes = (
"103 0 LINE",
"123 0 LINE",
"123 499 LINE",
"310 499 LINE",
"310 0 LINE",
"330 0 LINE",
"330 499 LINE",
"555 499 LINE",
"555 0 LINE",
"575 0 LINE",
"575 519 LINE",
"330 519 LINE",
"330 540 LINE SMOOTH",
"330 622 OFFCURVE",
"366 720 OFFCURVE",
"477 720 CURVE SMOOTH",
"519 720 OFFCURVE",
"565 706 OFFCURVE",
"576 694 CURVE",
"592 706 LINE",
"592 709 OFFCURVE",
"542 740 OFFCURVE",
"474 740 CURVE SMOOTH",
"412 740 OFFCURVE",
"374 714 OFFCURVE",
"347 674 CURVE",
"333 685 OFFCURVE",
"294 700 OFFCURVE",
"250 700 CURVE SMOOTH",
"141 700 OFFCURVE",
"103 610 OFFCURVE",
"103 529 CURVE SMOOTH",
"103 519 LINE",
"28 519 LINE",
"28 499 LINE",
"103 499 LINE"
);
},
{
closed = 1;
nodes = (
"123 519 LINE",
"123 529 LINE SMOOTH",
"123 588 OFFCURVE",
"148 680 OFFCURVE",
"250 680 CURVE SMOOTH",
"271 680 OFFCURVE",
"313 676 OFFCURVE",
"337 656 CURVE",
"318 620 OFFCURVE",
"310 576 OFFCURVE",
"310 519 CURVE"
);
}
);
width = 659;
},
{
layerId = "A8272220-FCE5-4C48-BDEF-D37440F7149C";
paths = (
{
closed = 1;
nodes = (
"99 0 LINE",
"187 0 LINE",
"187 453 LINE",
"339 453 LINE",
"339 0 LINE",
"427 0 LINE",
"427 453 LINE",
"606 453 LINE",
"606 0 LINE",
"694 0 LINE",
"694 522 LINE",
"427 522 LINE",
"427 536 LINE SMOOTH",
"427 598 OFFCURVE",
"459 664 OFFCURVE",
"539 664 CURVE SMOOTH",
"586 664 OFFCURVE",
"633 645 OFFCURVE",
"658 623 CURVE",
"696 688 LINE",
"660 711 OFFCURVE",
"601 740 OFFCURVE",
"531 740 CURVE SMOOTH",
"463 740 OFFCURVE",
"413 714 OFFCURVE",
"381 675 CURVE",
"351 689 OFFCURVE",
"311 702 OFFCURVE",
"263 702 CURVE SMOOTH",
"156 702 OFFCURVE",
"99 611 OFFCURVE",
"99 526 CURVE SMOOTH",
"99 522 LINE",
"28 522 LINE",
"28 453 LINE",
"99 453 LINE"
);
},
{
closed = 1;
nodes = (
"187 522 LINE",
"187 527 LINE SMOOTH",
"187 576 OFFCURVE",
"212 626 OFFCURVE",
"279 626 CURVE SMOOTH",
"302 626 OFFCURVE",
"334 622 OFFCURVE",
"355 608 CURVE",
"344 587 OFFCURVE",
"339 547 OFFCURVE",
"339 522 CURVE"
);
}
);
width = 765;
},
{
layerId = "CD86D743-087E-48CD-95ED-391136C80322";
paths = (
{
closed = 1;
nodes = (
"85 0 LINE",
"275 0 LINE",
"275 322 LINE",
"374 322 LINE",
"374 0 LINE",
"564 0 LINE",
"564 322 LINE",
"673 322 LINE",
"673 0 LINE",
"864 0 LINE",
"864 465 LINE",
"564 465 LINE",
"564 529 LINE SMOOTH",
"564 563 OFFCURVE",
"585 580 OFFCURVE",
"631 580 CURVE SMOOTH",
"671 580 OFFCURVE",
"728 554 OFFCURVE",
"771 516 CURVE",
"843 660 LINE",
"754 715 OFFCURVE",
"678 740 OFFCURVE",
"610 740 CURVE SMOOTH",
"530 740 OFFCURVE",
"465 716 OFFCURVE",
"423 676 CURVE",
"370 696 OFFCURVE",
"322 706 OFFCURVE",
"281 706 CURVE SMOOTH",
"161 706 OFFCURVE",
"85 620 OFFCURVE",
"85 488 CURVE SMOOTH",
"85 465 LINE",
"20 465 LINE",
"20 322 LINE",
"85 322 LINE"
);
},
{
closed = 1;
nodes = (
"275 465 LINE",
"275 495 LINE SMOOTH",
"275 529 OFFCURVE",
"290 546 OFFCURVE",
"321 546 CURVE SMOOTH",
"336 546 OFFCURVE",
"356 542 OFFCURVE",
"374 537 CURVE",
"374 465 LINE"
);
}
);
width = 911;
}
);
userData = {
org.robofab.fontlab.mark = 0;
};
},
{
glyphname = f_f_l;
lastChange = "2016-08-01 09:41:41 +0000";
layers = (
{
layerId = "DC0D5209-C0CE-4187-A591-293A64199C8F";
paths = (
{
closed = 1;
nodes = (
"676 -5 CURVE SMOOTH",
"702 -5 OFFCURVE",
"740 3 OFFCURVE",
"741 4 CURVE",
"732 23 LINE",
"730 23 OFFCURVE",
"696 14 OFFCURVE",
"674 14 CURVE SMOOTH",
"630 14 OFFCURVE",
"611 49 OFFCURVE",
"611 77 CURVE SMOOTH",
"611 614 LINE SMOOTH",
"611 684 OFFCURVE",
"558 740 OFFCURVE",
"468 740 CURVE SMOOTH",
"408 740 OFFCURVE",
"370 715 OFFCURVE",
"346 675 CURVE",
"332 685 OFFCURVE",
"305 700 OFFCURVE",
"258 700 CURVE SMOOTH",
"153 700 OFFCURVE",
"103 626 OFFCURVE",
"103 528 CURVE SMOOTH",
"103 519 LINE",
"28 519 LINE",
"28 499 LINE",
"103 499 LINE",
"103 0 LINE",
"123 0 LINE",
"123 499 LINE",
"315 499 LINE",
"315 0 LINE",
"335 0 LINE",
"335 499 LINE",
"460 499 LINE",
"460 519 LINE",
"335 519 LINE",
"335 540 LINE SMOOTH",
"335 626 OFFCURVE",
"369 720 OFFCURVE",
"473 720 CURVE SMOOTH",
"550 720 OFFCURVE",
"591 669 OFFCURVE",
"591 613 CURVE SMOOTH",
"591 77 LINE SMOOTH",
"591 33 OFFCURVE",
"618 -5 OFFCURVE"
);
},
{
closed = 1;
nodes = (
"123 519 LINE",
"123 528 LINE SMOOTH",
"123 601 OFFCURVE",
"158 680 OFFCURVE",
"259 680 CURVE SMOOTH",
"282 680 OFFCURVE",
"313 676 OFFCURVE",
"336 657 CURVE",
"321 624 OFFCURVE",
"315 583 OFFCURVE",
"315 519 CURVE"
);
}
);
width = 740;
},
{
layerId = "A8272220-FCE5-4C48-BDEF-D37440F7149C";
paths = (
{
closed = 1;
nodes = (
"748 -7 CURVE SMOOTH",
"797 -7 OFFCURVE",
"850 10 OFFCURVE",
"851 12 CURVE",
"837 84 LINE",
"835 84 OFFCURVE",
"802 72 OFFCURVE",
"777 72 CURVE SMOOTH",
"741 72 OFFCURVE",
"724 106 OFFCURVE",
"724 133 CURVE SMOOTH",
"724 572 LINE SMOOTH",
"724 670 OFFCURVE",
"661 740 OFFCURVE",
"534 740 CURVE SMOOTH",
"465 740 OFFCURVE",
"413 717 OFFCURVE",
"381 675 CURVE",
"351 689 OFFCURVE",
"317 702 OFFCURVE",
"268 702 CURVE SMOOTH",
"163 702 OFFCURVE",
"99 617 OFFCURVE",
"99 526 CURVE SMOOTH",
"99 522 LINE",
"28 522 LINE",
"28 453 LINE",
"99 453 LINE",
"99 0 LINE",
"187 0 LINE",
"187 453 LINE",
"342 453 LINE",
"342 0 LINE",
"430 0 LINE",
"430 453 LINE",
"532 453 LINE",
"532 522 LINE",
"430 522 LINE",
"430 526 LINE SMOOTH",
"430 601 OFFCURVE",
"459 664 OFFCURVE",
"535 664 CURVE SMOOTH",
"613 664 OFFCURVE",
"636 604 OFFCURVE",
"636 553 CURVE SMOOTH",
"636 93 LINE SMOOTH",
"636 39 OFFCURVE",
"678 -7 OFFCURVE"
);
},
{
closed = 1;
nodes = (
"187 522 LINE",
"187 529 LINE SMOOTH",
"187 575 OFFCURVE",
"220 626 OFFCURVE",
"285 626 CURVE SMOOTH",
"307 626 OFFCURVE",
"333 623 OFFCURVE",
"354 609 CURVE",
"345 590 OFFCURVE",
"342 550 OFFCURVE",
"342 522 CURVE"
);
}
);
width = 849;
},
{
layerId = "CD86D743-087E-48CD-95ED-391136C80322";
paths = (
{
closed = 1;
nodes = (
"855 -9 CURVE SMOOTH",
"927 -9 OFFCURVE",
"1005 21 OFFCURVE",
"1008 24 CURVE",
"985 176 LINE",
"983 176 OFFCURVE",
"950 160 OFFCURVE",
"928 160 CURVE SMOOTH",
"896 160 OFFCURVE",
"885 192 OFFCURVE",
"885 217 CURVE SMOOTH",
"885 510 LINE SMOOTH",
"885 650 OFFCURVE",
"806 740 OFFCURVE",
"625 740 CURVE SMOOTH",
"539 740 OFFCURVE",
"468 720 OFFCURVE",
"424 676 CURVE",
"371 696 OFFCURVE",
"323 706 OFFCURVE",
"278 706 CURVE SMOOTH",
"162 706 OFFCURVE",
"85 620 OFFCURVE",
"85 488 CURVE SMOOTH",
"85 465 LINE",
"20 465 LINE",
"20 322 LINE",
"85 322 LINE",
"85 0 LINE",
"275 0 LINE",
"275 322 LINE",
"373 322 LINE",
"373 0 LINE",
"563 0 LINE",
"563 322 LINE",
"632 322 LINE",
"632 465 LINE",
"563 465 LINE",
"563 494 LINE SMOOTH",
"563 540 OFFCURVE",
"579 580 OFFCURVE",
"627 580 CURVE SMOOTH",
"687 580 OFFCURVE",
"695 541 OFFCURVE",
"695 483 CURVE SMOOTH",
"695 117 LINE SMOOTH",
"695 49 OFFCURVE",
"755 -9 OFFCURVE"
);
},
{
closed = 1;
nodes = (
"275 465 LINE",
"275 495 LINE SMOOTH",
"275 529 OFFCURVE",
"290 546 OFFCURVE",
"321 546 CURVE SMOOTH",
"335 546 OFFCURVE",
"355 543 OFFCURVE",
"373 538 CURVE",
"373 465 LINE"
);
}
);
width = 1006;
}
);
userData = {
org.robofab.fontlab.mark = 0;
};
},
{
glyphname = f_i;
lastChange = "2016-08-01 09:41:41 +0000";
layers = (
{
layerId = "DC0D5209-C0CE-4187-A591-293A64199C8F";
paths = (
{
closed = 1;
nodes = (
"103 0 LINE",
"123 0 LINE",
"123 499 LINE",
"348 499 LINE",
"348 0 LINE",
"368 0 LINE",
"368 519 LINE",
"123 519 LINE",
"123 540 LINE SMOOTH",
"123 622 OFFCURVE",
"162 720 OFFCURVE",
"265 720 CURVE SMOOTH",
"316 720 OFFCURVE",
"357 706 OFFCURVE",
"369 694 CURVE",
"385 706 LINE",
"385 709 OFFCURVE",
"337 740 OFFCURVE",
"265 740 CURVE SMOOTH",
"142 740 OFFCURVE",
"103 624 OFFCURVE",
"103 540 CURVE SMOOTH",
"103 519 LINE",
"28 519 LINE",
"28 499 LINE",
"103 499 LINE"
);
}
);
width = 452;
},
{
layerId = "A8272220-FCE5-4C48-BDEF-D37440F7149C";
paths = (
{
closed = 1;
nodes = (
"99 0 LINE",
"187 0 LINE",
"187 453 LINE",
"366 453 LINE",
"366 0 LINE",
"454 0 LINE",
"454 522 LINE",
"187 522 LINE",
"187 536 LINE SMOOTH",
"187 598 OFFCURVE",
"220 664 OFFCURVE",
"297 664 CURVE SMOOTH",
"346 664 OFFCURVE",
"392 646 OFFCURVE",
"418 623 CURVE",
"456 688 LINE",
"423 711 OFFCURVE",
"366 740 OFFCURVE",
"292 740 CURVE SMOOTH",
"162 740 OFFCURVE",
"99 636 OFFCURVE",
"99 533 CURVE SMOOTH",
"99 522 LINE",
"28 522 LINE",
"28 453 LINE",
"99 453 LINE"
);
}
);
width = 525;
},
{
layerId = "CD86D743-087E-48CD-95ED-391136C80322";
paths = (
{
closed = 1;
nodes = (
"85 0 LINE",
"275 0 LINE",
"275 322 LINE",
"384 322 LINE",
"384 0 LINE",
"574 0 LINE",
"574 465 LINE",
"275 465 LINE",
"275 529 LINE SMOOTH",
"275 563 OFFCURVE",
"298 580 OFFCURVE",
"337 580 CURVE SMOOTH",
"383 580 OFFCURVE",
"436 556 OFFCURVE",
"482 516 CURVE",
"554 660 LINE",
"470 714 OFFCURVE",
"401 740 OFFCURVE",
"324 740 CURVE SMOOTH",
"184 740 OFFCURVE",
"85 654 OFFCURVE",
"85 522 CURVE SMOOTH",
"85 465 LINE",
"20 465 LINE",
"20 322 LINE",
"85 322 LINE"
);
}
);
width = 621;
}
);
userData = {
org.robofab.fontlab.mark = 0;
};
},
{
glyphname = f_l;
lastChange = "2016-08-01 09:41:41 +0000";
layers = (
{
layerId = "DC0D5209-C0CE-4187-A591-293A64199C8F";
paths = (
{
closed = 1;
nodes = (
"520 23 LINE",
"519 23 OFFCURVE",
"486 14 OFFCURVE",
"459 14 CURVE SMOOTH",
"420 14 OFFCURVE",
"399 48 OFFCURVE",
"399 77 CURVE SMOOTH",
"399 614 LINE SMOOTH",
"399 684 OFFCURVE",
"347 740 OFFCURVE",
"255 740 CURVE SMOOTH",
"144 740 OFFCURVE",
"103 649 OFFCURVE",
"103 540 CURVE SMOOTH",
"103 519 LINE",
"28 519 LINE",
"28 499 LINE",
"103 499 LINE",
"103 0 LINE",
"123 0 LINE",
"123 499 LINE",
"248 499 LINE",
"248 519 LINE",
"123 519 LINE",
"123 540 LINE SMOOTH",
"123 625 OFFCURVE",
"160 720 OFFCURVE",
"255 720 CURVE SMOOTH",
"344 720 OFFCURVE",
"379 666 OFFCURVE",
"379 613 CURVE SMOOTH",
"379 77 LINE SMOOTH",
"379 33 OFFCURVE",
"408 -5 OFFCURVE",
"458 -5 CURVE SMOOTH",
"493 -5 OFFCURVE",
"528 3 OFFCURVE",
"529 4 CURVE"
);
}
);
width = 528;
},
{
layerId = "A8272220-FCE5-4C48-BDEF-D37440F7149C";
paths = (
{
closed = 1;
nodes = (
"594 84 LINE",
"593 84 OFFCURVE",
"560 72 OFFCURVE",
"535 72 CURVE SMOOTH",
"499 72 OFFCURVE",
"482 106 OFFCURVE",
"482 133 CURVE SMOOTH",
"482 572 LINE SMOOTH",
"482 670 OFFCURVE",
"419 740 OFFCURVE",
"291 740 CURVE SMOOTH",
"165 740 OFFCURVE",
"99 661 OFFCURVE",
"99 540 CURVE SMOOTH",
"99 522 LINE",
"28 522 LINE",
"28 453 LINE",
"99 453 LINE",
"99 0 LINE",
"187 0 LINE",
"187 453 LINE",
"290 453 LINE",
"290 522 LINE",
"187 522 LINE",
"187 531 LINE SMOOTH",
"189 609 OFFCURVE",
"219 664 OFFCURVE",
"292 664 CURVE SMOOTH",
"371 664 OFFCURVE",
"394 604 OFFCURVE",
"394 553 CURVE SMOOTH",
"394 93 LINE SMOOTH",
"394 39 OFFCURVE",
"435 -7 OFFCURVE",
"505 -7 CURVE SMOOTH",
"555 -7 OFFCURVE",
"607 10 OFFCURVE",
"609 12 CURVE"
);
}
);
width = 606;
},
{
layerId = "CD86D743-087E-48CD-95ED-391136C80322";
paths = (
{
closed = 1;
nodes = (
"697 176 LINE",
"695 176 OFFCURVE",
"662 160 OFFCURVE",
"640 160 CURVE SMOOTH",
"608 160 OFFCURVE",
"597 192 OFFCURVE",
"597 217 CURVE SMOOTH",
"597 510 LINE SMOOTH",
"597 650 OFFCURVE",
"518 740 OFFCURVE",
"337 740 CURVE SMOOTH",
"188 740 OFFCURVE",
"85 679 OFFCURVE",
"85 540 CURVE SMOOTH",
"85 465 LINE",
"20 465 LINE",
"20 322 LINE",
"85 322 LINE",
"85 0 LINE",
"275 0 LINE",
"275 322 LINE",
"344 322 LINE",
"344 465 LINE",
"275 465 LINE",
"275 494 LINE SMOOTH",
"275 545 OFFCURVE",
"291 580 OFFCURVE",
"345 580 CURVE SMOOTH",
"399 580 OFFCURVE",
"407 545 OFFCURVE",
"407 473 CURVE SMOOTH",
"407 117 LINE SMOOTH",
"407 49 OFFCURVE",
"467 -9 OFFCURVE",
"567 -9 CURVE SMOOTH",
"639 -9 OFFCURVE",
"717 21 OFFCURVE",
"720 24 CURVE"
);
}
);
width = 718;
}
);
userData = {
org.robofab.fontlab.mark = 0;
};
},
{
glyphname = s_t;
lastChange = "2016-08-01 09:41:41 +0000";
layers = (
{
layerId = "DC0D5209-C0CE-4187-A591-293A64199C8F";
paths = (
{
closed = 1;
nodes = (
"749 40 LINE",
"746 38 OFFCURVE",
"709 15 OFFCURVE",
"668 15 CURVE SMOOTH",
"629 15 OFFCURVE",
"595 36 OFFCURVE",
"595 75 CURVE SMOOTH",
"595 499 LINE",
"720 499 LINE",
"720 519 LINE",
"595 519 LINE",
"595 677 OFFCURVE",
"592 753 OFFCURVE",
"468 753 CURVE SMOOTH",
"356 753 OFFCURVE",
"322 692 OFFCURVE",
"322 621 CURVE SMOOTH",
"322 567 OFFCURVE",
"342 541 OFFCURVE",
"360 497 CURVE",
"331 516 OFFCURVE",
"290 527 OFFCURVE",
"240 527 CURVE SMOOTH",
"153 527 OFFCURVE",
"53 494 OFFCURVE",
"53 383 CURVE SMOOTH",
"53 272 OFFCURVE",
"152 254 OFFCURVE",
"239 248 CURVE SMOOTH",
"299 244 OFFCURVE",
"419 239 OFFCURVE",
"419 135 CURVE SMOOTH",
"419 42 OFFCURVE",
"322 10 OFFCURVE",
"245 10 CURVE SMOOTH",
"176 10 OFFCURVE",
"115 35 OFFCURVE",
"61 85 CURVE",
"46 72 LINE",
"91 27 OFFCURVE",
"157 -10 OFFCURVE",
"243 -10 CURVE SMOOTH",
"329 -10 OFFCURVE",
"439 26 OFFCURVE",
"439 135 CURVE SMOOTH",
"439 253 OFFCURVE",
"311 263 OFFCURVE",
"239 268 CURVE SMOOTH",
"181 272 OFFCURVE",
"73 280 OFFCURVE",
"73 385 CURVE SMOOTH",
"73 478 OFFCURVE",
"159 507 OFFCURVE",
"240 507 CURVE SMOOTH",
"292 507 OFFCURVE",
"351 495 OFFCURVE",
"384 444 CURVE",
"402 452 LINE",
"405 452 OFFCURVE",
"342 532 OFFCURVE",
"342 624 CURVE SMOOTH",
"342 686 OFFCURVE",
"371 733 OFFCURVE",
"470 733 CURVE SMOOTH",
"561 733 OFFCURVE",
"575 693 OFFCURVE",
"575 519 CURVE",
"500 519 LINE",
"500 499 LINE",
"575 499 LINE",
"575 75 LINE SMOOTH",
"575 27 OFFCURVE",
"615 -5 OFFCURVE",
"668 -5 CURVE SMOOTH",
"716 -5 OFFCURVE",
"759 22 OFFCURVE",
"760 24 CURVE"
);
}
);
width = 769;
},
{
layerId = "A8272220-FCE5-4C48-BDEF-D37440F7149C";
paths = (
{
closed = 1;
nodes = (
"797 96 LINE",
"786 90 OFFCURVE",
"753 74 OFFCURVE",
"721 74 CURVE SMOOTH",
"688 74 OFFCURVE",
"661 91 OFFCURVE",
"661 129 CURVE SMOOTH",
"661 453 LINE",
"777 453 LINE",
"777 522 LINE",
"661 522 LINE",
"661 668 OFFCURVE",
"652 744 OFFCURVE",
"503 744 CURVE SMOOTH",
"378 744 OFFCURVE",
"334 681 OFFCURVE",
"334 605 CURVE SMOOTH",
"334 561 OFFCURVE",
"347 535 OFFCURVE",
"364 500 CURVE",
"329 522 OFFCURVE",
"279 531 OFFCURVE",
"238 531 CURVE SMOOTH",
"144 531 OFFCURVE",
"45 482 OFFCURVE",
"45 369 CURVE SMOOTH",
"45 270 OFFCURVE",
"124 246 OFFCURVE",
"232 227 CURVE SMOOTH",
"295 216 OFFCURVE",
"376 211 OFFCURVE",
"376 140 CURVE SMOOTH",
"376 78 OFFCURVE",
"312 55 OFFCURVE",
"252 55 CURVE SMOOTH",
"190 55 OFFCURVE",
"127 79 OFFCURVE",
"67 124 CURVE",
"31 64 LINE",
"83 23 OFFCURVE",
"168 -10 OFFCURVE",
"253 -10 CURVE SMOOTH",
"358 -10 OFFCURVE",
"457 38 OFFCURVE",
"457 149 CURVE SMOOTH",
"457 253 OFFCURVE",
"364 279 OFFCURVE",
"257 294 CURVE SMOOTH",
"198 302 OFFCURVE",
"124 312 OFFCURVE",
"124 382 CURVE SMOOTH",
"124 446 OFFCURVE",
"183 467 OFFCURVE",
"243 467 CURVE SMOOTH",
"289 467 OFFCURVE",
"342 454 OFFCURVE",
"389 410 CURVE",
"428 463 LINE",
"419 474 OFFCURVE",
"376 536 OFFCURVE",
"376 604 CURVE SMOOTH",
"376 658 OFFCURVE",
"405 700 OFFCURVE",
"484 700 CURVE SMOOTH",
"560 700 OFFCURVE",
"573 661 OFFCURVE",
"573 522 CURVE",
"502 522 LINE",
"502 453 LINE",
"573 453 LINE",
"573 102 LINE SMOOTH",
"573 27 OFFCURVE",
"626 -7 OFFCURVE",
"692 -7 CURVE SMOOTH",
"744 -7 OFFCURVE",
"795 16 OFFCURVE",
"817 26 CURVE"
);
}
);
width = 828;
},
{
layerId = "CD86D743-087E-48CD-95ED-391136C80322";
paths = (
{
closed = 1;
nodes = (
"870 179 LINE",
"846 169 OFFCURVE",
"821 162 OFFCURVE",
"802 162 CURVE SMOOTH",
"777 162 OFFCURVE",
"761 174 OFFCURVE",
"761 209 CURVE SMOOTH",
"761 383 LINE",
"864 383 LINE",
"864 526 LINE",
"761 526 LINE",
"761 655 OFFCURVE",
"742 730 OFFCURVE",
"557 730 CURVE SMOOTH",
"413 730 OFFCURVE",
"352 664 OFFCURVE",
"352 580 CURVE SMOOTH",
"352 551 OFFCURVE",
"357 527 OFFCURVE",
"371 505 CURVE",
"326 532 OFFCURVE",
"264 537 OFFCURVE",
"236 537 CURVE SMOOTH",
"131 537 OFFCURVE",
"35 463 OFFCURVE",
"35 349 CURVE SMOOTH",
"35 267 OFFCURVE",
"84 235 OFFCURVE",
"222 195 CURVE SMOOTH",
"289 176 OFFCURVE",
"312 170 OFFCURVE",
"312 148 CURVE SMOOTH",
"312 131 OFFCURVE",
"297 123 OFFCURVE",
"264 123 CURVE SMOOTH",
"211 123 OFFCURVE",
"147 144 OFFCURVE",
"78 182 CURVE",
"9 53 LINE",
"73 17 OFFCURVE",
"185 -10 OFFCURVE",
"270 -10 CURVE SMOOTH",
"402 -10 OFFCURVE",
"485 55 OFFCURVE",
"485 170 CURVE SMOOTH",
"485 253 OFFCURVE",
"442 290 OFFCURVE",
"285 333 CURVE SMOOTH",
"225 349 OFFCURVE",
"201 355 OFFCURVE",
"201 378 CURVE SMOOTH",
"201 397 OFFCURVE",
"219 406 OFFCURVE",
"249 406 CURVE SMOOTH",
"286 406 OFFCURVE",
"330 393 OFFCURVE",
"398 359 CURVE",
"467 480 LINE",
"442 508 OFFCURVE",
"428 543 OFFCURVE",
"428 574 CURVE SMOOTH",
"428 616 OFFCURVE",
"456 651 OFFCURVE",
"507 651 CURVE SMOOTH",
"560 651 OFFCURVE",
"570 614 OFFCURVE",
"571 526 CURVE",
"506 526 LINE",
"506 383 LINE",
"571 383 LINE",
"571 142 LINE SMOOTH",
"571 28 OFFCURVE",
"643 -11 OFFCURVE",
"729 -11 CURVE SMOOTH",
"787 -11 OFFCURVE",
"851 6 OFFCURVE",
"904 29 CURVE"
);
}
);
width = 910;
}
);
userData = {
org.robofab.fontlab.mark = 0;
};
},
{
glyphname = A.sc;
lastChange = "2016-08-01 09:41:41 +0000";
layers = (
{
anchors = (
{
name = bottom;
position = "{641, 8}";
},
{
name = top;
position = "{337, 707}";
}
);
layerId = "DC0D5209-C0CE-4187-A591-293A64199C8F";
paths = (
{
closed = 1;
nodes = (
"50 0 LINE",
"140 190 LINE",
"440 190 LINE",
"529 0 LINE",
"551 0 LINE",
"299 540 LINE",
"281 540 LINE",
"28 0 LINE"
);
},
{
closed = 1;
nodes = (
"432 209 LINE",
"147 209 LINE",
"290 512 LINE"
);
}
);
width = 580;
},
{
anchors = (
{
name = bottom;
position = "{626, 8}";
},
{
name = top;
position = "{322, 707}";
}
);
layerId = "A8272220-FCE5-4C48-BDEF-D37440F7149C";
paths = (
{
closed = 1;
nodes = (
"99 0 LINE",
"169 155 LINE",
"419 155 LINE",
"489 0 LINE",
"574 0 LINE",
"327 551 LINE",
"261 551 LINE",
"13 0 LINE"
);
},
{
closed = 1;
nodes = (
"399 225 LINE",
"187 225 LINE",
"294 452 LINE"
);
}
);
width = 588;
},
{
anchors = (
{
name = bottom;
position = "{604, 8}";
},
{
name = top;
position = "{300, 707}";
}
);
layerId = "CD86D743-087E-48CD-95ED-391136C80322";
paths = (
{
closed = 1;
nodes = (
"172 0 LINE",
"212 102 LINE",
"387 102 LINE",
"428 0 LINE",
"608 0 LINE",
"369 568 LINE",
"231 568 LINE",
"-9 0 LINE"
);
},
{
closed = 1;
nodes = (
"349 250 LINE",
"248 250 LINE",
"300 363 LINE"
);
}
);
width = 600;
}
);
userData = {
org.robofab.fontlab.mark = 0;
};
},
{
glyphname = B.sc;
lastChange = "2016-08-01 09:41:41 +0000";
layers = (
{
layerId = "DC0D5209-C0CE-4187-A591-293A64199C8F";
paths = (
{
closed = 1;
nodes = (
"512 140 CURVE SMOOTH",
"512 202 OFFCURVE",
"470 258 OFFCURVE",
"404 277 CURVE",
"455 298 OFFCURVE",
"487 347 OFFCURVE",
"487 402 CURVE SMOOTH",
"487 470 OFFCURVE",
"437 540 OFFCURVE",
"355 540 CURVE SMOOTH",
"95 540 LINE",
"95 0 LINE",
"365 0 LINE SMOOTH",
"446 0 OFFCURVE",
"512 64 OFFCURVE"
);
},
{
closed = 1;
nodes = (
"492 141 CURVE SMOOTH",
"492 80 OFFCURVE",
"436 19 OFFCURVE",
"365 19 CURVE SMOOTH",
"115 19 LINE",
"115 263 LINE",
"371 263 LINE SMOOTH",
"440 263 OFFCURVE",
"492 204 OFFCURVE"
);
},
{
closed = 1;
nodes = (
"353 520 LINE SMOOTH",
"421 520 OFFCURVE",
"467 464 OFFCURVE",
"467 401 CURVE SMOOTH",
"467 342 OFFCURVE",
"418 282 OFFCURVE",
"348 282 CURVE SMOOTH",
"115 282 LINE",
"115 520 LINE"
);
}
);
width = 567;
},
{
layerId = "A8272220-FCE5-4C48-BDEF-D37440F7149C";
paths = (
{
closed = 1;
nodes = (
"542 142 CURVE SMOOTH",
"542 212 OFFCURVE",
"499 264 OFFCURVE",
"431 283 CURVE",
"485 305 OFFCURVE",
"516 356 OFFCURVE",
"516 410 CURVE SMOOTH",
"516 480 OFFCURVE",
"464 551 OFFCURVE",
"380 551 CURVE SMOOTH",
"79 551 LINE",
"79 0 LINE",
"364 0 LINE SMOOTH",
"462 0 OFFCURVE",
"542 55 OFFCURVE"
);
},
{
closed = 1;
nodes = (
"461 157 CURVE SMOOTH",
"461 110 OFFCURVE",
"418 69 OFFCURVE",
"364 69 CURVE SMOOTH",
"159 69 LINE",
"159 246 LINE",
"370 246 LINE SMOOTH",
"422 246 OFFCURVE",
"461 204 OFFCURVE"
);
},
{
closed = 1;
nodes = (
"352 481 LINE",
"401 481 OFFCURVE",
"437 445 OFFCURVE",
"437 396 CURVE SMOOTH",
"437 348 OFFCURVE",
"398 311 OFFCURVE",
"347 311 CURVE SMOOTH",
"159 311 LINE",
"159 481 LINE"
);
}
);
width = 584;
},
{
layerId = "CD86D743-087E-48CD-95ED-391136C80322";
paths = (
{
closed = 1;
nodes = (
"587 145 CURVE SMOOTH",
"587 226 OFFCURVE",
"542 272 OFFCURVE",
"470 291 CURVE",
"530 315 OFFCURVE",
"560 370 OFFCURVE",
"560 422 CURVE SMOOTH",
"560 494 OFFCURVE",
"505 568 OFFCURVE",
"417 568 CURVE SMOOTH",
"55 568 LINE",
"55 0 LINE",
"363 0 LINE SMOOTH",
"485 0 OFFCURVE",
"587 41 OFFCURVE"
);
},
{
closed = 1;
nodes = (
"414 181 CURVE SMOOTH",
"414 155 OFFCURVE",
"391 143 OFFCURVE",
"363 143 CURVE SMOOTH",
"225 143 LINE",
"225 221 LINE",
"369 221 LINE SMOOTH",
"395 221 OFFCURVE",
"414 205 OFFCURVE"
);
},
{
closed = 1;
nodes = (
"349 423 LINE SMOOTH",
"371 423 OFFCURVE",
"391 416 OFFCURVE",
"391 389 CURVE SMOOTH",
"391 356 OFFCURVE",
"368 354 OFFCURVE",
"344 354 CURVE SMOOTH",
"225 354 LINE",
"225 423 LINE"
);
}
);
width = 610;
}
);
userData = {
org.robofab.fontlab.mark = 0;
};
},
{
glyphname = C.sc;
lastChange = "2016-08-01 09:41:41 +0000";
layers = (
{
anchors = (
{
name = bottom;
position = "{383, 0}";
},
{
name = top;
position = "{384, 707}";
}
);
layerId = "DC0D5209-C0CE-4187-A591-293A64199C8F";
paths = (
{
closed = 1;
nodes = (
"52 274 CURVE SMOOTH",
"52 137 OFFCURVE",
"164 -5 OFFCURVE",
"323 -5 CURVE SMOOTH",
"411 -5 OFFCURVE",
"513 40 OFFCURVE",
"553 121 CURVE",
"535 127 LINE",
"490 49 OFFCURVE",
"402 15 OFFCURVE",
"326 15 CURVE SMOOTH",
"184 15 OFFCURVE",
"72 136 OFFCURVE",
"72 271 CURVE SMOOTH",
"72 394 OFFCURVE",
"163 523 OFFCURVE",
"324 523 CURVE SMOOTH",
"397 523 OFFCURVE",
"477 496 OFFCURVE",
"521 417 CURVE",
"540 425 LINE",
"504 493 OFFCURVE",
"430 543 OFFCURVE",
"327 543 CURVE SMOOTH",
"152 543 OFFCURVE",
"52 403 OFFCURVE"
);
}
);
width = 597;
},
{
anchors = (
{
name = bottom;
position = "{377, 0}";
},
{
name = top;
position = "{378, 707}";
}
);
layerId = "A8272220-FCE5-4C48-BDEF-D37440F7149C";
paths = (
{
closed = 1;
nodes = (
"40 280 CURVE SMOOTH",
"40 139 OFFCURVE",
"157 -5 OFFCURVE",
"323 -5 CURVE SMOOTH",
"417 -5 OFFCURVE",
"525 41 OFFCURVE",
"564 123 CURVE",
"497 161 LINE",
"463 95 OFFCURVE",
"389 67 OFFCURVE",
"327 67 CURVE SMOOTH",
"208 67 OFFCURVE",
"121 166 OFFCURVE",
"121 276 CURVE SMOOTH",
"121 376 OFFCURVE",
"192 482 OFFCURVE",
"325 482 CURVE SMOOTH",
"385 482 OFFCURVE",
"455 460 OFFCURVE",
"490 392 CURVE",
"553 434 LINE",
"516 505 OFFCURVE",
"435 554 OFFCURVE",
"328 554 CURVE SMOOTH",
"145 554 OFFCURVE",
"40 413 OFFCURVE"
);
}
);
width = 594;
},
{
anchors = (
{
name = bottom;
position = "{369, 0}";
},
{
name = top;
position = "{370, 707}";
}
);
layerId = "CD86D743-087E-48CD-95ED-391136C80322";
paths = (
{
closed = 1;
nodes = (
"22 289 CURVE SMOOTH",
"22 143 OFFCURVE",
"147 -5 OFFCURVE",
"325 -5 CURVE SMOOTH",
"427 -5 OFFCURVE",
"544 43 OFFCURVE",
"581 127 CURVE",
"442 211 LINE",
"423 163 OFFCURVE",
"371 146 OFFCURVE",
"329 146 CURVE SMOOTH",
"245 146 OFFCURVE",
"195 211 OFFCURVE",
"195 284 CURVE SMOOTH",
"195 349 OFFCURVE",
"236 420 OFFCURVE",
"327 420 CURVE SMOOTH",
"368 420 OFFCURVE",
"422 406 OFFCURVE",
"444 354 CURVE",
"574 447 LINE",
"534 522 OFFCURVE",
"444 571 OFFCURVE",
"330 571 CURVE SMOOTH",
"136 571 OFFCURVE",
"22 428 OFFCURVE"
);
}
);
width = 592;
}
);
userData = {
org.robofab.fontlab.mark = 0;
};
},
{
glyphname = D.sc;
lastChange = "2016-08-01 09:41:41 +0000";
layers = (
{
anchors = (
{
name = top;
position = "{357, 707}";
}
);
layerId = "DC0D5209-C0CE-4187-A591-293A64199C8F";
paths = (
{
closed = 1;
nodes = (
"283 0 LINE SMOOTH",
"450 0 OFFCURVE",
"557 107 OFFCURVE",
"557 271 CURVE SMOOTH",
"557 420 OFFCURVE",
"466 540 OFFCURVE",
"283 540 CURVE SMOOTH",
"95 540 LINE",
"95 0 LINE"
);
},
{
closed = 1;
nodes = (
"536 271 CURVE SMOOTH",
"536 128 OFFCURVE",
"450 19 OFFCURVE",
"283 19 CURVE SMOOTH",
"115 19 LINE",
"115 520 LINE",
"283 520 LINE SMOOTH",
"446 520 OFFCURVE",
"536 416 OFFCURVE"
);
}
);
width = 612;
},
{
anchors = (
{
name = top;
position = "{354, 707}";
}
);
layerId = "A8272220-FCE5-4C48-BDEF-D37440F7149C";
paths = (
{
closed = 1;
nodes = (
"290 0 LINE",
"467 0 OFFCURVE",
"583 109 OFFCURVE",
"583 277 CURVE SMOOTH",
"583 429 OFFCURVE",
"484 551 OFFCURVE",
"290 551 CURVE SMOOTH",
"79 551 LINE",
"79 0 LINE"
);
},
{
closed = 1;
nodes = (
"501 277 CURVE SMOOTH",
"501 159 OFFCURVE",
"428 71 OFFCURVE",
"290 71 CURVE SMOOTH",
"159 71 LINE",
"159 480 LINE",
"290 480 LINE SMOOTH",
"425 480 OFFCURVE",
"501 396 OFFCURVE"
);
}
);
width = 625;
},
{
anchors = (
{
name = top;
position = "{349, 707}";
}
);
layerId = "CD86D743-087E-48CD-95ED-391136C80322";
paths = (
{
closed = 1;
nodes = (
"299 0 LINE SMOOTH",
"493 0 OFFCURVE",
"621 113 OFFCURVE",
"621 285 CURVE SMOOTH",
"621 442 OFFCURVE",
"511 568 OFFCURVE",
"299 568 CURVE SMOOTH",
"55 568 LINE",
"55 0 LINE"
);
},
{
closed = 1;
nodes = (
"448 285 CURVE SMOOTH",
"448 206 OFFCURVE",
"394 148 OFFCURVE",
"299 148 CURVE SMOOTH",
"225 148 LINE",
"225 420 LINE",
"299 420 LINE SMOOTH",
"392 420 OFFCURVE",
"448 366 OFFCURVE"
);
}
);
width = 645;
}
);
userData = {
org.robofab.fontlab.mark = 0;
};
},
{
glyphname = E.sc;
lastChange = "2016-08-01 09:41:41 +0000";
layers = (
{
anchors = (
{
name = bottom;
position = "{348, 0}";
},
{
name = top;
position = "{348, 707}";
}
);
layerId = "DC0D5209-C0CE-4187-A591-293A64199C8F";
paths = (
{
closed = 1;
nodes = (
"115 19 LINE",
"115 266 LINE",
"427 266 LINE",
"427 285 LINE",
"115 285 LINE",
"115 520 LINE",
"471 520 LINE",
"471 540 LINE",
"95 540 LINE",
"95 0 LINE",
"478 0 LINE",
"478 19 LINE"
);
}
);
width = 532;
},
{
anchors = (
{
name = bottom;
position = "{345, 0}";
},
{
name = top;
position = "{345, 707}";
}
);
layerId = "A8272220-FCE5-4C48-BDEF-D37440F7149C";
paths = (
{
closed = 1;
nodes = (
"159 71 LINE",
"159 248 LINE",
"441 248 LINE",
"441 314 LINE",
"159 314 LINE",
"159 480 LINE",
"483 480 LINE",
"483 551 LINE",
"79 551 LINE",
"79 0 LINE",
"491 0 LINE",
"491 71 LINE"
);
}
);
width = 530;
},
{
anchors = (
{
name = bottom;
position = "{340, 0}";
},
{
name = top;
position = "{340, 707}";
}
);
layerId = "CD86D743-087E-48CD-95ED-391136C80322";
paths = (
{
closed = 1;
nodes = (
"225 148 LINE",
"225 220 LINE",
"461 220 LINE",
"461 358 LINE",
"225 358 LINE",
"225 420 LINE",
"501 420 LINE",
"501 568 LINE",
"55 568 LINE",
"55 0 LINE",
"509 0 LINE",
"509 148 LINE"
);
}
);
width = 540;
}
);
userData = {
org.robofab.fontlab.mark = 0;
};
},
{
glyphname = F.sc;
lastChange = "2016-08-01 09:41:41 +0000";
layers = (
{
layerId = "DC0D5209-C0CE-4187-A591-293A64199C8F";
paths = (
{
closed = 1;
nodes = (
"115 0 LINE",
"115 266 LINE",
"418 266 LINE",
"418 286 LINE",
"115 286 LINE",
"115 520 LINE",
"470 520 LINE",
"470 540 LINE",
"95 540 LINE",
"95 0 LINE"
);
}
);
width = 519;
},
{
layerId = "A8272220-FCE5-4C48-BDEF-D37440F7149C";
paths = (
{
closed = 1;
nodes = (
"159 0 LINE",
"159 241 LINE",
"429 241 LINE",
"429 308 LINE",
"159 308 LINE",
"159 480 LINE",
"479 480 LINE",
"479 551 LINE",
"79 551 LINE",
"79 0 LINE"
);
}
);
width = 511;
},
{
layerId = "CD86D743-087E-48CD-95ED-391136C80322";
paths = (
{
closed = 1;
nodes = (
"225 0 LINE",
"225 204 LINE",
"444 204 LINE",
"444 342 LINE",
"225 342 LINE",
"225 420 LINE",
"492 420 LINE",
"492 568 LINE",
"55 568 LINE",
"55 0 LINE"
);
}
);
width = 508;
}
);
userData = {
org.robofab.fontlab.mark = 0;
};
},
